<svg width="176" height="197" viewBox="0 0 176 197" fill="none" xmlns="http://www.w3.org/2000/svg">
  <path
    d="M18.1079 181.471C16.1963 181.051 12.0906 181.044 9.92931 181.53C7.9717 181.97 5.42287 182.752 6.41481 184.677C7.10457 186.017 8.58263 186.391 9.92274 186.661C15.5919 187.791 21.2677 188.927 26.9369 190.057C35.0761 191.68 43.2284 193.309 51.499 194.13C56.9317 194.669 62.7454 194.767 67.6591 191.529C67.3044 191.759 62.4366 188.231 61.7009 187.896C60.0323 187.14 58.5214 186.713 56.7018 186.753C52.6486 186.845 49.2326 186.549 45.2254 185.675C34.9907 183.435 28.3492 183.718 18.1079 181.478V181.471Z"
    fill="black" />
  <path
    d="M60.1245 132.15L26.405 146.589C26.405 146.589 17.0899 149.953 5.64645 124.399L5.63331 124.366C-4.23357 98.1679 4.72677 93.9702 4.72677 93.9702L38.1507 79.9581C32.7837 82.3033 32.9873 95.9606 39.0244 110.334C45.0746 124.753 54.6984 134.43 60.1245 132.15Z"
    fill="white" stroke="black" stroke-width="0.8" stroke-miterlimit="10" />
  <path d="M60.3015 132.071L60.1245 132.15C60.1835 132.123 60.2425 132.097 60.3015 132.071Z" fill="white" stroke="black"
    stroke-width="0.8" stroke-miterlimit="10" />
  <path
    d="M21.6729 94.702L6.86306 100.918C5.98325 101.288 5.5694 102.3 5.93869 103.18L5.94124 103.186C6.31054 104.066 7.32314 104.48 8.20295 104.111L23.0128 97.8942C23.8926 97.5249 24.3065 96.5122 23.9372 95.6324L23.9346 95.6264C23.5653 94.7466 22.5527 94.3327 21.6729 94.702Z"
    fill="white" stroke="black" stroke-width="0.8" stroke-miterlimit="10" />
  <path
    d="M22.482 101.662L7.67215 107.878C6.79233 108.247 6.37848 109.26 6.74778 110.14L6.75032 110.146C7.11962 111.026 8.13223 111.44 9.01204 111.07L23.8219 104.854C24.7017 104.485 25.1156 103.472 24.7463 102.592L24.7437 102.586C24.3744 101.706 23.3618 101.293 22.482 101.662Z"
    fill="white" stroke="black" stroke-width="0.8" stroke-miterlimit="10" />
  <path
    d="M24.4136 108.497L9.60379 114.713C8.72398 115.082 8.31012 116.095 8.67942 116.975L8.68196 116.981C9.05126 117.861 10.0639 118.275 10.9437 117.905L25.7535 111.689C26.6334 111.32 27.0472 110.307 26.6779 109.427L26.6754 109.421C26.3061 108.541 25.2935 108.127 24.4136 108.497Z"
    fill="white" stroke="black" stroke-width="0.8" stroke-miterlimit="10" />
  <path
    d="M28.3625 145.742C28.3625 145.742 37.047 164.996 50.2707 188.71C53.864 195.148 61.8784 197.631 68.487 194.367L72.8817 192.192C74.4583 191.417 75.089 189.505 74.2941 187.942C68.3359 176.242 56.2618 150.977 49.4692 136.702L28.356 145.742H28.3625Z"
    fill="white" stroke="black" stroke-width="0.8" stroke-miterlimit="10" />
  <path d="M47.0849 137.734L28.3628 145.742L30.6226 150.596L47.0849 137.734Z" fill="black" />
  <path
    d="M62.6604 162.23C62.9823 162.756 62.7918 163.367 62.3713 163.826C56.2554 170.507 45.9287 173.726 42.3354 173.864C41.7113 173.89 41.1004 173.805 40.8311 173.24L40.634 172.82C40.5026 172.544 40.6274 172.136 40.9296 172.13C44.7923 172.031 56.2554 168.162 61.6947 161.646C61.8721 161.435 62.2268 161.54 62.3713 161.777L62.6604 162.237V162.23Z"
    fill="white" stroke="black" stroke-width="0.8" stroke-miterlimit="10" />
  <path
    d="M64.9592 166.934C65.2811 167.459 65.0906 168.07 64.6702 168.53C58.5543 175.211 48.2276 178.43 44.6342 178.568C44.0101 178.594 43.3992 178.509 43.1299 177.944L42.9328 177.523C42.8014 177.247 42.9262 176.84 43.2284 176.833C47.0911 176.735 58.5543 172.866 63.9935 166.349C64.1709 166.139 64.5256 166.244 64.6702 166.48L64.9592 166.94V166.934Z"
    fill="white" stroke="black" stroke-width="0.8" stroke-miterlimit="10" />
  <path
    d="M58.988 101.919C65.0382 116.338 65.5506 129.871 60.1245 132.15C54.6984 134.43 45.0745 124.753 39.0243 110.334C32.9741 95.9145 32.7836 82.2112 38.2098 79.9383C43.6359 77.6654 52.9378 87.506 58.9946 101.925L58.988 101.919Z"
    fill="black" stroke="black" stroke-width="1.16" stroke-miterlimit="10" />
  <path
    d="M127.846 129.325C90.7368 116.634 58.9289 128.99 58.9289 128.99C54.7443 128.077 51.4992 124.878 48.9372 121.633C46.1979 118.171 44.0826 114.091 42.3089 110.209C40.4958 106.235 39.09 102.155 38.282 97.8328C37.8156 95.3234 37.6054 92.7548 37.7828 90.206C37.9273 88.117 38.3346 85.5419 39.7601 83.8865C67.344 69.2569 80.3575 48.3801 86.2369 34.7754C85.8231 48.4261 89.5018 66.3008 97.2665 84.6222C105.655 104.415 116.987 120.431 127.846 129.325Z"
    fill="white" stroke="black" stroke-width="0.8" stroke-miterlimit="10" />
  <path
    d="M149.878 135.969C164.305 129.854 164.149 96.938 149.531 62.4487C134.912 27.9593 111.366 4.95728 96.939 11.0723C82.5119 17.1873 82.6671 50.1037 97.2857 84.5931C111.904 119.083 135.45 142.084 149.878 135.969Z"
    fill="white" stroke="black" stroke-width="0.8" stroke-miterlimit="10" />
  <path
    d="M147.644 130.701C159.633 125.62 158.5 95.9 145.115 64.3201C131.729 32.7401 111.16 11.2589 99.1712 16.3403C87.1826 21.4218 88.3149 51.1417 101.7 82.7217C115.086 114.302 135.655 135.783 147.644 130.701Z"
    fill="#3997DF" stroke="black" stroke-width="0.8" stroke-miterlimit="10" />
  <path
    d="M128.616 92.1737C132.156 90.6729 131.923 82.1341 128.095 73.1017C124.266 64.0693 118.292 57.9638 114.752 59.4646C111.211 60.9654 111.444 69.5042 115.272 78.5366C119.101 87.5689 125.075 93.6745 128.616 92.1737Z"
    fill="white" stroke="black" stroke-width="0.8" stroke-miterlimit="10" />
  <path
    d="M128.588 92.2095C121.658 95.5467 116.823 101.801 113.913 105.906C99.9533 85.1542 94.4746 61.814 94.4746 61.814C103.008 62.1228 114.727 59.4951 114.727 59.4951C111.187 60.9929 111.416 69.5328 115.246 78.5654C119.076 87.598 125.047 93.7073 128.588 92.2095Z"
    fill="black" stroke="black" stroke-width="0.8" stroke-miterlimit="10" />
  <path d="M122.25 8.35422L123.248 2.32373" stroke="black" stroke-width="0.8" stroke-linecap="round"
    stroke-linejoin="round" />
  <path d="M128.602 13.9183L134.921 11.6322" stroke="black" stroke-width="0.8" stroke-linecap="round"
    stroke-linejoin="round" />
</svg>