<?xml version="1.0" encoding="utf-8"?>
<!-- Generator: Adobe Illustrator 25.2.3, SVG Export Plug-In . SVG Version: 6.00 Build 0)  -->
<svg version="1.1" id="Layer_1" xmlns="http://www.w3.org/2000/svg" xmlns:xlink="http://www.w3.org/1999/xlink" x="0px" y="0px"
	 viewBox="0 0 255.6 44.4" style="enable-background:new 0 0 255.6 44.4;" xml:space="preserve">
<style type="text/css">
	.st0{clip-path:url(#SVGID_2_);}
	.st1{clip-path:url(#SVGID_4_);}
	.st2{fill:#1B1C30;}
	.st3{fill:url(#SVGID_5_);}
</style>
<g>
	<g>
		<defs>
			<rect id="SVGID_1_" width="255.6" height="44.4"/>
		</defs>
		<clipPath id="SVGID_2_">
			<use xlink:href="#SVGID_1_"  style="overflow:visible;"/>
		</clipPath>
		<g class="st0">
			<g>
				<g>
					<defs>
						<rect id="SVGID_3_" width="255.6" height="44.4"/>
					</defs>
					<clipPath id="SVGID_4_">
						<use xlink:href="#SVGID_3_"  style="overflow:visible;"/>
					</clipPath>
					<g class="st1">
						<path class="st2" d="M48.1,26.7c2.3,2.2,5.4,3.5,8.6,3.6c3.3,0,5-1.2,5-3.1c0-2.2-2.7-3-5.8-3.7c-4.4-0.9-9.6-2.1-9.6-7.8
							c0-4.2,3.6-7.7,10-7.7c3.6-0.1,7.2,1.2,9.9,3.6l-2.3,3.9c-2-2-4.7-3.1-7.5-3.1c-2.9,0-4.7,1.1-4.7,2.8c0,2,2.5,2.6,5.5,3.3
							c4.4,0.9,9.9,2.2,9.9,8.2c0,4.5-3.7,7.9-10.6,7.9c-4,0.1-7.9-1.3-10.9-4L48.1,26.7z"/>
						<path class="st2" d="M69.9,21.3C69.9,14,74.9,8,83,8c8.2,0,13.1,6.1,13.1,13.3c0,7.3-5,13.4-13.1,13.4S69.9,28.6,69.9,21.3
							 M90.3,21.3c0-4.5-2.6-8.4-7.4-8.4c-4.7,0-7.3,4-7.3,8.4c0,4.5,2.6,8.5,7.3,8.5C87.7,29.8,90.3,25.8,90.3,21.3"/>
						<path class="st2" d="M117.6,18.1c0-4-2-5.3-5.1-5.3c-2.6,0.1-5,1.3-6.5,3.4V34h-5.5V8.5h5.5V12c2.3-2.6,5.5-4.1,9-4.1
							c5.5,0,8.2,3,8.2,8.2V34h-5.5L117.6,18.1z"/>
						<path class="st2" d="M145,31.3c-2.1,2.3-5.1,3.5-8.2,3.4c-4.2,0-8.9-2.8-8.9-8.4c0-5.8,4.7-8.3,8.9-8.3c3.4,0,6.4,1.1,8.2,3.3
							v-3.8c0-3-2.4-4.7-6-4.7c-2.8,0-5.6,1.2-7.5,3.2l-2.3-3.8c2.9-2.7,6.7-4.2,10.7-4.1c5.6,0,10.6,2.4,10.6,9.2v16.9H145V31.3z
							 M145,24.4c-1.5-1.8-3.7-2.7-6.1-2.6c-3.1,0-5.4,1.8-5.4,4.6c0,2.7,2.3,4.5,5.4,4.5c2.3,0.1,4.6-0.9,6.1-2.6V24.4z"/>
						<path class="st2" d="M158.8,28.1V13.4h-4.2V8.6h4.2v-7h5.5v7h5.2v4.8h-5.2v13.3c0,1.7,0.8,3,2.4,3c0.9,0,1.8-0.3,2.5-0.9
							l1.3,4.2c-1,0.9-2.6,1.6-5.2,1.6C161.1,34.7,158.8,32.4,158.8,28.1"/>
						<path class="st2" d="M177.5,39.5c1.6,0.2,3.1-0.7,3.6-2.2l1.3-2.9L172,8.6h5.9l7.4,19.1l7.4-19.1h6l-12.3,30
							c-1.7,4.3-4.8,5.7-8.7,5.7c-1,0-2.1-0.1-3.1-0.4l0.8-5C176.1,39.3,176.8,39.5,177.5,39.5"/>
						<path class="st2" d="M201.4,43.7V8.6h5.5v3.5c1.9-2.6,4.9-4.1,8.2-4.1c6.6,0,11.3,5,11.3,13.3s-4.7,13.4-11.3,13.4
							c-3.2,0-6.3-1.5-8.2-4.2v13.2H201.4z M213.4,12.9c-2.6,0.1-5,1.3-6.5,3.4v10.1c1.5,2.1,3.9,3.4,6.5,3.4c4.4,0,7.2-3.5,7.2-8.5
							C220.6,16.4,217.8,12.9,213.4,12.9"/>
						<path class="st2" d="M243,8c7.6,0,12.5,5.8,12.5,13.9v1.3h-19.7c0.4,4.1,4,7.2,8.1,7c2.7,0,5.2-1,7.2-2.8l2.5,3.6
							c-2.8,2.5-6.5,3.8-10.3,3.7c-7.6,0-13.3-5.3-13.3-13.4C230.1,13.9,235.5,8,243,8 M235.9,19.2h14.3c0-3.8-3.1-6.8-6.9-6.8
							c-0.1,0-0.2,0-0.3,0C238.3,12.5,236.1,16.1,235.9,19.2"/>
						
							<linearGradient id="SVGID_5_" gradientUnits="userSpaceOnUse" x1="1.753315e-02" y1="-241.3302" x2="36.9087" y2="-220.0311" gradientTransform="matrix(1 0 0 1 0 251.9999)">
							<stop  offset="0" style="stop-color:#8002EF"/>
							<stop  offset="1" style="stop-color:#4BA9EA"/>
						</linearGradient>
						<path class="st3" d="M18.5,0L0,10.7V32l18.4,10.6L36.8,32V10.7L18.5,0z M31.6,28.9l-13.2,7.6L5.2,28.9V13.7l13.2-7.6l13.2,7.6
							V28.9z"/>
					</g>
				</g>
			</g>
		</g>
	</g>
</g>
</svg>
