<svg width="201" height="247" viewBox="0 0 201 247" fill="none" xmlns="http://www.w3.org/2000/svg">
<path d="M4.17639 193.224L117.997 245.71L164.584 53.486L50.7709 1L4.17639 193.224Z" fill="#54A6EC" stroke="black" stroke-width="0.656639" stroke-linecap="round" stroke-linejoin="round"/>
<path d="M200.167 193.686L117.997 245.71L164.584 53.4861L200.159 193.686H200.167ZM165.196 84.0475L130.09 228.906L192.007 189.7L165.196 84.0475Z" fill="white" stroke="black" stroke-width="0.656639" stroke-linecap="round" stroke-linejoin="round"/>
<path d="M192.007 189.7L144.323 170.173L165.196 84.0476L192.007 189.7Z" fill="black" stroke="black" stroke-width="0.656639" stroke-linecap="round" stroke-linejoin="round"/>
<path d="M17.2749 179.505L110.555 221.229L152.022 63.9227L56.8664 18.9541L17.2749 179.505Z" fill="black" stroke="black" stroke-width="0.656639" stroke-linecap="round" stroke-linejoin="round"/>
<path d="M1.00739 163.707L96.9116 207.526C102.78 198.533 107.84 189.934 113.391 179.415C135.505 137.539 145.125 96.7227 152.014 63.9227C120.296 48.9332 88.5774 33.9436 56.8514 18.9541C50.0297 46.6265 41.2417 79.729 25.8211 114.798C17.8725 132.88 9.41742 149.178 1 163.699L1.00739 163.707Z" fill="white" stroke="black" stroke-width="0.656639" stroke-linecap="round" stroke-linejoin="round"/>
<path d="M79.8583 47.0642C80.317 44.5622 79.6498 42.3436 78.368 42.1085C77.0862 41.8735 75.6751 43.7111 75.2164 46.2131C74.7576 48.7151 75.4249 50.9339 76.7067 51.169C77.9885 51.404 79.3995 49.5662 79.8583 47.0642Z" fill="black" stroke="black" stroke-width="0.656639" stroke-linecap="round" stroke-linejoin="round"/>
<path d="M79.5549 48.2221C70.1391 45.8095 65.798 34.5258 68.9139 23.5143C72.0298 12.5028 81.4835 5.54507 90.037 7.95761C96.4503 9.77269 100.527 16.2691 100.852 24.0891L96.7073 22.1757C95.9737 16.5489 93.3873 12.9415 89.4168 11.913C82.4968 10.113 75.6751 15.4221 73.0508 24.6941C70.4265 33.9662 72.8996 41.8164 79.7742 43.76C79.7742 43.76 80.5532 46.0289 79.5549 48.2221Z" fill="white" stroke="black" stroke-width="0.656639" stroke-linecap="round" stroke-linejoin="round"/>
<path d="M125.153 67.9001C125.612 65.3981 124.945 63.1792 123.663 62.9442C122.381 62.7092 120.97 64.547 120.511 67.049C120.052 69.551 120.72 71.7696 122.001 72.0046C123.283 72.2397 124.694 70.4021 125.153 67.9001Z" fill="black" stroke="black" stroke-width="0.656639" stroke-linecap="round" stroke-linejoin="round"/>
<path d="M124.849 69.0653C115.433 66.6528 111.092 55.3691 114.208 44.3577C117.324 33.3462 126.777 26.3883 135.331 28.8009C141.744 30.6159 145.82 37.1125 146.146 44.9324L142.001 43.019C141.268 37.3923 138.681 33.7848 134.711 32.7562C127.791 30.9563 120.969 36.2654 118.345 45.5374C115.72 54.8094 118.193 62.6596 125.068 64.6033C125.068 64.6033 125.847 66.8721 124.849 69.0653Z" fill="white" stroke="black" stroke-width="0.656639" stroke-linecap="round" stroke-linejoin="round"/>
<path d="M52.6236 107.704C54.1739 106.872 57.2295 105.224 61.8352 102.735C66.4788 100.225 69.6097 98.4851 71.1979 97.5246C73.3458 96.2692 74.8887 95.1499 75.8416 94.1894C76.7945 93.2214 77.5356 91.8903 78.0574 90.1812C78.5793 88.472 78.4886 86.7401 77.7626 84.9704C77.0365 83.2082 75.728 81.915 73.8373 81.0906C72.0979 80.3343 70.5022 80.3192 69.0502 81.0528C67.5981 81.7788 66.4787 82.8603 65.677 84.2821L61.0032 79.1999C61.8351 77.7857 62.9847 76.5378 64.4519 75.4412C65.9191 74.3446 67.6585 73.6336 69.6778 73.3084C71.697 72.9832 73.8299 73.3009 76.0609 74.2614C78.4886 75.305 80.47 76.8252 81.9976 78.8142C83.5329 80.8108 84.501 83.0342 84.9094 85.4997C85.3178 87.9576 85.1437 90.4005 84.3874 92.8206C83.5782 95.4071 82.2322 97.6381 80.3566 99.5061C78.481 101.367 76.3633 102.925 74.0037 104.172C73.013 104.656 70.5021 105.972 66.4787 108.097L60.4285 111.297L60.4587 111.599L76.7415 119.086L74.7448 125.469L50.6725 114.284L52.6311 107.712L52.6236 107.704Z" fill="black"/>
<path d="M85.3256 128.29C83.4803 125.257 82.6785 121.688 82.9129 117.574L89.4852 117.468C89.281 119.994 89.6212 122.172 90.5136 124.017C91.406 125.855 92.7748 127.201 94.6202 128.048C96.5033 128.918 98.3487 129.009 100.141 128.32C101.941 127.632 103.181 126.271 103.847 124.229C104.535 122.142 104.369 120.099 103.348 118.11C102.327 116.121 100.731 114.639 98.5606 113.664L95.2025 112.151L97.3353 105.526L100.368 106.872C102.244 107.704 104.013 107.825 105.685 107.228C107.356 106.63 108.528 105.314 109.201 103.272C109.799 101.45 109.693 99.7404 108.884 98.1371C108.075 96.5414 106.781 95.3464 105.004 94.575C103.272 93.8187 101.722 93.7506 100.36 94.3783C99.0067 94.9985 97.8495 95.9817 96.8966 97.3278L92.0186 92.0187C93.5766 89.8255 95.6941 88.2147 98.3789 87.171C101.071 86.1274 104.051 86.2937 107.303 87.7004C109.716 88.7365 111.712 90.2112 113.293 92.1246C114.874 94.038 115.902 96.1859 116.371 98.5682C116.84 100.95 116.681 103.318 115.895 105.685C115.1 108.082 113.921 109.89 112.355 111.1C110.797 112.31 109.141 113.021 107.386 113.248L107.258 113.641C108.884 115.426 110.003 117.543 110.616 119.986C111.228 122.429 111.1 124.955 110.23 127.572C109.36 130.181 108.006 132.23 106.161 133.728C104.323 135.218 102.198 136.065 99.7932 136.284C97.3882 136.496 94.9303 136.019 92.4195 134.847C89.538 133.508 87.1785 131.315 85.3256 128.283V128.29Z" fill="black"/>
<path d="M130.09 228.906L144.323 170.173L192.007 189.7L130.09 228.906Z" fill="white" stroke="black" stroke-width="0.656639" stroke-linecap="round" stroke-linejoin="round"/>
</svg>
