<svg width="80" height="80" viewBox="0 0 80 80" fill="none" xmlns="http://www.w3.org/2000/svg">
<circle cx="40" cy="40" r="40" fill="#FF676A"/>
<path d="M40.3333 17C31.3033 17 24 24.3033 24 33.3333C24 37.3933 25.1667 41.1967 27.29 44.6267C29.5067 48.22 32.4233 51.3 34.6633 54.8933C35.76 56.6433 36.5533 58.2767 37.3933 60.1667C38 61.45 38.49 63.6667 40.3333 63.6667C42.1767 63.6667 42.6667 61.45 43.25 60.1667C44.1133 58.2767 44.8833 56.6433 45.98 54.8933C48.22 51.3233 51.1367 48.2433 53.3533 44.6267C55.5 41.1967 56.6667 37.3933 56.6667 33.3333C56.6667 24.3033 49.3633 17 40.3333 17ZM40.3333 39.75C37.1133 39.75 34.5 37.1367 34.5 33.9167C34.5 30.6967 37.1133 28.0833 40.3333 28.0833C43.5533 28.0833 46.1667 30.6967 46.1667 33.9167C46.1667 37.1367 43.5533 39.75 40.3333 39.75Z" fill="white"/>
</svg>
