<svg width="80" height="80" viewBox="0 0 80 80" fill="none" xmlns="http://www.w3.org/2000/svg">
<circle cx="40" cy="40" r="40" fill="#FF676A"/>
<path d="M33 38H28.3333V42.6667H33V38ZM42.3333 38H37.6667V42.6667H42.3333V38ZM51.6667 38H47V42.6667H51.6667V38ZM56.3333 21.6667H54V17H49.3333V21.6667H30.6667V17H26V21.6667H23.6667C21.0767 21.6667 19.0233 23.7667 19.0233 26.3333L19 59C19 61.5667 21.0767 63.6667 23.6667 63.6667H56.3333C58.9 63.6667 61 61.5667 61 59V26.3333C61 23.7667 58.9 21.6667 56.3333 21.6667ZM56.3333 59H23.6667V33.3333H56.3333V59Z" fill="white"/>
</svg>
