<svg width="127" height="177" viewBox="0 0 127 177" fill="none" xmlns="http://www.w3.org/2000/svg">
  <path
    d="M9.2701 102.827C14.2746 102.827 18.3315 98.7779 18.3315 93.7829C18.3315 88.7878 14.2746 84.7385 9.2701 84.7385C4.26565 84.7385 0.20874 88.7878 0.20874 93.7829C0.20874 98.7779 4.26565 102.827 9.2701 102.827Z"
    fill="#FF676A" />
  <path
    d="M9.27015 103.041C4.16008 103.041 0 98.8883 0 93.7879C0 88.6874 4.16008 84.5352 9.27015 84.5352C14.3802 84.5352 18.5403 88.6874 18.5403 93.7879C18.5403 98.8883 14.3802 103.041 9.27015 103.041ZM9.27015 84.9519C4.38975 84.9519 0.417574 88.9167 0.417574 93.7879C0.417574 98.6591 4.38975 102.624 9.27015 102.624C14.1505 102.624 18.1227 98.6591 18.1227 93.7879C18.1227 88.9167 14.1505 84.9519 9.27015 84.9519Z"
    fill="black" />
  <path
    d="M95.4209 46.399C97.8626 46.399 99.842 44.4233 99.842 41.9862C99.842 39.5491 97.8626 37.5735 95.4209 37.5735C92.9793 37.5735 90.9999 39.5491 90.9999 41.9862C90.9999 44.4233 92.9793 46.399 95.4209 46.399Z"
    fill="#FF676A" />
  <path
    d="M95.421 46.6075C92.8686 46.6075 90.7911 44.534 90.7911 41.9864C90.7911 39.4388 92.8686 37.3652 95.421 37.3652C97.9734 37.3652 100.051 39.4388 100.051 41.9864C100.051 44.534 97.9734 46.6075 95.421 46.6075ZM95.421 37.782C93.0982 37.782 91.2087 39.668 91.2087 41.9864C91.2087 44.3048 93.0982 46.1907 95.421 46.1907C97.7437 46.1907 99.6333 44.3048 99.6333 41.9864C99.6333 39.668 97.7437 37.782 95.421 37.782Z"
    fill="black" />
  <path
    d="M102.28 110.533C103.787 110.533 105.009 109.313 105.009 107.808C105.009 106.303 103.787 105.083 102.28 105.083C100.772 105.083 99.5497 106.303 99.5497 107.808C99.5497 109.313 100.772 110.533 102.28 110.533Z"
    fill="#FF676A" />
  <path
    d="M102.28 110.736C100.662 110.736 99.3409 109.423 99.3409 107.803C99.3409 106.182 100.656 104.869 102.28 104.869C103.903 104.869 105.218 106.182 105.218 107.803C105.218 109.423 103.903 110.736 102.28 110.736ZM102.28 105.291C100.891 105.291 99.7585 106.422 99.7585 107.808C99.7585 109.194 100.886 110.324 102.28 110.324C103.673 110.324 104.801 109.199 104.801 107.808C104.801 106.417 103.668 105.291 102.28 105.291Z"
    fill="black" />
  <path
    d="M56.4769 165.861C42.1176 165.861 27.2676 167.945 27.2676 171.431C27.2676 174.916 42.1228 177 56.4769 177C70.831 177 85.6862 174.916 85.6862 171.431C85.6862 167.945 70.831 165.861 56.4769 165.861Z"
    fill="black" />
  <path d="M110.099 80.5133L88.5936 71.6201L103.731 56.0842L125.799 64.6388L110.099 80.5133Z" fill="white" />
  <path
    d="M110.099 80.7217C110.073 80.7217 110.046 80.7165 110.02 80.7061L88.5153 71.8076C88.4527 71.7816 88.4057 71.7243 88.39 71.6565C88.3744 71.5888 88.3953 71.5211 88.4422 71.469L103.579 55.9384C103.637 55.8811 103.725 55.8602 103.804 55.8915L125.873 64.4461C125.94 64.4721 125.987 64.5294 126.003 64.5972C126.019 64.6649 125.998 64.7378 125.946 64.7899L110.245 80.6644C110.203 80.7061 110.151 80.7269 110.099 80.7269V80.7217ZM88.959 71.5419L110.046 80.2684L125.429 64.717L103.783 56.3291L88.9538 71.5419H88.959Z"
    fill="black" />
  <path d="M126.791 80.5134L111.085 95.3407L110.099 80.5134L125.799 64.6389L126.791 80.5134Z" fill="#2480EF" />
  <path
    d="M111.085 95.5489C111.085 95.5489 111.033 95.5489 111.007 95.5333C110.934 95.502 110.882 95.4343 110.876 95.3509L109.885 80.5236C109.885 80.4663 109.9 80.4038 109.947 80.3621L125.648 64.4877C125.705 64.4304 125.794 64.4095 125.867 64.4408C125.946 64.472 125.998 64.5398 126.003 64.6231L126.995 80.4976C126.995 80.5601 126.974 80.6174 126.932 80.6643L111.226 95.4916C111.184 95.5281 111.137 95.5489 111.085 95.5489ZM110.307 80.5914L111.263 94.882L126.572 80.4247L125.617 65.1077L110.307 80.5862V80.5914Z"
    fill="black" />
  <path d="M111.085 95.3406L90.29 86.7287L88.5936 71.6201L110.099 80.5134L111.085 95.3406Z" fill="black" />
  <path
    d="M111.085 95.5491C111.059 95.5491 111.033 95.5438 111.007 95.5334L90.2117 86.9215C90.1439 86.8903 90.0917 86.8277 90.0864 86.7548L88.39 71.6462C88.3796 71.5733 88.4109 71.5003 88.4736 71.4586C88.531 71.4117 88.6093 71.4065 88.6771 71.4326L110.182 80.331C110.255 80.3623 110.307 80.43 110.313 80.5082L111.304 95.3355C111.304 95.4084 111.278 95.4761 111.216 95.5178C111.179 95.5438 111.137 95.5595 111.096 95.5595L111.085 95.5491ZM90.4831 86.5829L110.856 95.0229L109.895 80.6593L88.8389 71.9484L90.4831 86.5829Z"
    fill="black" />
  <path
    d="M107.197 72.4952C103.72 72.4952 100.896 70.5676 100.896 68.1971C100.896 65.8266 103.72 63.8989 107.197 63.8989C110.673 63.8989 113.497 65.8266 113.497 68.1971C113.497 70.5676 110.673 72.4952 107.197 72.4952ZM107.197 64.3105C103.955 64.3105 101.314 66.0506 101.314 68.1919C101.314 70.3331 103.95 72.0732 107.197 72.0732C110.443 72.0732 113.079 70.3331 113.079 68.1919C113.079 66.0506 110.443 64.3105 107.197 64.3105Z"
    fill="black" />
  <path d="M54.1698 47.7067L10.1418 66.1548V18.6825L54.1698 0.234375V47.7067Z" fill="white" />
  <path
    d="M10.1419 66.3632C10.1001 66.3632 10.0584 66.3527 10.0271 66.3267C9.96964 66.2902 9.93311 66.2225 9.93311 66.1548V18.6825C9.93311 18.5991 9.9853 18.521 10.0636 18.4897L54.0916 0.0415571C54.1542 0.0155078 54.2325 0.0207176 54.2899 0.0623966C54.3474 0.0988656 54.3839 0.166594 54.3839 0.234322V47.7066C54.3839 47.79 54.3317 47.8681 54.2534 47.8994L10.2202 66.3475C10.2202 66.3475 10.168 66.3632 10.1367 66.3632H10.1419ZM10.3507 18.8179V65.837L53.9611 47.566V0.546914L10.3507 18.8231V18.8179Z"
    fill="black" />
  <path d="M78.6814 63.102L54.1698 47.6808V0.208496L78.6814 15.6297V63.102Z" fill="#2480EF" />
  <path
    d="M78.6815 63.3104C78.6449 63.3104 78.6032 63.2999 78.5718 63.2791L54.0602 47.8579C53.9976 47.8214 53.9611 47.7537 53.9611 47.6808V0.208452C53.9611 0.130304 54.0028 0.0625757 54.0707 0.0261067C54.1385 -0.0103624 54.2168 -0.00515255 54.2847 0.0313165L78.7963 15.4525C78.8589 15.489 78.8955 15.5567 78.8955 15.6297V63.102C78.8955 63.1801 78.8537 63.2478 78.7859 63.2843C78.7545 63.2999 78.718 63.3104 78.6867 63.3104H78.6815ZM54.3786 47.5661L78.4727 62.7269V15.7443L54.3786 0.583562V47.5661Z"
    fill="black" />
  <path d="M78.6814 63.1019L36.5847 81.5657L10.1418 66.1549L54.1698 47.7068L78.6814 63.1019Z" fill="black" />
  <path
    d="M36.5795 81.7741C36.5429 81.7741 36.5064 81.7637 36.4751 81.748L10.0322 66.3372C9.96434 66.2956 9.92259 66.2226 9.92781 66.1445C9.93303 66.0663 9.98 65.9986 10.0531 65.9673L54.0811 47.5192C54.1437 47.4932 54.2168 47.4984 54.2742 47.5348L78.7858 62.93C78.8484 62.9717 78.8902 63.0446 78.885 63.1228C78.8798 63.2009 78.8328 63.2686 78.7597 63.2999L36.6578 81.7637C36.6317 81.7741 36.6004 81.7793 36.5743 81.7793L36.5795 81.7741ZM10.6064 66.1862L36.5951 81.3364L78.2377 63.0707L54.1541 47.9412L10.6064 66.1862Z"
    fill="black" />
  <path
    d="M44.4142 24.5488L36.3811 27.8675L40.5412 19.0888L34.9666 18.3699L31.0727 27.0078L27.3198 21.6208L22.0166 26.8984L26.041 32.1448L18.2375 35.3697V41.4965L26.041 38.3289L22.0166 46.8731L27.3198 48.0192L31.0727 39.5584L34.9666 45.0079L40.5412 39.4959L36.3811 34.1297L44.4142 30.8631V24.5488Z"
    fill="white" />
  <path
    d="M27.445 48.2589L21.719 47.019L25.6286 38.7197L18.0339 41.8039V35.2291L25.7173 32.051L21.7451 26.8724L27.3563 21.2875L31.0414 26.5807L34.8465 18.1355L40.8596 18.9118L36.8091 27.4664L44.6282 24.231V30.9987L44.4977 31.0508L36.7204 34.2079L40.8283 39.5064L34.9457 45.3154L31.1249 39.9648L27.4502 48.2485L27.445 48.2589ZM22.3193 46.722L27.1997 47.7796L31.0309 39.1365L34.9927 44.685L40.2645 39.4803L36.047 34.0412L44.2002 30.7277V24.8666L35.9583 28.2739L40.228 19.2608L35.0918 18.5992L31.1092 27.4351L27.2884 21.9491L22.2932 26.9245L26.3698 32.2438L18.4463 35.5208V41.1996L26.4585 37.9434L22.3193 46.7377V46.722Z"
    fill="black" />
  <path d="M64.2594 151.951L30.5873 139.4L56.4769 112.007L90.9998 124.714L64.2594 151.951Z" fill="white" />
  <path
    d="M64.2594 152.159C64.2594 152.159 64.2125 152.159 64.1864 152.144L30.5142 139.593C30.4464 139.567 30.3994 139.515 30.3837 139.447C30.3681 139.38 30.3837 139.307 30.4359 139.255L56.3255 111.861C56.3829 111.799 56.4717 111.778 56.55 111.809L91.0677 124.516C91.1356 124.542 91.1826 124.599 91.1982 124.667C91.2139 124.735 91.1982 124.808 91.146 124.86L64.4108 152.097C64.3691 152.139 64.3169 152.159 64.2594 152.159ZM30.9527 139.312L64.202 151.706L90.6188 124.792L56.5291 112.241L30.9474 139.307L30.9527 139.312Z"
    fill="black" />
  <path d="M90.9998 124.714L56.4769 112.007L51.3877 88.5625L85.6236 101.134L90.9998 124.714Z" fill="black" />
  <path
    d="M90.9999 124.922C90.9999 124.922 90.9529 124.922 90.9268 124.906L56.4091 112.2C56.3412 112.174 56.2942 112.116 56.2786 112.049L51.1842 88.6093C51.1685 88.5364 51.1946 88.4583 51.252 88.4062C51.3094 88.3541 51.3929 88.3436 51.4608 88.3697L85.6967 100.936C85.7645 100.962 85.8115 101.014 85.8272 101.087L91.2034 124.667C91.2191 124.74 91.193 124.818 91.1356 124.87C91.099 124.901 91.0468 124.922 90.9999 124.922ZM56.6596 111.851L90.7128 124.385L85.4461 101.29L51.6696 88.8907L56.6596 111.851Z"
    fill="black" />
  <path d="M51.3878 88.5625L24.804 116.435L30.5874 139.4L56.477 112.007L51.3878 88.5625Z" fill="#2480EF" />
  <path
    d="M30.5874 139.609C30.5874 139.609 30.5508 139.609 30.5352 139.604C30.4621 139.583 30.4047 139.525 30.3838 139.452L24.6004 116.487C24.5847 116.42 24.6004 116.347 24.6526 116.295L51.2364 88.427C51.2886 88.3697 51.3669 88.3489 51.4452 88.3697C51.5183 88.3906 51.5757 88.4531 51.5914 88.526L56.6858 111.965C56.7014 112.033 56.6858 112.101 56.6336 112.153L30.744 139.546C30.7022 139.588 30.65 139.614 30.5926 139.614L30.5874 139.609ZM25.0336 116.493L30.697 138.978L56.2525 111.939L51.2677 88.9897L25.0336 116.493Z"
    fill="black" />
  <path
    d="M49.8949 130.674L52.3638 128.001L74.5161 128.845L71.0503 132.404L57.3747 131.476L57.1764 131.685L65.0528 138.556L61.7331 141.964L49.8949 130.674Z"
    fill="white" />
  <path
    d="M61.7436 142.261L49.6027 130.684L52.2804 127.788H52.3743L74.9912 128.652L71.1286 132.617H71.0347L57.5053 131.695L65.3609 138.546L61.7436 142.261ZM50.1925 130.669L61.7332 141.677L64.7554 138.572L56.8841 131.705L57.2965 131.268L70.972 132.195L74.0412 129.043L52.4578 128.22L50.1925 130.674V130.669Z"
    fill="black" />
</svg>