<?xml version="1.0" encoding="utf-8"?>
<!-- Generator: Adobe Illustrator 27.7.0, SVG Export Plug-In . SVG Version: 6.00 Build 0)  -->
<svg version="1.1" id="katman_1" xmlns="http://www.w3.org/2000/svg" xmlns:xlink="http://www.w3.org/1999/xlink" x="0px" y="0px"
	 viewBox="0 0 2255.4 2322.9" style="enable-background:new 0 0 2255.4 2322.9;" xml:space="preserve">
<style type="text/css">
	.st0{fill-rule:evenodd;clip-rule:evenodd;}
</style>
<g>
	<path class="st0" d="M557.4,563.6c57.1,46.2,77.8,42.6,184.8,35.3l1008-60.8c21.9,0,3.6-21.9-3.6-24.3l-167.8-120.4
		c-31.6-24.3-75.4-53.5-156.9-46.2l-975.2,71.7c-35.3,3.6-42.6,21.9-28,35.3L557.4,563.6z M618.2,798.2v1060.3
		c0,57.1,28,77.8,92.4,74.2l1107.7-64.4c64.4-3.6,71.7-42.6,71.7-88.8v-1053c0-46.2-18.2-71.7-57.1-68.1L675.3,726.5
		C632.8,730.1,618.2,752,618.2,798.2L618.2,798.2z M1711.3,855.4c7.3,31.6,0,64.4-31.6,68.1l-53.5,10.9v783
		c-46.2,24.3-88.8,38.9-125.2,38.9c-57.1,0-71.7-18.2-114.3-71.7l-349-548.4v530.1l110.6,24.3c0,0,0,64.4-88.8,64.4l-245.6,14.6
		c-7.3-14.6,0-49.9,24.3-57.1l64.4-18.2V994l-88.8-7.3c-7.3-31.6,10.9-77.8,60.8-81.5l263.9-18.2l363.6,554.5v-490l-92.4-10.9
		c-7.3-38.9,21.9-68.1,57.1-71.7L1711.3,855.4z M365.3,321.6l1015.3-74.2c124-10.9,156.9-3.6,234.7,53.5l323.4,227.4
		c53.5,38.9,71.7,49.9,71.7,92.4v1248.7c0,77.8-28,124-127.7,131.3l-1178.2,71.7c-75.4,3.6-110.6-7.3-149.6-57.1l-239.5-310.1
		c-42.6-57.1-60.8-99.7-60.8-149.6V445.6C254.6,381.2,283.8,328.9,365.3,321.6z"/>
</g>
</svg>
