<svg width="156" height="38" viewBox="0 0 156 38" fill="none" xmlns="http://www.w3.org/2000/svg">
  <path fill-rule="evenodd" clip-rule="evenodd"
    d="M18.8958 0H136.474C136.786 0 137.104 0.119793 137.349 0.364583L155.005 18.0208C155.484 18.5052 155.484 19.2917 155.005 19.7708L137.349 37.4323C137.104 37.6719 136.786 37.7969 136.474 37.7969H18.8958C18.5781 37.7969 18.2604 37.6719 18.0208 37.4323L0.359375 19.7708C-0.119792 19.2917 -0.119792 18.5052 0.359375 18.0208L18.0208 0.364583C18.2604 0.119793 18.5781 0 18.8958 0ZM126.651 17.7604C125.781 17.4115 122.578 16.9323 122.578 15.6042C122.578 14.625 123.776 14.3438 124.495 14.3438C125.146 14.3438 125.932 14.5365 126.344 14.9323C126.604 15.1927 126.714 15.3646 126.802 15.5833C126.911 15.8646 126.974 16.1719 127.391 16.1719H129.521C130.021 16.1719 130.156 16.0833 130.156 15.5625C130.156 12.6875 127.13 11.4271 124.365 11.4271C121.641 11.5312 119.073 12.9271 119.073 15.7552C119.073 18.5208 121.099 19.3906 123.297 20.0885C125.146 20.6771 127.083 20.6979 127.083 21.9167C127.083 23.1354 126.125 23.3958 124.953 23.3958C124.146 23.3958 123.255 23.1979 122.818 22.6771C122.536 22.349 122.427 22.0677 122.406 21.7865C122.359 21.2396 122.12 21.1771 121.62 21.1771H119.51C119.01 21.1771 118.88 21.2865 118.88 21.7865C118.88 24.8333 122.016 26.401 124.734 26.401C128.083 26.401 130.526 24.9219 130.526 21.8281C130.526 18.8698 128.219 18.2396 126.651 17.7604ZM59.651 21.4792V16.3438C59.651 12.9062 56.3906 11.4271 53.7969 11.4271C51.2083 11.4271 47.9844 12.9062 47.9844 16.3438V21.4792C47.9844 24.9219 51.2083 26.401 53.7969 26.401C56.3906 26.401 59.651 24.9219 59.651 21.4792ZM44.9583 23.0938H43.5885V14.776H44.8958C45.3958 14.776 45.526 14.5365 45.526 14.1458V12.3854C45.526 11.9896 45.3958 11.75 44.8958 11.75H38.8438C38.3438 11.75 38.2135 11.9896 38.2135 12.3854V14.1458C38.2135 14.5365 38.3438 14.776 38.8438 14.776H40.1719V23.0938H38.8021C38.3021 23.0938 38.1719 23.3333 38.1719 23.724V25.4427C38.1719 25.8333 38.3021 26.0729 38.8021 26.0729H44.9583C45.4635 26.0729 45.5938 25.8333 45.5938 25.4427V23.724C45.5938 23.3333 45.4635 23.0938 44.9583 23.0938ZM87.6667 23.026H80.724V20.1562H86.5573C87.0573 20.1562 87.1875 19.9115 87.1875 19.5208V17.8229C87.1875 17.4323 87.0573 17.1927 86.5573 17.1927H80.724V14.8229H87.2969C87.7969 14.8229 87.9271 14.5781 87.9271 14.1875V12.3854C87.9271 11.9896 87.7969 11.75 87.2969 11.75H77.9167C77.4115 11.75 77.2812 11.9896 77.2812 12.3854V25.4427C77.2812 25.8333 77.4115 26.0729 77.9167 26.0729H87.6667C88.1667 26.0729 88.2969 25.8333 88.2969 25.4427V23.6562C88.2969 23.2656 88.1667 23.026 87.6667 23.026ZM73.4323 11.75H71.3438C70.9479 11.75 70.7083 11.8802 70.7083 12.3854V19.9375L66.099 12.4896C65.8125 12.0573 65.6615 11.75 65.1146 11.75H63.0677C62.5677 11.75 62.4375 11.9896 62.4375 12.3854V25.4427C62.4375 25.9427 62.6771 26.0729 63.0677 26.0729H65.224C65.6146 26.0729 65.8542 25.9427 65.8542 25.4427V17.8646L70.4688 25.3333C70.7552 25.7708 70.9062 26.0729 71.4479 26.0729H73.4323C73.9323 26.0729 74.0625 25.8333 74.0625 25.4427V12.3854C74.0625 11.8802 73.8229 11.75 73.4323 11.75ZM102.661 25.375L99.5938 20.9167C100.943 20.4583 102.62 18.8698 102.62 16.5833C102.62 15.1927 102.161 13.9479 101.359 13.1667C100.443 12.25 99.3958 11.776 97.026 11.776H91.5417C91.0417 11.776 90.9323 12.0104 90.9323 12.4062V25.4427C90.9323 25.9427 91.1458 26.0729 91.5417 26.0729H93.6927C94.0885 26.0729 94.3281 25.9427 94.3281 25.4427V14.8229H97.224C98.3542 14.8229 99.224 15.5417 99.224 16.6719C99.224 17.6927 98.224 18.4323 97.1562 18.4323H96.7188C96.2188 18.4323 96.0885 18.6719 96.0885 19.0625V20.8073C96.0885 21.4167 96.1354 21.6562 96.3281 21.9167L98.6823 25.4219C98.9844 25.8802 99.2448 26.0729 99.7708 26.0729H102.339C102.75 26.0729 102.859 25.6823 102.661 25.375ZM30.8333 18.8854C32.349 18.7917 33.0104 17.8958 33.0104 16.8646C33.0104 15.7344 32.2708 14.8229 30.5729 14.8229H28.4844V25.4427C28.4844 25.9427 28.2448 26.0729 27.8542 26.0729H25.6979C25.3073 26.0729 25.0677 25.9427 25.0677 25.4427V12.3854C25.0677 11.9896 25.1979 11.75 25.6979 11.75H30.5938C34.3385 11.75 36.2969 13.7969 36.2969 16.8021C36.2969 19.8281 34.2969 21.8281 30.5729 21.8281H30.2396V19.5156C30.2396 19.1302 30.3646 18.8958 30.8333 18.8854ZM112.641 20.6562L111 15.8438L109.656 19.7969L108.104 24.3125L107.714 25.4219C107.536 25.9427 107.365 26.0729 106.885 26.0729H104.599C104.12 26.0729 104.12 25.724 104.229 25.4635L109.062 12.4271C109.234 11.9688 109.474 11.75 109.953 11.75H112.047C112.521 11.75 112.74 11.9688 112.938 12.4271L117.745 25.4635C117.854 25.724 117.854 26.0729 117.38 26.0729H115.094C114.615 26.0729 114.438 25.9427 114.266 25.4219L113.682 23.7083H110.073L110.896 21.3281C111.057 20.8698 111.292 20.6562 111.771 20.6562H112.641ZM56.2344 16.651V21.1771C56.2344 22.5677 55.2344 23.375 53.7969 23.375C52.3854 23.375 51.3802 22.5677 51.3802 21.1771V16.651C51.3802 15.2552 52.3854 14.4479 53.7969 14.4479C55.2344 14.4479 56.2344 15.2552 56.2344 16.651ZM17.9896 19.2552C18.1771 19.0677 18.1771 18.7604 17.9896 18.5729L15.1875 15.7708C15 15.5833 14.6927 15.5833 14.5052 15.7708L11.7031 18.5729C11.5156 18.7604 11.5156 19.0677 11.7031 19.2552L14.5052 22.0573C14.6927 22.2448 15 22.2448 15.1875 22.0573L17.9896 19.2552ZM142.135 19.2552C142.323 19.0677 142.323 18.7604 142.135 18.5729L139.333 15.7708C139.146 15.5833 138.839 15.5833 138.651 15.7708L135.849 18.5729C135.661 18.7604 135.661 19.0677 135.849 19.2552L138.651 22.0573C138.839 22.2448 139.146 22.2448 139.333 22.0573L142.135 19.2552Z"
    fill="white" />
</svg>