<svg width="171" height="57" viewBox="0 0 171 57" fill="none" xmlns="http://www.w3.org/2000/svg">
  <path d="M20.8555 36.7875H15.8212V56.677H20.8555V36.7875Z" fill="white" />
  <path d="M20.8564 5.00602H36.1983L36.5979 0.161326H0.399588L0 5.00602H15.8212V20.9664H20.8564V5.00602Z"
    fill="white" />
  <path d="M46.5857 56.6761H76.8709L77.2705 51.8324H52.0186V36.7875H46.5857V56.6761Z" fill="white" />
  <path d="M52.0186 5.00602H75.2725L75.6721 0.161326H46.5857V20.9664H52.0186V5.00602Z" fill="white" />
  <path
    d="M93.0908 52.3166C95.2754 54.2007 97.6466 55.4526 100.204 56.0715C102.761 56.6894 104.984 57.0002 106.876 57.0002C108.768 57.0002 110.564 56.8912 112.269 56.677C118.128 56.0857 122.23 55.0091 124.575 53.4473L123.456 49.4915C122.337 50.1378 120.245 50.8107 117.182 51.5101C114.119 52.2105 111.069 52.5592 108.034 52.5592C103.291 52.5592 99.5892 51.3481 96.9262 48.9257C94.0044 46.3385 92.1809 42.2918 91.4549 36.7875H85.9751C86.7799 43.7522 89.1483 48.9333 93.0908 52.3166Z"
    fill="white" />
  <path
    d="M96.6476 11.222C100.35 6.75549 105.21 4.52079 111.23 4.52079C114.214 4.52079 117.064 5.05909 119.781 6.13569L120.18 16.389L124.175 16.1463V4.44024C123.535 3.74083 122.656 3.09544 121.537 2.50217C118.554 0.8342 114.986 -0.000732422 110.83 -0.000732422C103.371 -0.000732422 97.3108 2.70403 92.6499 8.11356C89.7224 11.5111 87.7151 15.7957 86.627 20.9655H92.103C93.0082 17.0362 94.5203 13.7856 96.6467 11.2211L96.6476 11.222Z"
    fill="white" />
  <path d="M171 0.161326H165.966V20.9664H171V0.161326Z" fill="white" />
  <path d="M138.798 36.7875H133.763V56.677H138.798V36.7875Z" fill="white" />
  <path d="M138.798 0.161326H133.763V20.9664H138.798V0.161326Z" fill="white" />
  <path d="M171 36.7875H165.966V56.677H171V36.7875Z" fill="white" />
  <path
    d="M18.7665 28.9679C18.7665 26.4138 20.3049 24.8937 22.3506 24.8937C23.3074 24.8937 24.0756 25.3571 24.5681 25.868L23.7998 26.7342C23.4153 26.3475 22.9538 26.103 22.3506 26.103C21.0665 26.103 20.1829 27.1748 20.1829 28.9262C20.1829 30.6776 21.0665 31.7883 22.3853 31.7883C23.0176 31.7883 23.5184 31.4945 23.9471 31.015L24.7144 31.8575C24.0981 32.5929 23.2811 32.9976 22.2465 32.9976C20.3292 32.9976 18.7665 31.5618 18.7665 28.9679Z"
    fill="white" />
  <path
    d="M37.3492 28.9101C37.3492 26.3399 38.5977 24.8937 40.393 24.8937C42.1884 24.8937 43.4368 26.3399 43.4368 28.9101C43.4368 31.4803 42.1884 32.9985 40.393 32.9985C38.5977 32.9985 37.3492 31.5296 37.3492 28.9101ZM42.0195 28.9101C42.0195 27.117 41.3779 26.103 40.393 26.103C39.4081 26.103 38.7666 27.117 38.7666 28.9101C38.7666 30.7032 39.4081 31.7892 40.393 31.7892C41.3779 31.7892 42.0195 30.7524 42.0195 28.9101Z"
    fill="white" />
  <path
    d="M56.8587 25.0368H58.3829L59.3022 28.0865L59.6201 29.257H59.668L59.9785 28.0865L60.9052 25.0368H62.4295V32.8545H61.2129V29.7005C61.2129 28.8779 61.3489 27.2535 61.4136 26.4963H61.378L60.8621 28.3121L60.0104 30.7828H59.2309L58.3848 28.3121L57.883 26.4963H57.8501C57.9299 27.2535 58.0509 28.8779 58.0509 29.7005V32.8545H56.8587V25.0368Z"
    fill="white" />
  <path
    d="M75.1056 25.0368H76.6298L77.549 28.0865L77.867 29.257H77.9139L78.2244 28.0865L79.1512 25.0368H80.6754V32.8545H79.4588V29.7005C79.4588 28.8779 79.5948 27.2535 79.6595 26.4963H79.6239L79.108 28.3121L78.2563 30.7828H77.4768L76.6307 28.3121L76.1289 26.4963H76.0961C76.1758 27.2535 76.2968 28.8779 76.2968 29.7005V32.8545H75.1046L75.1056 25.0368Z"
    fill="white" />
  <path
    d="M93.4303 29.872V25.0368H94.8148V29.9744C94.8148 31.2424 95.3307 31.7883 96.1543 31.7883C96.9778 31.7883 97.5172 31.2415 97.5172 29.9744V25.0368H98.8454V29.872C98.8454 32.0063 97.8511 32.9985 96.1543 32.9985C94.4574 32.9985 93.4303 32.0063 93.4303 29.872Z"
    fill="white" />
  <path
    d="M110.502 25.0368H111.946L113.993 29.4275L114.696 31.0974H114.728C114.67 30.2985 114.541 29.3081 114.541 28.4343V25.0359H115.852V32.8535H114.408L112.361 28.458L111.658 26.792H111.627C111.684 27.6241 111.813 28.5661 111.813 29.4323V32.8535H110.502V25.0368Z"
    fill="white" />
  <path d="M127.736 31.685H129.6V26.2063H127.736V25.0368H132.84V26.2063H130.977V31.685H132.84V32.8545H127.736V31.685Z"
    fill="white" />
  <path d="M144.794 26.2063H142.356V25.0368H148.608V26.2063H146.17V32.8545H144.793L144.794 26.2063Z" fill="white" />
  <path
    d="M161.683 32.8545V30.1402L159.138 25.0349H160.594L161.577 27.1388C161.711 27.4336 161.841 27.7283 161.967 28.024C162.094 28.3187 162.227 28.6258 162.369 28.9442H162.416C162.551 28.6258 162.687 28.3187 162.824 28.024C162.962 27.7293 163.098 27.4307 163.232 27.1275L164.179 25.0349H165.599L163.054 30.1402V32.8545H161.683Z"
    fill="white" />
</svg>