<svg width="360" height="480" viewBox="0 0 360 480" fill="none" xmlns="http://www.w3.org/2000/svg">
  <path d="M198.5 392C198.5 402 178 479 105.5 479C4 479 147 479 0 479" stroke="black" />
  <path
    d="M284.209 138.585C282.488 152.853 276.903 166.608 268.33 178.142C259.381 190.169 249.979 198.705 247.234 214.269C244.846 227.78 243.943 237.508 237.813 244.294C238.117 243.021 237.478 241.314 234.304 239.179C230.445 236.582 225.401 235.189 220.877 234.487C213.572 233.35 206.325 232.808 198.937 233.056C191.789 233.301 184.703 234.184 177.775 235.966C175.006 236.684 172.19 237.547 169.778 239.152C168.47 240.019 166.561 241.602 166.688 243.336C164.016 240.294 161.158 235.66 160.107 229.105C157.838 214.954 154.102 203.334 146.168 191.434C138.139 179.366 129.522 167.42 124.513 153.693C117.298 133.94 118.487 111.35 127.394 92.3334C135.981 73.9682 153.623 60.1734 172.289 53.019C188.777 46.7003 207.233 45.0775 224.387 49.5437C228.268 50.5523 232.07 51.8522 235.75 53.4479C268.562 67.6969 288.496 103.204 284.209 138.585Z"
    fill="#3997DF" stroke="black" stroke-width="0.8" stroke-linecap="round" stroke-linejoin="round" />
  <path
    d="M186.401 234.183C191.143 213.259 189.935 192.425 185.962 173.686C183.626 162.678 181.375 151.387 176.863 141.019C176.816 140.91 176.77 140.802 176.724 140.693C176.401 139.969 176.064 139.242 175.711 138.525C174.223 135.521 171.796 131.222 168.294 130.304C165.093 129.46 161.939 131.595 161.035 134.685C160.352 137.004 160.703 139.502 161.358 141.83C162.663 146.512 165.142 150.802 168.182 154.585C170.762 157.789 174.009 160.958 178.047 162.177C181.941 163.35 186.172 162.492 189.625 160.466C198.629 155.181 203.687 146.171 205.291 136.066C205.437 135.123 205.57 134.177 205.641 133.224C205.919 129.981 206.058 125.276 203.483 122.838C202.237 121.656 200.344 121.208 198.705 121.701C196.733 122.301 195.599 124 195.225 125.938C194.296 130.756 195.377 136.097 196.872 140.681C199.225 147.876 204.652 156.686 212.404 158.87C215.752 159.816 219.387 159.338 222.623 158.071C225.853 156.795 228.739 154.762 231.422 152.537C236.178 148.589 240.521 143.814 242.397 137.922C244.002 132.904 241.111 126.866 235.124 129.909C228.645 133.207 224.889 143.432 222.343 149.75C219.329 157.228 216.682 167.228 215.261 175.15C212.877 188.451 212.664 199.118 213.117 211.084C213.446 219.752 214.278 226.469 216.257 233.834"
    stroke="black" stroke-width="0.8" stroke-linecap="round" stroke-linejoin="round" />
  <path
    d="M235.325 246.843L235.327 245.728C235.323 245.144 235.136 244.563 234.782 244.007C231.947 239.554 218.438 236.177 202.202 236.145C183.915 236.122 169.089 240.36 169.051 245.621C168.296 245.608 167.386 245.027 167.021 244.399C165.775 242.263 168.205 240.199 169.778 239.152C172.19 237.547 175.005 236.684 177.775 235.966C184.703 234.184 191.789 233.301 198.937 233.056C206.325 232.808 213.572 233.35 220.876 234.487C225.401 235.189 230.445 236.582 234.303 239.179C241.707 244.168 235.325 246.843 235.325 246.843Z"
    fill="white" stroke="black" stroke-width="0.8" stroke-linecap="round" stroke-linejoin="round" />
  <path d="M169.054 289.272L169.056 285.596L169.11 289.271L169.102 289.276L169.054 289.272Z" fill="white" stroke="black"
    stroke-width="0.8" stroke-linecap="round" stroke-linejoin="round" />
  <path
    d="M234.782 244.007C235.136 244.562 235.323 245.144 235.327 245.727L235.299 286.481C235.365 281.282 224.352 278.992 220.625 278.207C214.614 276.936 208.433 276.646 202.305 276.563C184.012 276.313 169.131 280.357 169.056 285.596L169.05 245.656C169.05 245.656 169.045 245.648 169.048 245.635L169.056 245.629C169.089 240.36 183.915 236.122 202.202 236.145C218.438 236.177 231.947 239.553 234.782 244.007Z"
    fill="white" stroke="black" stroke-width="0.8" stroke-linecap="round" stroke-linejoin="round" />
  <path d="M169.102 289.276L169.11 289.271C169.11 289.271 169.112 289.327 169.106 289.354L169.102 289.276Z" fill="white"
    stroke="black" stroke-width="0.8" stroke-linecap="round" stroke-linejoin="round" />
  <path d="M235.305 286.868L235.342 289.957C235.339 289.844 235.323 289.728 235.298 289.617L235.305 286.868Z"
    fill="white" stroke="black" stroke-width="0.8" stroke-linecap="round" stroke-linejoin="round" />
  <path
    d="M235.303 290.166L223.982 303.84C224.275 303.435 224.434 303.001 224.438 302.573C224.49 299.049 214.519 296.05 202.185 295.888C189.845 295.718 179.81 298.444 179.762 301.977C179.757 302.383 179.88 302.775 180.125 303.159L169.054 289.272C169.129 284.034 184.016 279.998 202.303 280.239C208.431 280.322 214.612 280.613 220.624 281.884C224.351 282.669 235.364 284.959 235.303 290.166Z"
    fill="white" stroke="black" stroke-width="0.8" stroke-linecap="round" stroke-linejoin="round" />
  <path
    d="M224.459 302.617C224.507 299.086 214.545 296.089 202.208 295.923C189.872 295.756 179.833 298.484 179.785 302.015C179.738 305.545 189.7 308.542 202.036 308.709C214.372 308.875 224.411 306.148 224.459 302.617Z"
    fill="black" stroke="black" stroke-width="0.8" stroke-linecap="round" stroke-linejoin="round" />
  <path
    d="M202.355 280.321C208.483 280.404 214.664 280.695 220.675 281.966C224.402 282.751 235.415 285.04 235.349 290.239L235.299 286.481C235.374 281.277 224.352 278.993 220.625 278.208C214.613 276.937 208.433 276.646 202.305 276.563C184.012 276.313 169.131 280.357 169.056 285.596L169.106 289.354C169.173 284.12 184.062 280.071 202.355 280.321Z"
    fill="white" stroke="black" stroke-width="0.8" stroke-linecap="round" stroke-linejoin="round" />
  <path d="M121.412 79.7653L110.784 78.2416" stroke="black" stroke-width="0.8" stroke-linecap="round"
    stroke-linejoin="round" />
  <path d="M130.952 68.3965L126.928 57.9469" stroke="black" stroke-width="0.8" stroke-linecap="round"
    stroke-linejoin="round" />
  <path d="M156.089 69.5825C156.089 69.5825 132.8 85.3308 129.573 112.239" stroke="black" stroke-width="0.83"
    stroke-linecap="round" stroke-linejoin="round" />
  <path
    d="M284.209 138.585C282.488 152.853 276.903 166.608 268.33 178.142C259.381 190.169 249.979 198.705 247.234 214.269C244.846 227.78 243.943 237.508 237.805 244.299C238.266 241.307 233.455 238.639 233.455 238.639C236.265 233.278 237.347 230.017 240.707 202.45C243.382 180.373 289.894 157.107 267.369 99.0629C249.497 53.0322 211.604 47.4507 209.578 47.1905C214.567 47.5048 219.525 48.2754 224.387 49.5437C228.268 50.5523 232.07 51.8522 235.75 53.4478C268.562 67.6968 288.496 103.204 284.209 138.585Z"
    fill="#FF676A" stroke="black" stroke-width="0.8" stroke-linecap="round" stroke-linejoin="round" />
  <path
    d="M284.209 138.585C282.488 152.853 276.903 166.608 268.33 178.142C259.381 190.169 249.979 198.705 247.234 214.269C244.846 227.78 243.943 237.508 237.805 244.299C238.266 241.307 233.455 238.639 233.455 238.639C236.265 233.278 237.347 230.017 240.707 202.45C243.382 180.373 289.894 157.107 267.369 99.0629C249.497 53.0322 211.604 47.4507 209.578 47.1905C214.567 47.5048 219.525 48.2754 224.387 49.5437C228.268 50.5523 232.07 51.8522 235.75 53.4478C268.562 67.6968 288.496 103.204 284.209 138.585Z"
    fill="black" />
  <path
    d="M234.783 244.007C235.136 244.563 235.323 245.144 235.327 245.728L235.298 285.919L235.295 286.185C235.281 286.091 235.275 285.991 235.261 285.897C234.755 282.578 229.647 280.525 225.356 279.341L226.1 239.119C226.266 239.163 226.423 239.212 226.573 239.266C230.719 240.565 233.633 242.201 234.783 244.007Z"
    fill="white" stroke="black" stroke-width="0.8" stroke-linecap="round" stroke-linejoin="round" />
  <path
    d="M234.783 244.007C235.136 244.563 235.323 245.144 235.327 245.728L235.298 285.919L235.261 285.897C234.755 282.578 229.647 280.525 225.356 279.341L226.1 239.119C226.266 239.163 226.423 239.212 226.573 239.266C230.719 240.565 233.633 242.201 234.783 244.007Z"
    fill="black" />
  <line x1="198.5" y1="392" x2="198.5" y2="302" stroke="black" />
</svg>