<svg width="330" height="43" viewBox="0 0 330 43" fill="none" xmlns="http://www.w3.org/2000/svg">
<path d="M69.1191 9.54126H71.8336L75.5872 24.7336L75.9347 26.1484H76.0503L76.4827 24.7336L81.1038 9.54126H83.6467L88.0656 24.7336L88.498 26.1484H88.6136L92.6867 9.54126H95.4012L89.826 30.2226H87.2848L82.8939 15.2605L82.4335 13.6435H82.3179L81.8268 15.2605L77.2618 30.2226H74.7206L69.1174 9.54126H69.1191Z" fill="#202124"/>
<path d="M98.9561 29.6446C97.7997 28.9513 96.8991 28.009 96.2551 26.8143C95.6086 25.6205 95.2866 24.3018 95.2866 22.8582C95.2866 21.4146 95.6086 20.0942 96.2551 18.8995C96.8991 17.7057 97.7997 16.7625 98.9561 16.0692C100.11 15.3759 101.41 15.03 102.856 15.03C104.302 15.03 105.599 15.3759 106.756 16.0692C107.909 16.7625 108.81 17.7048 109.456 18.8995C110.101 20.0933 110.423 21.412 110.423 22.8582C110.423 24.3043 110.101 25.6205 109.456 26.8143C108.81 28.0081 107.91 28.9513 106.756 29.6446C105.599 30.338 104.299 30.6863 102.856 30.6863C101.412 30.6863 100.111 30.3388 98.9561 29.6446ZM105.383 27.783C106.163 27.3292 106.788 26.6809 107.26 25.8321C107.73 24.9858 107.968 23.9942 107.968 22.8582C107.968 21.7221 107.731 20.7289 107.26 19.8826C106.788 19.0363 106.163 18.3854 105.383 17.9317C104.603 17.4805 103.761 17.2545 102.856 17.2545C101.951 17.2545 101.102 17.4805 100.313 17.9317C99.5227 18.3854 98.8932 19.0363 98.4233 19.8826C97.951 20.7289 97.7156 21.7204 97.7156 22.8582C97.7156 23.9959 97.951 24.9858 98.4233 25.8321C98.8932 26.6809 99.5236 27.3292 100.313 27.783C101.103 28.2341 101.951 28.4602 102.856 28.4602C103.761 28.4602 104.603 28.2341 105.383 27.783Z" fill="#202124"/>
<path d="M112.993 15.4906H115.332V17.6581H115.449C115.872 16.9061 116.507 16.2808 117.355 15.7803C118.202 15.2798 119.097 15.03 120.039 15.03C121.118 15.03 122.056 15.2883 122.855 15.8084C123.655 16.3275 124.228 17.0217 124.576 17.8884C125.095 17.0209 125.784 16.3275 126.639 15.8084C127.497 15.2892 128.494 15.03 129.629 15.03C131.324 15.03 132.6 15.5449 133.456 16.5747C134.314 17.6046 134.741 19.0057 134.741 20.7781V30.2233H132.316V21.1546C132.316 19.7866 132.036 18.7941 131.476 18.179C130.919 17.5629 130.092 17.2554 128.994 17.2554C128.261 17.2554 127.598 17.4669 127.001 17.8901C126.404 18.3132 125.937 18.8816 125.6 19.5945C125.262 20.3066 125.095 21.0781 125.095 21.9049V30.2241H122.638V21.1835C122.638 19.7968 122.359 18.795 121.801 18.179C121.242 17.5629 120.424 17.2554 119.348 17.2554C118.615 17.2554 117.949 17.472 117.355 17.9045C116.757 18.337 116.29 18.9156 115.954 19.637C115.615 20.3609 115.448 21.1367 115.448 21.9643V30.225H112.992V15.4931L112.993 15.4906Z" fill="#202124"/>
<path d="M141.039 29.6752C139.923 29.0006 139.051 28.0718 138.426 26.8874C137.798 25.7029 137.485 24.3698 137.485 22.8862C137.485 21.4027 137.779 20.1528 138.366 18.9581C138.954 17.7643 139.786 16.8093 140.865 16.0972C141.944 15.3852 143.195 15.03 144.621 15.03C146.048 15.03 147.315 15.3521 148.375 15.9961C149.433 16.6427 150.248 17.5332 150.815 18.6692C151.384 19.8044 151.668 21.1044 151.668 22.5693C151.668 22.8582 151.638 23.108 151.581 23.3196H139.942C139.998 24.4361 140.269 25.3809 140.751 26.1499C141.232 26.9205 141.843 27.4992 142.584 27.8849C143.324 28.2707 144.1 28.461 144.909 28.461C146.796 28.461 148.251 27.5774 149.271 25.8049L151.351 26.816C150.714 28.0098 149.854 28.953 148.766 29.6463C147.677 30.3397 146.364 30.688 144.824 30.688C143.417 30.688 142.157 30.3499 141.04 29.6769L141.039 29.6752ZM149.068 21.2973C149.028 20.6813 148.857 20.0653 148.549 19.4501C148.242 18.8315 147.755 18.3124 147.09 17.8892C146.427 17.4661 145.592 17.2545 144.591 17.2545C143.437 17.2545 142.459 17.6258 141.66 18.3667C140.86 19.1068 140.336 20.0848 140.084 21.2982H149.068V21.2973Z" fill="#202124"/>
<path d="M154.526 15.4906H156.865V17.6581H156.983C157.387 16.9248 158.031 16.3037 158.917 15.7939C159.803 15.2841 160.745 15.03 161.747 15.03C163.519 15.03 164.871 15.5449 165.807 16.5747C166.74 17.6046 167.208 19.0057 167.208 20.7781V30.2233H164.751V21.1546C164.751 19.7866 164.424 18.7941 163.769 18.179C163.116 17.5629 162.22 17.2554 161.085 17.2554C160.295 17.2554 159.586 17.4763 158.96 17.9181C158.335 18.3625 157.848 18.9454 157.503 19.6668C157.156 20.3881 156.984 21.1452 156.984 21.9329V30.2241H154.528V15.4923L154.526 15.4906Z" fill="#202124"/>
<path d="M180.906 11.9703H175.101V9.63116H189.138V11.9703H183.363V30.3125H180.907V11.9703H180.906Z" fill="#202124"/>
<path d="M192.2 29.7653C191.084 29.0906 190.212 28.1619 189.587 26.9775C188.959 25.793 188.646 24.4599 188.646 22.9763C188.646 21.4928 188.94 20.2429 189.527 19.0482C190.115 17.8544 190.947 16.8994 192.026 16.1873C193.105 15.4753 194.356 15.1201 195.782 15.1201C197.209 15.1201 198.475 15.4421 199.536 16.0862C200.593 16.7328 201.409 17.6233 201.976 18.7593C202.544 19.8945 202.829 21.1945 202.829 22.6594C202.829 22.9483 202.798 23.1981 202.742 23.4097H191.102C191.158 24.5262 191.429 25.471 191.911 26.2399C192.393 27.0106 193.004 27.5893 193.745 27.975C194.485 28.3608 195.26 28.5511 196.069 28.5511C197.957 28.5511 199.412 27.6674 200.432 25.895L202.512 26.9061C201.875 28.0999 201.015 29.0431 199.927 29.7364C198.838 30.4298 197.525 30.7781 195.985 30.7781C194.577 30.7781 193.317 30.44 192.201 29.767L192.2 29.7653ZM200.229 21.3874C200.189 20.7714 200.017 20.1554 199.71 19.5402C199.402 18.9216 198.916 18.4024 198.25 17.9793C197.588 17.5562 196.753 17.3446 195.752 17.3446C194.598 17.3446 193.62 17.7159 192.82 18.4568C192.021 19.1969 191.497 20.1749 191.245 21.3883H200.229V21.3874Z" fill="#202124"/>
<path d="M208.661 29.7492C207.526 29.0677 206.639 28.1322 206.005 26.9469C205.37 25.7641 205.051 24.4293 205.051 22.9483C205.051 21.4673 205.37 20.1273 206.005 18.9335C206.639 17.7397 207.526 16.8042 208.661 16.1312C209.798 15.4566 211.077 15.1201 212.503 15.1201C214.102 15.1201 215.444 15.4889 216.532 16.2323C217.621 16.9724 218.394 17.9598 218.857 19.1918L216.634 20.1154C216.266 19.2105 215.724 18.524 215.002 18.0515C214.278 17.5791 213.408 17.3437 212.389 17.3437C211.521 17.3437 210.713 17.5791 209.961 18.0515C209.21 18.524 208.609 19.1825 208.155 20.0288C207.704 20.8776 207.478 21.8505 207.478 22.9483C207.478 24.0461 207.704 25.0173 208.155 25.8652C208.609 26.7115 209.21 27.3717 209.961 27.8425C210.713 28.3149 211.521 28.5503 212.389 28.5503C213.428 28.5503 214.323 28.3106 215.073 27.8289C215.825 27.3496 216.382 26.6656 216.749 25.7794L218.944 26.703C218.444 27.9164 217.64 28.8986 216.533 29.6481C215.426 30.4 214.082 30.7764 212.504 30.7764C211.078 30.7764 209.799 30.4332 208.662 29.7492H208.661Z" fill="#202124"/>
<path d="M221.6 9.63202H224.057V15.7277L223.939 17.7491H224.057C224.461 16.9971 225.1 16.3717 225.977 15.8713C226.851 15.3708 227.81 15.121 228.849 15.121C230.64 15.121 232.008 15.6453 232.951 16.6938C233.896 17.7449 234.366 19.1358 234.366 20.8683V30.3134H231.912V21.2447C231.912 19.9141 231.576 18.9344 230.901 18.2971C230.227 17.6624 229.35 17.3455 228.273 17.3455C227.503 17.3455 226.795 17.5758 226.151 18.0389C225.504 18.4994 224.995 19.0967 224.618 19.8274C224.242 20.5607 224.057 21.3203 224.057 22.1097V30.3134H221.6V9.63202Z" fill="#202124"/>
<path d="M237.889 15.5816H240.228V17.7491H240.346C240.769 16.9972 241.403 16.3718 242.252 15.8713C243.098 15.3708 243.994 15.121 244.936 15.121C246.015 15.121 246.953 15.3794 247.752 15.8994C248.551 16.4185 249.125 17.1127 249.472 17.9794C249.991 17.1119 250.68 16.4185 251.536 15.8994C252.394 15.3802 253.391 15.121 254.526 15.121C256.221 15.121 257.497 15.636 258.352 16.6658C259.21 17.6956 259.638 19.0967 259.638 20.8692V30.3143H257.212V21.2456C257.212 19.8776 256.933 18.8851 256.373 18.27C255.815 17.654 254.989 17.3464 253.891 17.3464C253.158 17.3464 252.495 17.5579 251.898 17.9811C251.3 18.4042 250.833 18.9727 250.497 19.6856C250.159 20.3976 249.991 21.1691 249.991 21.9959V30.3152H247.535V21.2745C247.535 19.8878 247.255 18.886 246.698 18.27C246.139 17.654 245.321 17.3464 244.244 17.3464C243.511 17.3464 242.846 17.563 242.251 17.9955C241.654 18.428 241.187 19.0067 240.85 19.7281C240.512 20.452 240.345 21.2277 240.345 22.0553V30.316H237.888V15.5841L237.889 15.5816Z" fill="#202124"/>
<path d="M264.838 30.1392C263.991 29.7161 263.335 29.1332 262.875 28.3923C262.412 27.6522 262.182 26.8076 262.182 25.8653C262.182 24.3045 262.77 23.0869 263.942 22.21C265.117 21.3357 266.6 20.8964 268.391 20.8964C269.275 20.8964 270.1 20.9924 270.86 21.1853C271.621 21.3781 272.204 21.5991 272.608 21.8506V20.955C272.608 19.8572 272.222 18.9761 271.452 18.3108C270.681 17.648 269.71 17.3141 268.535 17.3141C267.708 17.3141 266.946 17.4925 266.253 17.8502C265.56 18.2054 265.012 18.7008 264.607 19.338L262.76 17.9513C263.336 17.0651 264.131 16.3718 265.141 15.8713C266.152 15.3708 267.275 15.121 268.507 15.121C270.51 15.121 272.082 15.6453 273.229 16.6938C274.374 17.7449 274.947 19.174 274.947 20.9839V30.3135H272.608V28.2045H272.493C272.067 28.9165 271.432 29.5232 270.586 30.0237C269.737 30.5242 268.786 30.7757 267.725 30.7757C266.665 30.7757 265.685 30.5616 264.837 30.1384L264.838 30.1392ZM270.267 27.9742C270.979 27.5511 271.549 26.9827 271.972 26.2698C272.397 25.5577 272.609 24.7769 272.609 23.9289C272.146 23.6213 271.577 23.3715 270.905 23.1786C270.23 22.9857 269.518 22.8897 268.765 22.8897C267.419 22.8897 266.403 23.1693 265.719 23.7267C265.035 24.2858 264.695 25.008 264.695 25.8942C264.695 26.7031 265.002 27.3591 265.618 27.8595C266.234 28.36 267.014 28.6098 267.957 28.6098C268.787 28.6098 269.555 28.3983 270.267 27.9751V27.9742Z" fill="#202124"/>
<path d="M278.355 9.63202H280.811V22.6288L287.742 15.5815H290.861V15.6971L285.084 21.5319L291.005 30.1987V30.3143H288.088L283.352 23.2364L280.81 25.7795V30.3143H278.354V9.63289L278.355 9.63202Z" fill="#202124"/>
<path d="M295.281 29.7653C294.165 29.0906 293.293 28.1619 292.668 26.9775C292.04 25.793 291.727 24.4599 291.727 22.9763C291.727 21.4928 292.021 20.2429 292.608 19.0482C293.196 17.8544 294.028 16.8994 295.107 16.1873C296.186 15.4753 297.437 15.1201 298.863 15.1201C300.29 15.1201 301.556 15.4421 302.617 16.0862C303.674 16.7328 304.49 17.6233 305.057 18.7593C305.625 19.8945 305.91 21.1945 305.91 22.6594C305.91 22.9483 305.879 23.1981 305.823 23.4097H294.183C294.239 24.5262 294.511 25.471 294.992 26.2399C295.474 27.0106 296.085 27.5893 296.826 27.975C297.566 28.3608 298.341 28.5511 299.15 28.5511C301.038 28.5511 302.493 27.6674 303.513 25.895L305.593 26.9061C304.956 28.0999 304.096 29.0431 303.008 29.7364C301.919 30.4298 300.606 30.7781 299.066 30.7781C297.658 30.7781 296.398 30.44 295.282 29.767L295.281 29.7653ZM303.31 21.3874C303.27 20.7714 303.098 20.1554 302.791 19.5402C302.483 18.9216 301.997 18.4024 301.331 17.9793C300.669 17.5562 299.834 17.3446 298.833 17.3446C297.679 17.3446 296.701 17.7159 295.901 18.4568C295.102 19.1969 294.578 20.1749 294.326 21.3883H303.31V21.3874Z" fill="#202124"/>
<path d="M308.768 15.5816H311.107V17.9513H311.224C311.513 17.1424 312.07 16.4678 312.898 15.9299C313.725 15.3895 314.593 15.121 315.498 15.121C316.172 15.121 316.751 15.2264 317.233 15.438V18.0661C316.614 17.7585 315.921 17.603 315.153 17.603C314.441 17.603 313.785 17.8052 313.188 18.2122C312.59 18.6166 312.114 19.1621 311.759 19.8478C311.401 20.5318 311.225 21.2702 311.225 22.0621V30.3126H308.769V15.5807L308.768 15.5816Z" fill="#202124"/>
<path d="M320.206 29.6643C319.145 28.9217 318.396 27.9743 317.952 26.8178L320.147 25.8356C320.514 26.7218 321.057 27.4058 321.781 27.8876C322.502 28.3693 323.297 28.609 324.161 28.609C325.088 28.609 325.875 28.4212 326.531 28.0448C327.184 27.6709 327.513 27.1347 327.513 26.4414C327.513 25.8254 327.252 25.3292 326.733 24.9562C326.214 24.5797 325.396 24.2577 324.28 23.9875L322.489 23.5244C321.314 23.2355 320.349 22.7461 319.6 22.0528C318.848 21.3594 318.474 20.4639 318.474 19.3661C318.474 18.5172 318.728 17.7721 319.238 17.128C319.748 16.4814 320.427 15.9852 321.276 15.6402C322.122 15.2927 323.037 15.121 324.02 15.121C325.31 15.121 326.46 15.398 327.47 15.958C328.481 16.5171 329.2 17.2954 329.623 18.2972L327.486 19.2794C326.83 17.97 325.664 17.3141 323.991 17.3141C323.182 17.3141 322.475 17.5019 321.868 17.8783C321.259 18.2547 320.957 18.7314 320.957 19.3074C320.957 19.8478 321.168 20.2854 321.594 20.6211C322.017 20.9592 322.652 21.2345 323.5 21.4461L325.637 21.9942C327.081 22.3612 328.169 22.9042 328.902 23.6256C329.633 24.3495 330 25.2289 330 26.2698C330 27.1747 329.739 27.9691 329.22 28.6506C328.701 29.3346 327.996 29.8614 327.111 30.2259C326.225 30.593 325.243 30.7757 324.164 30.7757C322.587 30.7757 321.266 30.4043 320.208 29.6634L320.206 29.6643Z" fill="#202124"/>
<path d="M40.4486 9.35509V31.9975L32.3883 20.0586V9.35509C32.3841 8.67024 32.966 8.06525 33.678 8.06525H39.1589C39.8718 8.06525 40.4486 8.64305 40.4486 9.35509Z" fill="#202124"/>
<path d="M40.4486 32.9305V33.6459C40.4486 33.7343 40.4402 33.8202 40.4232 33.9034C40.4232 33.9043 40.4232 33.9051 40.4232 33.906C40.4113 33.9629 40.396 34.0181 40.3773 34.0717C40.3756 34.0776 40.3739 34.0836 40.3714 34.0895C40.1904 34.5832 39.7163 34.9358 39.1598 34.9358H33.6789C33.3085 34.9358 32.9746 34.7794 32.7392 34.5288C32.7273 34.516 32.7163 34.5024 32.7044 34.4888C32.6449 34.4217 32.5931 34.347 32.5489 34.2679C32.5472 34.2654 32.5455 34.2628 32.5446 34.2603C32.4452 34.0776 32.3892 33.8686 32.3892 33.6459V20.9695L40.424 32.871C40.4342 32.888 40.4427 32.9084 40.4495 32.9305H40.4486Z" fill="#202124"/>
<path d="M19.0025 9.35509V20.2421L10.9422 32.1063V9.35509C10.9422 8.64305 11.5199 8.06525 12.2319 8.06525H17.7128C18.4257 8.06525 19.0025 8.64305 19.0025 9.35509Z" fill="#202124"/>
<path d="M19.0025 21.1486V33.6458C19.0025 34.3468 18.4435 34.9178 17.7459 34.9348C17.7349 34.9356 17.7239 34.9357 17.7128 34.9357H17.6729C17.6729 34.9357 17.6729 34.9348 17.6712 34.9348L12.3398 34.8277C11.627 34.8277 10.9422 34.3579 10.9422 33.6458V33.2397C10.9651 33.1071 11.0034 32.9737 11.0586 32.8412L19.0025 21.1486Z" fill="#202124"/>
<path d="M29.7681 17.835C29.7664 17.8435 29.7647 17.8528 29.7621 17.8613V17.8647C29.74 17.9599 29.7095 18.05 29.6687 18.1315C29.6619 18.1477 29.6534 18.1629 29.6457 18.1782C29.644 18.1825 29.6423 18.1876 29.6398 18.191C29.6398 18.1918 29.6398 18.1927 29.6381 18.1935C29.633 18.2037 29.6287 18.2139 29.6228 18.2241L29.1062 19.005C28.2345 20.3305 27.0357 22.1352 25.7715 24.0479L21.9066 18.2241L28.3747 16.1288C28.8836 16.1288 29.2957 16.3939 29.6007 16.8409L29.6831 16.9623C29.7987 17.2291 29.8343 17.5333 29.7681 17.835Z" fill="#202124"/>
<path d="M40.4232 33.9033C40.4232 33.9033 40.4232 33.905 40.4232 33.9059C40.4113 33.9628 40.396 34.018 40.3773 34.0716C40.3756 34.0775 40.3739 34.0835 40.3713 34.0894C40.3425 34.1837 40.3101 34.2627 40.2753 34.3171C40.0833 34.6145 39.7995 34.9416 39.1547 34.9416H33.7587C33.3628 34.9416 33.0578 34.8813 32.774 34.5669C32.7622 34.555 32.7511 34.5423 32.7392 34.5287C32.7273 34.5159 32.7162 34.5023 32.7043 34.4887C32.6449 34.4216 32.593 34.3469 32.5489 34.2678C32.5472 34.2653 32.5455 34.2627 32.5446 34.2602C32.531 34.2389 32.5183 34.2177 32.5056 34.1947L26.0782 24.5083C26.1181 24.4488 26.1572 24.3893 26.1963 24.3299C26.6992 23.5703 27.1912 22.8268 27.6568 22.1241C28.3509 21.0747 29.0068 20.0849 29.5327 19.2853L30.0493 18.5053L30.0612 18.4866L30.0714 18.467C30.0773 18.456 30.0833 18.445 30.0884 18.4348C30.0969 18.4203 30.1028 18.4067 30.1079 18.3957C30.1156 18.3804 30.1232 18.3659 30.13 18.3515C30.1861 18.2359 30.2294 18.111 30.2592 17.981V17.9768L30.2617 17.97C30.2634 17.9598 30.266 17.9488 30.2677 17.9386C30.2736 17.9097 30.2796 17.8799 30.2838 17.851L32.3891 20.9694L40.424 32.8709C40.4342 32.8879 40.4427 32.9083 40.4495 32.9304C40.4775 33.0094 40.4903 33.1182 40.492 33.2405C40.5047 33.4368 40.486 33.6722 40.424 33.9033H40.4232Z" fill="#202124"/>
<path d="M32.548 34.268C32.5922 34.347 32.644 34.4218 32.7035 34.4889C32.6508 34.4243 32.5981 34.3504 32.548 34.268ZM40.4053 33.9646C40.396 34.002 40.3866 34.0377 40.3764 34.0717C40.3951 34.0182 40.4104 33.9629 40.4223 33.906C40.4172 33.9255 40.4112 33.9451 40.4053 33.9646Z" fill="#202124"/>
<g opacity="0.3">
<path d="M13.1597 34.9289L12.3662 34.9357C11.802 34.9416 11.401 34.719 11.1427 34.3298C10.8674 33.9152 10.8369 33.3756 11.0595 32.8412L11.0713 32.8234L21.9168 16.8543C22.2481 16.3521 22.6856 16.127 23.203 16.127H28.4563C28.6534 16.1321 28.8454 16.1788 29.0102 16.2587C29.1402 16.3216 29.2625 16.4032 29.3679 16.506C29.4639 16.5994 29.548 16.7107 29.6228 16.8373C29.6228 16.8373 28.9295 16.2519 28.4588 16.2519H23.203C22.7298 16.2519 22.3279 16.4575 22.0204 16.924L11.1725 32.8913C10.9686 33.3841 10.9957 33.8837 11.2463 34.2618C11.4808 34.6153 11.8759 34.8702 12.3645 34.8719L13.1606 34.9289H13.1597Z" fill="#202124"/>
</g>
<path d="M29.768 17.8349C29.7663 17.8433 29.7647 17.8527 29.7621 17.8612V17.8646C29.74 17.9598 29.7094 18.0498 29.6686 18.1314C29.6618 18.1476 29.6533 18.1628 29.6457 18.1781C29.644 18.1824 29.6423 18.1875 29.6398 18.1909C29.6398 18.1917 29.6398 18.1926 29.6381 18.1934C29.633 18.2036 29.6287 18.2138 29.6228 18.224L29.1062 19.0049C28.2345 20.3304 27.0357 22.1351 25.7714 24.0478C25.7714 24.0486 25.7706 24.0486 25.7706 24.0495C22.6363 28.7907 19.0951 34.1446 19.0951 34.1446C19.0493 34.2177 19.0008 34.2848 18.9507 34.3477C18.9363 34.3664 18.921 34.3842 18.9057 34.4029C18.9031 34.4063 18.9006 34.4097 18.8972 34.4131C18.7884 34.5406 18.6678 34.6468 18.5361 34.7292C18.5327 34.7317 18.5293 34.7334 18.525 34.736C18.5106 34.7453 18.4953 34.753 18.4809 34.7614C18.4673 34.7691 18.4545 34.7767 18.4409 34.7844C18.4375 34.7852 18.435 34.7869 18.4324 34.7878C18.2438 34.8855 18.0382 34.9348 17.8147 34.9348H17.7459C17.7349 34.9356 17.7239 34.9357 17.7128 34.9357H17.6729C17.6729 34.9357 17.6729 34.9348 17.6712 34.9348C17.1537 34.9356 15.4052 34.9382 14.0144 34.9382C13.2489 34.9382 12.593 34.9374 12.3101 34.9357C12.2344 34.9348 12.1852 34.9322 12.169 34.9314C11.9541 34.9178 11.7519 34.8524 11.576 34.7504L11.5709 34.7479C11.5471 34.7334 11.5233 34.719 11.5004 34.7037C11.4817 34.691 11.4638 34.6782 11.446 34.6654L11.4392 34.6586C11.0314 34.3451 10.8436 33.8039 10.9422 33.2397C10.9651 33.1071 11.0033 32.9737 11.0586 32.8412L19.0025 21.1486L21.9099 16.8696C22.2166 16.4048 22.6355 16.1287 23.1554 16.1287L28.4129 16.127C28.667 16.127 28.8972 16.1924 29.0943 16.3037C29.0952 16.3037 29.0952 16.3046 29.096 16.3046C29.0969 16.3046 29.0977 16.3046 29.0986 16.3063C29.1427 16.3309 29.1852 16.3581 29.226 16.3879C29.2285 16.3896 29.2302 16.3921 29.2328 16.3938C29.2736 16.4235 29.3127 16.4558 29.35 16.4907C29.3517 16.4924 29.3534 16.4941 29.3551 16.4958C29.4953 16.6266 29.6066 16.7863 29.6831 16.9622C29.7986 17.229 29.8343 17.5332 29.768 17.8349Z" fill="#202124"/>
<path d="M17.6729 34.9348H17.7132C17.7243 34.9357 17.7354 34.9357 17.7466 34.9348H17.6729Z" fill="#202124"/>
<g opacity="0.3">
<path d="M13.446 38.5113C13.446 38.0372 13.0221 37.7058 12.576 37.7058L6.31176 37.6488C6.15373 37.6471 5.99912 37.6038 5.86318 37.5231L5.84874 37.5146C5.81475 37.4985 5.78248 37.4781 5.75444 37.4526L5.71449 37.4169C5.8071 37.4925 5.91587 37.5443 6.03227 37.569C6.04332 37.5724 6.1138 37.5834 6.1257 37.5851C6.16138 37.5894 6.19706 37.5911 6.2319 37.5919H12.576C12.7834 37.5919 12.9626 37.6565 13.1071 37.767C13.2107 37.846 13.3067 37.9564 13.3645 38.0873C13.4197 38.2113 13.4477 38.3124 13.446 38.5104V38.5113Z" fill="#202124"/>
<path d="M0.850416 0.00177002H12.5913C12.994 0.00177002 13.4452 0.346758 13.4452 0.845524C13.4452 0.412183 12.9439 0.109682 12.593 0.109682H0.852946C0.829157 0.109682 0.823248 0.113089 0.785865 0.118187L0.642242 0.0298163C0.685573 0.0196201 0.765475 0.00177002 0.851287 0.00177002H0.850416Z" fill="#202124"/>
</g>
<g opacity="0.3">
<path d="M45.0281 5.40485C45.5345 5.40485 45.9457 5.70821 45.9457 6.21632L45.9695 36.7124C45.9754 37.003 45.8769 37.2672 45.6916 37.4559C45.503 37.6479 45.2422 37.7507 44.9321 37.7465L38.7027 37.7422C38.2626 37.7422 37.9423 38.0575 37.9423 38.4917L37.9346 42.0858C37.9346 42.283 37.9899 42.5574 38.1572 42.7214C38.362 42.9228 38.6857 42.9941 38.6857 42.9941C38.6381 42.9916 38.5905 42.9916 38.5472 42.9848C38.074 42.9066 37.8114 42.5506 37.8114 42.085L37.8191 38.4908C37.8191 37.9852 38.1912 37.6182 38.7035 37.6182L44.933 37.6224C45.2082 37.6258 45.4385 37.5366 45.6033 37.3692C45.7647 37.2052 45.8505 36.9724 45.8454 36.7141L45.848 6.21715C45.848 5.77701 45.4546 5.41419 45.0281 5.40485Z" fill="#202124"/>
<path d="M38.7027 5.40823C38.147 5.40823 37.8106 5.00888 37.8106 4.49992V0.814819C37.8106 0.421414 38.1657 0.000854492 38.6661 0.000854492C38.6797 0.000854492 48.2923 0.0110308 50.3408 0.00168426C50.6024 0.000834578 50.8148 0.146977 50.8148 0.146977L50.6441 0.105364C50.622 0.101116 50.5608 0.100261 50.5379 0.100261C49.842 0.100261 38.6806 0.100241 38.6661 0.101091C38.2507 0.119784 37.9346 0.389146 37.9346 0.813989L37.9083 4.49909C37.9083 4.93923 38.2286 5.40483 38.667 5.40483" fill="#202124"/>
</g>
<path d="M12.5871 42.9967H0.859784C0.384846 42.9967 0 42.6118 0 42.1368V0.860706C0 0.385731 0.384866 0.000854492 0.858954 0.000854492H12.5862C13.0612 0.000854492 13.4461 0.385731 13.4461 0.860706V4.51523C13.4461 4.9902 13.0612 5.37512 12.5862 5.37512H6.2328C5.75786 5.37512 5.37297 5.76 5.37297 6.23497V36.732C5.37297 37.2069 5.75786 37.5918 6.2328 37.5918H12.5862C13.0612 37.5918 13.4461 37.9767 13.4461 38.4517V42.1368C13.4461 42.6118 13.0612 42.9967 12.5871 42.9967Z" fill="#202124"/>
<g opacity="0.3">
<path d="M0.840227 42.9959C0.517371 42.9959 0.248918 42.8039 0.081543 42.5039C0.227678 42.7673 0.559003 42.871 0.840227 42.871L12.5744 42.8642C13.0357 42.8642 13.3364 42.526 13.3364 42.198L13.3645 38.5197C13.3645 38.5197 13.3534 38.23 13.3305 38.1901L13.2642 37.9207L13.322 38.0032C13.322 38.0032 13.4478 38.2096 13.4469 38.4212C13.4469 38.4909 13.4452 38.5707 13.4452 38.6166L13.4469 42.1972C13.4469 42.5931 13.0586 42.9891 12.5752 42.9891L0.841098 42.9959H0.840227Z" fill="#202124"/>
<path d="M6.15461 37.5884C5.93031 37.5884 5.23787 37.3013 5.23787 36.7923V6.29534C5.23787 5.79233 5.62105 5.2307 6.13337 5.2307L12.418 5.2256C12.8479 5.2256 13.3101 5.02253 13.3101 4.5756V0.921073C13.3101 0.480936 12.9524 0.000897825 12.5123 0.000897825C12.8258 -0.0126972 13.1071 0.118993 13.277 0.350107C13.3891 0.502201 13.4562 0.697609 13.4435 0.924475V4.54502C13.4435 4.54502 13.4435 4.60022 13.4299 4.6665C13.4061 4.78205 13.3645 4.8993 13.2965 4.99957C13.215 5.11852 13.0986 5.21797 12.9694 5.28509C12.8097 5.36751 12.6202 5.38026 12.4138 5.37516H6.19029C6.0467 5.37431 5.91756 5.42526 5.80456 5.48814C5.51654 5.64873 5.34406 5.96821 5.37124 6.29534V36.794C5.37209 36.9725 5.44942 37.1254 5.54967 37.2571C5.69581 37.4491 5.92777 37.5715 6.15801 37.5901L6.15291 37.5884H6.15461Z" fill="#202124"/>
</g>
<path d="M38.667 0.00177002H50.3416C50.814 0.00177002 51.1972 0.386688 51.1972 0.861663V42.1377C51.1972 42.6127 50.814 42.9976 50.3416 42.9976H38.667C38.1946 42.9976 37.8114 42.6127 37.8114 42.1377V38.4832C37.8114 38.0083 38.1946 37.6233 38.667 37.6233H44.9924C45.4648 37.6233 45.848 37.2384 45.848 36.7634V6.26651C45.848 5.79153 45.4648 5.40661 44.9924 5.40661H38.667C38.1946 5.40661 37.8114 5.02174 37.8114 4.54676V0.861663C37.8114 0.386688 38.1946 0.00177002 38.667 0.00177002Z" fill="#202124"/>
<g opacity="0.3">
<path d="M50.6152 42.9516C50.893 42.8208 51.0732 42.4452 51.0732 42.1368L51.08 0.901497C51.08 0.583715 50.8965 0.176713 50.622 0.0501099C50.9151 0.143575 51.1207 0.395116 51.1836 0.700153C51.1972 0.764729 51.1972 0.831843 51.1972 0.900668V42.1359C51.1972 42.492 50.9899 42.8106 50.6152 42.9508V42.9516Z" fill="#202124"/>
</g>
<g opacity="0.3">
<path d="M50.4657 42.9882C50.4368 42.9924 50.357 42.9967 50.3281 42.9967L38.9457 42.9941H38.8497C38.6934 42.9958 38.5727 42.9983 38.4682 42.9745C38.3773 42.9533 38.2566 42.9057 38.153 42.825C38.1453 42.8191 38.1199 42.7961 38.0961 42.7749C38.0748 42.7553 38.0553 42.7375 38.0553 42.7375C38.0553 42.7375 38.2788 42.8462 38.3773 42.8632C38.5855 42.8998 38.6993 42.8879 38.8489 42.8862H38.9457L50.3552 42.8972C50.5243 42.8972 50.8225 42.8242 50.9627 42.7281L50.9067 42.78C50.8183 42.8624 50.6976 42.9278 50.5694 42.9652C50.5694 42.9652 50.4938 42.983 50.4657 42.9873V42.9882Z" fill="#202124"/>
</g>
<g opacity="0.4">
<path d="M37.8106 4.49908C37.8106 4.93922 38.2651 5.29691 38.7027 5.29691H45.0281C45.5345 5.29691 45.8437 5.6657 45.8437 6.17381C45.8072 5.794 45.4657 5.40652 45.0281 5.40652H38.7027C38.1963 5.40652 37.8454 5.02416 37.8157 4.64181L37.8106 4.49908Z" fill="#202124"/>
</g>
<g opacity="0.4">
<path d="M0.642276 0.0289307L0.785898 0.117301C0.376382 0.190374 0.124041 0.556614 0.124041 0.86505L0.117238 42.1003C0.117238 42.4181 0.300767 42.8251 0.575194 42.9517C0.282075 42.8582 0.0764376 42.6067 0.0135657 42.3017C-2.82097e-05 42.2371 4.81948e-10 42.17 4.81948e-10 42.1012V0.86588C4.81948e-10 0.509861 0.251451 0.11647 0.642276 0.0298019V0.0289307Z" fill="#202124"/>
</g>
<path d="M12.7749 43H1.04753C0.57259 43 0.187744 42.6151 0.187744 42.1402V0.864063C0.187744 0.389088 0.57261 0.00421143 1.0467 0.00421143H12.774C13.2489 0.00421143 13.6338 0.389088 13.6338 0.864063V4.51859C13.6338 4.99356 13.2489 5.37848 12.774 5.37848H6.42054C5.94561 5.37848 5.56072 5.76335 5.56072 6.23833V36.7353C5.56072 37.2102 5.94561 37.5952 6.42054 37.5952H12.774C13.2489 37.5952 13.6338 37.9801 13.6338 38.4551V42.1402C13.6338 42.6151 13.2489 43 12.7749 43Z" fill="#202124"/>
<g opacity="0.3">
<path d="M1.02797 42.9992C0.705116 42.9992 0.436662 42.8072 0.269287 42.5073C0.415422 42.7707 0.746747 42.8743 1.02797 42.8743L12.7621 42.8676C13.2234 42.8676 13.5242 42.5294 13.5242 42.2014L13.5522 38.5231C13.5522 38.5231 13.5412 38.2334 13.5183 38.1934L13.452 37.9241L13.5098 38.0065C13.5098 38.0065 13.6355 38.213 13.6347 38.4245C13.6347 38.4942 13.633 38.5741 13.633 38.62L13.6347 42.2006C13.6347 42.5965 13.2464 42.9924 12.7629 42.9924L1.02884 42.9992H1.02797Z" fill="#202124"/>
<path d="M6.34237 37.591C6.11807 37.591 5.42563 37.3038 5.42563 36.7948V6.29788C5.42563 5.79487 5.80881 5.2332 6.32113 5.2332L12.6057 5.22814C13.0357 5.22814 13.4978 5.02503 13.4978 4.5781V0.923617C13.4978 0.48348 13.1402 0.00340027 12.7001 0.00340027C13.0136 -0.0101947 13.2948 0.121495 13.4647 0.35261C13.5769 0.504704 13.644 0.700153 13.6313 0.927019V4.54752C13.6313 4.54752 13.6313 4.60277 13.6177 4.66904C13.5939 4.7846 13.5523 4.90185 13.4843 5.00211C13.4027 5.12107 13.2863 5.22047 13.1572 5.28759C12.9974 5.37001 12.808 5.38276 12.6015 5.37767H6.37805C6.23446 5.37682 6.10532 5.4278 5.99232 5.49068C5.7043 5.65127 5.53182 5.97075 5.559 6.29788V36.7965C5.55985 36.975 5.63718 37.1279 5.73743 37.2596C5.88357 37.4516 6.11553 37.574 6.34577 37.5927L6.34067 37.591H6.34237Z" fill="#202124"/>
</g>
<path d="M38.8547 0.00421143H50.5294C51.0018 0.00421143 51.3849 0.389088 51.3849 0.864063V42.1402C51.3849 42.6151 51.0018 43 50.5294 43H38.8547C38.3824 43 37.9992 42.6151 37.9992 42.1402V38.4856C37.9992 38.0107 38.3824 37.6257 38.8547 37.6257H45.1802C45.6526 37.6257 46.0357 37.2409 46.0357 36.7659V6.26895C46.0357 5.79397 45.6526 5.40906 45.1802 5.40906H38.8547C38.3824 5.40906 37.9992 5.02414 37.9992 4.54916V0.864063C37.9992 0.389088 38.3824 0.00421143 38.8547 0.00421143Z" fill="#202124"/>
<g opacity="0.3">
<path d="M50.803 42.955C51.0808 42.8242 51.2609 42.4486 51.2609 42.1402L51.2677 0.904854C51.2677 0.587072 51.0842 0.18007 50.8098 0.0534668C51.1029 0.146932 51.3085 0.398473 51.3714 0.70351C51.385 0.768086 51.385 0.8352 51.385 0.904025V42.1393C51.385 42.4953 51.1777 42.814 50.803 42.9542V42.955Z" fill="#202124"/>
</g>
<g opacity="0.3">
<path d="M50.6535 42.9906C50.6246 42.9949 50.5447 42.9991 50.5158 42.9991L39.1335 42.9966H39.0375C38.8811 42.9983 38.7605 43.0008 38.656 42.977C38.5651 42.9558 38.4445 42.9082 38.3408 42.8275C38.3332 42.8215 38.3076 42.7986 38.2838 42.7773C38.2626 42.7578 38.2431 42.74 38.2431 42.74C38.2431 42.74 38.4665 42.8487 38.5651 42.8657C38.7732 42.9023 38.8871 42.8904 39.0366 42.8887H39.1335L50.543 42.8997C50.7121 42.8997 51.0103 42.8266 51.1505 42.7306L51.0944 42.7825C51.0061 42.8649 50.8854 42.9303 50.7571 42.9677C50.7571 42.9677 50.6815 42.9855 50.6535 42.9898V42.9906Z" fill="#202124"/>
</g>
</svg>
