<svg width="177" height="300" viewBox="0 0 177 300" fill="none" xmlns="http://www.w3.org/2000/svg">
<path d="M62.7402 299.579C84.6099 299.579 102.339 294.621 102.339 288.505C102.339 282.388 84.6099 277.43 62.7402 277.43C40.8704 277.43 23.1415 282.388 23.1415 288.505C23.1415 294.621 40.8704 299.579 62.7402 299.579Z" fill="black" stroke="black" stroke-width="0.8" stroke-miterlimit="10"/>
<path d="M104.031 266.436C102.545 268.253 98.7037 270.643 93.7169 271.503C88.5601 272.398 84.2449 271.145 82.4364 269.918L80.5024 265.433C83.5285 266.436 87.9423 267.286 93.0724 266.301C97.9606 265.361 101.569 263.132 103.834 261.341C103.896 262.989 103.959 264.573 104.031 266.436Z" fill="white" stroke="black" stroke-width="0.8" stroke-miterlimit="10"/>
<path d="M100.449 93.6C105.499 93.5194 110.522 93.8865 115.526 94.5937C121.041 95.3726 126.583 96.635 131.534 99.2761C138.455 102.965 143.952 109.285 143.791 117.504C143.558 129.877 129.896 141.113 121.766 146.709C109.34 155.268 95.4537 161.427 82.0243 167.39C67.7176 173.737 52.9275 180.3 40.0801 189.727C23.1412 202.163 -2.07902 228.726 10.8221 249.407C13.1946 253.212 17.9037 255.925 23.4097 256.659C53.9481 260.742 76.7601 238.27 96.8863 218.457C100.297 215.1 103.52 211.922 106.797 208.851C125.303 191.464 139.941 190.059 145.375 190.264C152.815 190.542 159.333 193.684 164.731 199.584C175.726 211.599 176.746 231.752 176.379 242.702C175.824 259.291 169.709 273.338 159.163 282.264C149.377 290.546 135.008 295.613 122.008 295.613C120.262 295.613 118.543 295.524 116.86 295.336C103.691 293.876 93.1439 284.198 90.7534 271.816C91.2996 271.799 91.8906 271.763 92.5084 271.691C93.2783 271.602 93.9855 271.476 94.6211 271.342C95.2478 274.064 96.9936 280.125 102.419 284.968C106.385 288.514 111.533 290.877 117.281 291.513C130.495 292.981 146.324 288.084 156.674 279.337C166.379 271.127 172.01 258.074 172.529 242.585C172.878 232.227 171.956 213.193 161.884 202.19C157.202 197.078 151.597 194.356 145.223 194.114C144.901 194.105 144.578 194.096 144.256 194.096C129.699 194.096 115.105 206.317 109.411 211.653C106.17 214.697 102.965 217.857 99.5721 221.197C78.8193 241.636 55.2912 264.797 22.8906 260.473C16.158 259.578 10.5713 256.283 7.55417 251.449C1.0275 240.992 2.20036 228.18 10.9384 214.401C19.56 200.811 32.5955 190.452 37.7971 186.639C50.9758 176.96 65.9628 170.317 80.4576 163.88C93.7258 157.998 107.442 151.91 119.573 143.548C125.625 139.376 139.735 128.489 139.932 117.442C140.12 107.325 129.985 101.478 121.247 99.5447C113.145 97.7541 104.729 97.2348 96.4207 97.8705C97.1459 97.1811 97.8889 96.438 98.632 95.6322C99.2677 94.9518 99.8675 94.2804 100.432 93.6178L100.449 93.6Z" fill="white" stroke="black" stroke-width="0.8" stroke-miterlimit="10"/>
<path d="M105.974 259.444C104.371 261.037 100.011 264.968 93.0725 266.302C84.9881 267.85 78.6853 264.86 76.7962 263.875L35.1562 108.721C42.041 111.739 49.6419 113.404 57.6369 113.404C71.487 113.404 84.1733 108.39 93.9678 100.064L105.965 259.444H105.974Z" fill="white" stroke="black" stroke-width="0.8" stroke-miterlimit="10"/>
<mask id="mask0_35_187" style="mask-type:luminance" maskUnits="userSpaceOnUse" x="52" y="185" width="80" height="66">
<path d="M107.164 197.534C99.7692 197.534 92.1413 196.63 85.0327 199.119C75.4352 202.485 64.835 210.005 58.183 217.633C50.0627 226.953 48.478 244.411 62.5698 249.13C71.478 252.111 79.8759 250.723 88.22 246.981C98.9635 242.164 111.918 236.04 121.005 228.377C130.093 220.713 135.187 204.875 128.356 193.765C122.501 184.248 113.78 181.096 107.155 197.525C99.7602 197.525 113.78 181.096 107.155 197.525L107.164 197.534Z" fill="white"/>
</mask>
<g mask="url(#mask0_35_187)">
<path d="M105.973 259.444C104.371 261.037 100.011 264.968 93.072 266.302C84.9876 267.85 78.6848 264.86 76.7957 263.875L35.1558 108.722C42.0405 111.739 49.6414 113.404 57.6364 113.404C71.4865 113.404 84.1729 108.39 93.9673 100.064L105.964 259.444H105.973Z" fill="white" stroke="black" stroke-width="0.8" stroke-miterlimit="10"/>
<path d="M100.449 93.5999C105.498 93.5194 110.521 93.8864 115.526 94.5937C121.041 95.3726 126.582 96.635 131.533 99.2761C138.454 102.965 143.951 109.285 143.79 117.504C143.557 129.877 129.895 141.113 121.766 146.709C109.339 155.268 95.4532 161.427 82.0239 167.39C67.7171 173.737 52.9271 180.3 40.0796 189.727C23.1408 202.163 -2.07951 228.726 10.8216 249.407C13.1941 253.212 17.9032 255.925 23.4092 256.659C53.9476 260.742 76.7596 238.27 96.8858 218.457C100.297 215.1 103.52 211.921 106.797 208.851C125.302 191.464 139.94 190.058 145.375 190.264C152.814 190.542 159.332 193.684 164.731 199.584C175.725 211.599 176.746 231.752 176.379 242.702C175.824 259.291 169.709 273.338 159.162 282.264C149.377 290.546 135.007 295.613 122.008 295.613C120.262 295.613 118.543 295.524 116.86 295.336C103.69 293.876 93.1434 284.198 90.7529 271.816C91.2991 271.799 91.8901 271.763 92.5079 271.691C93.2778 271.602 93.985 271.476 94.6207 271.342C95.2474 274.064 96.9931 280.125 102.419 284.968C106.385 288.514 111.533 290.877 117.281 291.513C130.495 292.981 146.324 288.084 156.673 279.337C166.378 271.127 172.01 258.074 172.529 242.585C172.878 232.227 171.956 213.193 161.884 202.19C157.202 197.078 151.597 194.356 145.222 194.114C144.9 194.105 144.578 194.096 144.255 194.096C129.698 194.096 115.105 206.317 109.411 211.653C106.17 214.697 102.965 217.857 99.5716 221.197C78.8188 241.636 55.2907 264.797 22.8901 260.473C16.1575 259.578 10.5708 256.283 7.55368 251.449C1.02701 240.992 2.19987 228.18 10.9379 214.401C19.5595 200.811 32.595 190.452 37.7966 186.638C50.9753 176.96 65.9624 170.317 80.4571 163.88C93.7253 157.998 107.441 151.91 119.572 143.548C125.625 139.376 139.734 128.489 139.931 117.442C140.119 107.325 129.985 101.478 121.247 99.5446C113.144 97.7541 104.728 97.2348 96.4202 97.8704C97.1454 97.1811 97.8884 96.438 98.6315 95.6322C99.2672 94.9518 99.867 94.2803 100.431 93.6178L100.449 93.5999Z" fill="white" stroke="black" stroke-width="0.8" stroke-miterlimit="10"/>
</g>
<path d="M79.397 133.031C78.7577 128.622 74.6654 125.567 70.2564 126.206C65.8475 126.845 62.7915 130.937 63.4308 135.346L66.7504 158.241C67.3897 162.65 71.4821 165.706 75.891 165.067C80.2999 164.428 83.3559 160.335 82.7166 155.926L79.397 133.031Z" fill="white" stroke="black" stroke-width="0.8" stroke-miterlimit="10"/>
<path d="M57.6277 113.395C88.6646 113.395 113.825 88.2343 113.825 57.1973C113.825 26.1604 88.6646 1 57.6277 1C26.5908 1 1.43054 26.1604 1.43054 57.1973C1.43054 88.2343 26.5908 113.395 57.6277 113.395Z" fill="#FF676A" stroke="black" stroke-width="0.8" stroke-miterlimit="10"/>
<path d="M46.8848 112.374C46.8848 112.374 46.8402 112.365 46.8044 112.356C46.7417 112.347 46.6431 112.329 46.5178 112.302C46.4641 112.294 46.3925 112.276 46.3119 112.258C46.0791 112.213 45.7926 112.15 45.4345 112.07C45.4345 112.07 45.4076 112.061 45.3897 112.061C45.2644 112.034 45.1391 111.998 45.0048 111.971C44.6019 111.873 44.1363 111.756 43.6171 111.613C43.6171 111.613 43.617 111.604 43.5991 111.604C43.25 111.506 42.874 111.398 42.48 111.282C36.2757 109.554 30.4922 106.805 25.3532 103.197C24.1714 102.365 23.0164 101.487 21.8973 100.565C21.8705 100.547 21.8525 100.529 21.8256 100.512C13.5531 93.6625 7.27723 84.4948 3.99151 74.002C3.85722 73.5812 3.7409 73.1515 3.61556 72.7217C3.61556 72.7217 3.61555 72.7128 3.6066 72.7038C3.59764 72.668 3.5797 72.6232 3.57075 72.5874C3.5618 72.5158 3.53487 72.4263 3.49906 72.3009C3.3379 71.7369 3.19466 71.1639 3.05141 70.582C3.03351 70.5283 3.02473 70.4745 3.00682 70.4119C2.86357 69.8389 2.73808 69.2569 2.62169 68.666C2.60378 68.6213 2.5948 68.5765 2.58584 68.5228C2.46945 67.9856 2.3711 67.4395 2.27262 66.8934C2.25472 66.8039 2.24572 66.7054 2.22781 66.6069C2.12933 66.0428 2.04872 65.4788 1.96814 64.9148C1.87862 64.2791 1.80698 63.6435 1.73536 63.0078C1.73536 62.9899 1.73535 62.972 1.7264 62.9452C1.66373 62.3274 1.61903 61.7097 1.57427 61.0919C1.52951 60.4652 1.4936 59.8385 1.47569 59.2028V59.1043C1.44883 58.4776 1.44006 57.833 1.44006 57.1974C1.44006 55.4874 1.52064 53.7953 1.66389 52.1211C1.69074 51.7988 1.72643 51.4765 1.76225 51.1631C1.81596 50.608 1.88757 50.053 1.96814 49.4979C2.1293 48.2624 2.34412 47.0448 2.5948 45.8361C2.68433 45.3885 2.77392 44.9498 2.88136 44.5111C2.88136 44.4574 2.8993 44.4037 2.9172 44.35C3.11417 43.4995 3.33797 42.6489 3.57075 41.8163C3.69609 41.3686 3.83033 40.93 3.96462 40.4913C4.10787 40.0526 4.2511 39.6139 4.39435 39.1752C4.53759 38.7365 4.69876 38.2889 4.85991 37.8502C5.17327 36.9996 5.50463 36.1581 5.86274 35.3254C6.21191 34.4839 6.57898 33.6513 6.98186 32.8366C7.16987 32.4516 7.35777 32.0755 7.54579 31.6995C7.55474 31.6727 7.57269 31.6458 7.59059 31.6189C7.79651 31.216 8.01135 30.8132 8.22621 30.4103C8.28889 30.276 8.3605 30.1417 8.44108 30.0164C8.79919 29.3539 9.18418 28.7003 9.57811 28.0647C9.77508 27.7334 9.98093 27.4111 10.1868 27.0888C10.7061 26.2561 11.2613 25.4414 11.8343 24.6357C12.0581 24.3313 12.2819 24.0269 12.4968 23.7225C12.5505 23.6509 12.5952 23.5882 12.6579 23.5166C12.9085 23.1764 13.1683 22.8361 13.4279 22.5049C13.974 21.7976 14.5469 21.1082 15.1378 20.4368C15.1378 20.4368 15.1378 20.4368 15.1468 20.4189C15.3796 20.1593 15.6034 19.8996 15.8362 19.6489C16.0063 19.4519 16.1944 19.246 16.4003 19.0401C16.5794 18.8342 16.7673 18.6283 16.9643 18.4313C17.2687 18.1001 17.5821 17.7777 17.9044 17.4644C18.2177 17.1421 18.5401 16.8287 18.8713 16.5243C19.1847 16.2199 19.4979 15.9245 19.8202 15.638C20.1604 15.3157 20.5097 15.0113 20.8678 14.7069C21.1543 14.4563 21.4497 14.2056 21.7541 13.9638C21.8258 13.8922 21.8974 13.8295 21.969 13.7848C22.1839 13.5968 22.4077 13.4177 22.6315 13.2476C23.0254 12.9164 23.4282 12.603 23.84 12.2986C24.4667 11.8241 25.1115 11.3585 25.774 10.9109C26.1052 10.6781 26.4364 10.4454 26.7766 10.2305C26.8661 10.1678 26.9647 10.1051 27.0632 10.0425C27.5377 9.7291 28.0212 9.4247 28.5047 9.1382C28.5942 9.07553 28.6925 9.02181 28.791 8.9681C29.2028 8.71742 29.6238 8.46674 30.0445 8.24291C30.6533 7.8848 31.2709 7.55354 31.8976 7.23123C31.9334 7.21333 31.9604 7.19542 31.9962 7.17752L32.0589 7.15069L33.0347 6.65823C32.596 7.34761 -8.1666 68.8361 46.8937 112.374H46.8848Z" fill="black" stroke="black" stroke-width="0.8" stroke-linecap="round" stroke-linejoin="round"/>
<path d="M2.45104 68.3349C16.6772 78.5502 38.1462 83.2594 59.6958 81.3524C81.2365 79.4544 100.136 71.3699 113.834 58.4957C114.81 59.0239 115.347 59.9461 115.356 61.0294C115.356 61.4322 115.293 61.8262 115.186 62.2201C115.016 62.8558 114.783 63.4735 114.416 64.0286C114.013 64.6374 113.449 65.0671 112.885 65.5237C112.849 65.5505 112.804 65.5864 112.769 65.6222C112.249 66.043 111.73 66.4548 111.202 66.8666C110.145 67.6903 109.062 68.4871 107.97 69.2571C106.878 70.027 105.75 70.788 104.613 71.5221C103.476 72.2563 102.303 72.9635 101.13 73.6529C99.9392 74.3423 98.7394 75.0048 97.5219 75.6405C96.2953 76.2851 95.0509 76.9029 93.7975 77.4848C92.5352 78.0757 91.2549 78.6397 89.9657 79.1858C88.6675 79.7319 87.3515 80.2423 86.0265 80.7257C84.7014 81.2092 83.3406 81.6747 81.9887 82.1134C80.6189 82.5521 79.2401 82.955 77.8523 83.331C76.4557 83.707 75.0412 84.0652 73.6266 84.3785C72.212 84.6919 70.7616 84.9963 69.3112 85.2559C67.8609 85.5155 66.3837 85.7483 64.9155 85.9542C63.4472 86.1601 61.9431 86.3302 60.448 86.4645C60.3137 86.4735 60.1794 86.4914 60.0451 86.5004C57.1086 86.76 54.154 86.9122 51.2085 86.9391C48.3436 86.9659 45.4698 86.8853 42.6139 86.6794C39.7579 86.4735 37.063 86.1602 34.3055 85.7215C31.6107 85.2917 28.9426 84.7456 26.3015 84.0831C23.7051 83.4295 21.1358 82.6595 18.6021 81.7642C16.0953 80.8869 13.6332 79.8931 11.216 78.783C9.7835 78.1294 8.36895 77.4221 6.9723 76.688C6.27397 76.3209 5.58454 75.9449 4.89516 75.5599C4.05359 75.0943 3.2567 74.7094 2.57628 74.0021C1.75261 73.1516 1.14383 72.0504 1.01849 70.8686C0.93791 70.1524 1.11712 69.4361 1.62744 68.8989C1.85126 68.6572 2.13769 68.4513 2.45104 68.3349Z" fill="white" stroke="black" stroke-width="0.8" stroke-miterlimit="10"/>
<path d="M71.5496 139.913C74.7734 139.913 77.3869 137.3 77.3869 134.076C77.3869 130.852 74.7734 128.239 71.5496 128.239C68.3257 128.239 65.7123 130.852 65.7123 134.076C65.7123 137.3 68.3257 139.913 71.5496 139.913Z" fill="#54A6EC" stroke="black" stroke-width="0.8" stroke-miterlimit="10"/>
<path d="M103.082 220.919C101.972 222.002 100.852 223.104 99.7065 224.232C91.2818 232.531 82.4006 241.278 72.6509 248.449L71.9525 245.826C78.4165 241.18 83.8957 236.246 90.127 230.382C94.6661 226.112 98.9187 221.841 102.858 217.974L103.082 220.919Z" fill="black"/>
<path d="M48.1732 179.781L48.6657 183.98C49.7221 183.335 50.8053 182.69 51.9244 182.046C52.775 181.553 53.6256 181.079 54.4582 180.613C54.118 179.342 53.7776 178.062 53.4285 176.791C52.7212 177.176 52.005 177.578 51.2798 177.99C50.2234 178.59 49.1849 179.19 48.1732 179.79V179.781Z" fill="black"/>
<path d="M81.9531 107.88C61.057 121.99 36.9199 115.284 36.9199 115.284L35.1562 108.721C42.041 111.739 49.6419 113.404 57.6369 113.404C66.348 113.404 74.5938 111.416 81.9531 107.88Z" fill="black"/>
<path d="M76.9033 136.404C76.59 139.43 74.0474 141.785 70.9408 141.785C67.6282 141.785 64.9424 139.108 64.9424 135.795C64.9424 134.569 65.3093 133.431 65.936 132.482C65.7928 132.984 65.7122 133.521 65.7122 134.076C65.7122 137.299 68.3265 139.913 71.5495 139.913C73.9489 139.913 76.008 138.472 76.9033 136.404Z" fill="black"/>
<path d="M101.229 263.15C101.229 263.15 101.229 263.159 101.211 263.168C100.888 263.508 95.5255 269.023 87.0113 271.539C84.97 271.19 83.3676 270.554 82.4365 269.918L80.5115 265.442C80.5115 265.442 80.5294 265.451 80.5473 265.451C80.807 265.549 82.0961 266.015 84.0837 266.346C84.406 266.409 84.7553 266.462 85.1134 266.507C85.4178 266.552 85.7399 266.588 86.0712 266.615C86.2861 266.642 86.5099 266.659 86.7337 266.668C86.7695 266.677 86.8054 266.677 86.8412 266.677C87.1009 266.695 87.3694 266.713 87.6379 266.713C87.7543 266.722 87.8798 266.731 87.9962 266.731H88.3453C88.6228 266.731 88.9003 266.731 89.1957 266.722C89.3748 266.713 89.554 266.713 89.742 266.704C90.0374 266.686 90.3418 266.668 90.6462 266.642C90.6641 266.642 90.6911 266.633 90.7179 266.633C91.0939 266.597 91.4877 266.561 91.8816 266.498C92.2755 266.445 92.6695 266.382 93.0724 266.301C95.0331 265.943 97.1192 265.299 99.2321 264.242C99.4739 264.135 99.7244 264.009 99.9661 263.875C100.127 263.795 100.288 263.705 100.45 263.606C100.575 263.535 100.709 263.463 100.835 263.383C100.969 263.311 101.094 263.23 101.229 263.15Z" fill="black" stroke="black" stroke-width="0.8" stroke-miterlimit="10"/>
</svg>
