<svg width="58" height="50" viewBox="0 0 58 50" fill="none" xmlns="http://www.w3.org/2000/svg">
<path d="M0 44.5314H0.603838L1.43824 47.9102L1.51553 48.225H1.54107L1.63704 47.9102L2.66463 44.5314H3.22983L4.21255 47.9102L4.30852 48.225H4.33408L5.23952 44.5321H5.84337L4.6039 49.1314H4.03933L3.06345 45.8044L2.96126 45.4447H2.9357L2.82664 45.8044L1.81153 49.1314H1.24694L0.00124754 44.5321L0 44.5314Z" fill="#202124"/>
<path d="M6.63353 49.0024C6.37617 48.8485 6.17614 48.6384 6.03281 48.3728C5.88886 48.1073 5.81781 47.8143 5.81781 47.4932C5.81781 47.1722 5.88949 46.8785 6.03281 46.613C6.17614 46.3474 6.37617 46.138 6.63353 45.9834C6.89027 45.8294 7.17879 45.7521 7.50034 45.7521C7.82189 45.7521 8.11043 45.8287 8.36717 45.9834C8.62391 46.1373 8.82394 46.3474 8.96789 46.613C9.11121 46.8785 9.18287 47.1715 9.18287 47.4932C9.18287 47.8149 9.11121 48.1073 8.96789 48.3728C8.82394 48.6384 8.62391 48.8478 8.36717 49.0024C8.1098 49.1564 7.82127 49.2337 7.50034 49.2337C7.17941 49.2337 6.89027 49.1564 6.63353 49.0024ZM8.06243 48.5885C8.23567 48.4875 8.37463 48.3435 8.47995 48.1546C8.58464 47.9664 8.63699 47.7457 8.63699 47.4932C8.63699 47.2407 8.58402 47.0194 8.47995 46.8312C8.37463 46.6429 8.23567 46.4983 8.06243 46.3973C7.88919 46.2969 7.70162 46.2464 7.50097 46.2464C7.30031 46.2464 7.11088 46.2969 6.93577 46.3973C6.76004 46.4983 6.62045 46.6429 6.51576 46.8312C6.41045 47.0194 6.35872 47.2401 6.35872 47.4932C6.35872 47.7463 6.41107 47.9664 6.51576 48.1546C6.62045 48.3435 6.76004 48.4875 6.93577 48.5885C7.1115 48.6889 7.29969 48.7394 7.50097 48.7394C7.70225 48.7394 7.88919 48.6889 8.06243 48.5885Z" fill="#202124"/>
<path d="M9.75433 45.8549H10.274V46.3368H10.3002C10.3943 46.1697 10.5352 46.0307 10.724 45.9191C10.9122 45.8076 11.111 45.7521 11.321 45.7521C11.5609 45.7521 11.769 45.8094 11.9472 45.9254C12.1255 46.0413 12.2526 46.1953 12.3299 46.3879C12.4451 46.1953 12.5984 46.0407 12.7885 45.9254C12.9792 45.8101 13.201 45.7521 13.4534 45.7521C13.8304 45.7521 14.1139 45.8668 14.304 46.0956C14.4947 46.3243 14.5901 46.636 14.5901 47.03V49.1302H14.051V47.1136C14.051 46.8094 13.9887 46.5887 13.8647 46.4515C13.7407 46.3144 13.5569 46.2458 13.3126 46.2458C13.1493 46.2458 13.0022 46.2926 12.8695 46.3867C12.7368 46.4808 12.6327 46.6074 12.5579 46.7657C12.4825 46.9241 12.4458 47.0955 12.4458 47.2794V49.1296H11.8999V47.1192C11.8999 46.8106 11.8376 46.588 11.7135 46.4509C11.5889 46.3137 11.4076 46.2452 11.1683 46.2452C11.005 46.2452 10.8573 46.2932 10.7252 46.3892C10.5925 46.4852 10.4884 46.6142 10.4136 46.7744C10.3382 46.9353 10.3015 47.1079 10.3015 47.2918V49.129H9.75558V45.8531L9.75433 45.8549Z" fill="#202124"/>
<path d="M15.9897 49.0093C15.7417 48.8591 15.5478 48.6527 15.4089 48.389C15.2693 48.1253 15.2001 47.8292 15.2001 47.4994C15.2001 47.1697 15.2655 46.8916 15.3958 46.6261C15.5266 46.3605 15.7111 46.1486 15.951 45.9896C16.1909 45.8312 16.4689 45.7521 16.7861 45.7521C17.1032 45.7521 17.3849 45.8238 17.6205 45.9671C17.8554 46.1111 18.0367 46.3088 18.1626 46.5612C18.2891 46.8137 18.3521 47.103 18.3521 47.4284C18.3521 47.4926 18.3452 47.5481 18.3328 47.5954H15.7448C15.7572 47.8436 15.8177 48.0536 15.9242 48.2251C16.0314 48.3965 16.1673 48.5249 16.3318 48.611C16.4963 48.697 16.6689 48.7387 16.8484 48.7387C17.2678 48.7387 17.5912 48.5424 17.818 48.1478L18.2804 48.3728C18.1389 48.6384 17.9476 48.8478 17.7059 49.0024C17.4641 49.1564 17.1718 49.2337 16.8297 49.2337C16.5169 49.2337 16.2364 49.1583 15.9884 49.0087L15.9897 49.0093ZM17.775 47.146C17.7663 47.0088 17.7283 46.8723 17.6597 46.7352C17.5912 46.5974 17.4834 46.4821 17.3351 46.3879C17.188 46.2938 17.0023 46.247 16.7798 46.247C16.5231 46.247 16.3056 46.3293 16.128 46.4945C15.9504 46.6591 15.8339 46.8767 15.7778 47.1466H17.775V47.146Z" fill="#202124"/>
<path d="M18.9883 45.8549H19.508V46.3368H19.5342C19.6239 46.1735 19.7672 46.0357 19.9642 45.9223C20.1611 45.8088 20.3705 45.7521 20.5936 45.7521C20.9874 45.7521 21.2878 45.8668 21.4959 46.0956C21.7034 46.3243 21.8075 46.636 21.8075 47.03V49.1302H21.2616V47.1136C21.2616 46.8094 21.1887 46.5887 21.0429 46.4515C20.8977 46.3144 20.6982 46.2458 20.4459 46.2458C20.2701 46.2458 20.1125 46.2951 19.9735 46.3929C19.8345 46.4914 19.7261 46.6211 19.6495 46.7819C19.5722 46.9421 19.5342 47.1105 19.5342 47.2856V49.1296H18.9883V45.8537V45.8549Z" fill="#202124"/>
<path d="M24.8529 45.072H23.5623V44.5521H26.6831V45.072H25.3994V49.1508H24.8535V45.072H24.8529Z" fill="#202124"/>
<path d="M27.3636 49.0293C27.1156 48.879 26.9218 48.6727 26.7828 48.409C26.6432 48.1453 26.5741 47.8492 26.5741 47.5194C26.5741 47.1896 26.6395 46.9116 26.7697 46.646C26.9006 46.3805 27.0851 46.1685 27.325 46.0095C27.5649 45.8512 27.8428 45.772 28.16 45.772C28.4772 45.772 28.7589 45.8437 28.9944 45.9871C29.2294 46.1311 29.4107 46.3287 29.5366 46.5812C29.6631 46.8337 29.726 47.1229 29.726 47.4483C29.726 47.5125 29.7192 47.568 29.7067 47.6154H27.1187C27.1312 47.8635 27.1916 48.0736 27.2982 48.245C27.4054 48.4165 27.5412 48.5449 27.7057 48.6309C27.8702 48.7169 28.0429 48.7587 28.2223 48.7587C28.6417 48.7587 28.9651 48.5623 29.192 48.1677L29.6544 48.3928C29.5129 48.6583 29.3216 48.8678 29.0798 49.0224C28.838 49.1764 28.5458 49.2537 28.2037 49.2537C27.8908 49.2537 27.6104 49.1782 27.3624 49.0286L27.3636 49.0293ZM29.149 47.1659C29.1403 47.0288 29.1022 46.8923 29.0337 46.7551C28.9651 46.6174 28.8573 46.502 28.709 46.4079C28.562 46.3138 28.3763 46.267 28.1538 46.267C27.897 46.267 27.6796 46.3493 27.502 46.5145C27.3244 46.6791 27.2078 46.8966 27.1517 47.1666H29.149V47.1659Z" fill="#202124"/>
<path d="M31.0234 49.0255C30.771 48.874 30.5741 48.6658 30.4327 48.4021C30.2918 48.139 30.2208 47.8423 30.2208 47.5132C30.2208 47.184 30.2918 46.886 30.4327 46.6205C30.5735 46.3549 30.771 46.1467 31.0234 45.9971C31.2764 45.8468 31.5606 45.772 31.8778 45.772C32.233 45.772 32.5315 45.8543 32.7733 46.0195C33.015 46.1841 33.187 46.4035 33.2898 46.6778L32.7957 46.8835C32.714 46.6822 32.5931 46.5295 32.433 46.4247C32.2722 46.3194 32.0784 46.2676 31.8522 46.2676C31.6597 46.2676 31.4795 46.32 31.3125 46.4247C31.1455 46.5301 31.0122 46.676 30.9112 46.8642C30.8109 47.0531 30.7604 47.2694 30.7604 47.5138C30.7604 47.7582 30.8109 47.9738 30.9112 48.1627C31.0122 48.351 31.1462 48.4981 31.3125 48.6022C31.4795 48.7076 31.6597 48.7593 31.8522 48.7593C32.0834 48.7593 32.2822 48.7057 32.4492 48.5991C32.6162 48.4925 32.7402 48.3404 32.8218 48.1434L33.3098 48.3491C33.1982 48.6191 33.02 48.8372 32.7739 49.0043C32.5277 49.1714 32.2286 49.2555 31.8784 49.2555C31.5612 49.2555 31.277 49.1795 31.024 49.0274L31.0234 49.0255Z" fill="#202124"/>
<path d="M33.8999 44.5514H34.4458V45.9067L34.4196 46.3561H34.4458C34.5355 46.1891 34.6776 46.0501 34.8727 45.9385C35.0671 45.8269 35.2802 45.7714 35.5114 45.7714C35.9096 45.7714 36.2137 45.888 36.4231 46.1211C36.6331 46.3549 36.7378 46.6641 36.7378 47.0494V49.1496H36.1925V47.1329C36.1925 46.8368 36.1177 46.6192 35.9676 46.4771C35.8174 46.3362 35.623 46.2651 35.383 46.2651C35.2117 46.2651 35.0546 46.3163 34.9113 46.4191C34.7673 46.5213 34.6539 46.6541 34.5704 46.8168C34.4869 46.9802 34.4458 47.1485 34.4458 47.3243V49.1489H33.8999V44.5496V44.5514Z" fill="#202124"/>
<path d="M37.5211 45.8749H38.0408V46.3568H38.067C38.1611 46.1897 38.3019 46.0507 38.4908 45.9391C38.679 45.8275 38.8777 45.772 39.0877 45.772C39.3276 45.772 39.5358 45.8294 39.714 45.9453C39.8916 46.0607 40.0194 46.2153 40.0966 46.4079C40.2119 46.2153 40.3652 46.0607 40.5553 45.9453C40.746 45.83 40.9678 45.772 41.2202 45.772C41.5972 45.772 41.8807 45.8867 42.0708 46.1155C42.2615 46.3443 42.3568 46.656 42.3568 47.05V49.1502H41.8178V47.1335C41.8178 46.8293 41.7555 46.6086 41.6315 46.4715C41.5075 46.3343 41.3236 46.2658 41.0793 46.2658C40.9161 46.2658 40.769 46.3125 40.6363 46.4066C40.5035 46.5008 40.3995 46.6273 40.3247 46.7857C40.2493 46.944 40.2125 47.1154 40.2125 47.2993V49.1496H39.6666V47.1391C39.6666 46.8305 39.6043 46.608 39.4803 46.4709C39.3557 46.3337 39.1744 46.2651 38.9351 46.2651C38.7718 46.2651 38.6241 46.3131 38.492 46.4091C38.3593 46.5051 38.2552 46.6342 38.1804 46.7944C38.105 46.9552 38.0682 47.1279 38.0682 47.3118V49.1489H37.5224V45.873L37.5211 45.8749Z" fill="#202124"/>
<path d="M43.5128 49.1122C43.3246 49.018 43.1788 48.8884 43.0766 48.7238C42.9738 48.5592 42.9227 48.3716 42.9227 48.1621C42.9227 47.8149 43.0535 47.5443 43.314 47.3492C43.5751 47.1547 43.9048 47.0568 44.303 47.0568C44.4993 47.0568 44.6831 47.078 44.8514 47.121C45.0209 47.1641 45.1505 47.2133 45.2402 47.2688V47.0699C45.2402 46.8256 45.1542 46.6298 44.9828 46.4821C44.8115 46.3349 44.5959 46.2601 44.3342 46.2601C44.1503 46.2601 43.9808 46.3 43.8269 46.3792C43.673 46.4584 43.5508 46.5687 43.4611 46.7102L43.0504 46.4017C43.1782 46.2047 43.3551 46.0501 43.5795 45.9391C43.8044 45.8275 44.0537 45.772 44.3279 45.772C44.7728 45.772 45.1224 45.8886 45.3779 46.1217C45.6322 46.3555 45.7599 46.6735 45.7599 47.0755V49.1502H45.2402V48.6814H45.2147C45.1199 48.8397 44.9791 48.9744 44.7909 49.086C44.6021 49.1976 44.3908 49.253 44.1547 49.253C43.9185 49.253 43.701 49.2057 43.5122 49.1115L43.5128 49.1122ZM44.7199 48.6309C44.8782 48.5368 45.0046 48.4102 45.0987 48.2519C45.1935 48.0935 45.2402 47.9202 45.2402 47.7313C45.1374 47.6628 45.0109 47.6073 44.8613 47.5643C44.7112 47.5213 44.5529 47.5001 44.3858 47.5001C44.0861 47.5001 43.8605 47.5624 43.7085 47.6865C43.5564 47.8111 43.4804 47.9714 43.4804 48.1683C43.4804 48.3479 43.5489 48.4938 43.686 48.6053C43.8231 48.7169 43.9964 48.7724 44.2058 48.7724C44.3902 48.7724 44.561 48.7257 44.7192 48.6315L44.7199 48.6309Z" fill="#202124"/>
<path d="M46.5176 44.5515H47.0635V47.4415L48.6046 45.8743H49.2982V45.8999L48.0139 47.1971L49.33 49.1247V49.1502H48.6813L47.6281 47.5762L47.0635 48.1416V49.1502H46.5176V44.5508V44.5515Z" fill="#202124"/>
<path d="M50.2809 49.0293C50.0329 48.879 49.8391 48.6727 49.7002 48.409C49.5606 48.1453 49.4914 47.8492 49.4914 47.5194C49.4914 47.1896 49.5568 46.9116 49.6871 46.646C49.8179 46.3805 50.0024 46.1685 50.2423 46.0095C50.4822 45.8512 50.7602 45.772 51.0773 45.772C51.3945 45.772 51.6762 45.8437 51.9117 45.9871C52.1467 46.1311 52.328 46.3287 52.4539 46.5812C52.5804 46.8337 52.6433 47.1229 52.6433 47.4483C52.6433 47.5125 52.6365 47.568 52.624 47.6154H50.0361C50.0485 47.8635 50.109 48.0736 50.2155 48.245C50.3227 48.4165 50.4585 48.5449 50.6231 48.6309C50.7876 48.7169 50.9602 48.7587 51.1397 48.7587C51.5591 48.7587 51.8824 48.5623 52.1093 48.1677L52.5717 48.3928C52.4302 48.6583 52.2389 48.8678 51.9971 49.0224C51.7553 49.1764 51.4631 49.2537 51.121 49.2537C50.8081 49.2537 50.5277 49.1782 50.2797 49.0286L50.2809 49.0293ZM52.0663 47.1659C52.0576 47.0288 52.0196 46.8923 51.951 46.7551C51.8825 46.6174 51.7746 46.502 51.6263 46.4079C51.4793 46.3138 51.2936 46.267 51.0711 46.267C50.8144 46.267 50.5969 46.3493 50.4193 46.5145C50.2417 46.6791 50.1251 46.8966 50.0691 47.1666H52.0663V47.1659Z" fill="#202124"/>
<path d="M53.2789 45.8749H53.7987V46.4016H53.8248C53.889 46.2221 54.013 46.0719 54.1968 45.9522C54.3807 45.8319 54.5739 45.7726 54.7745 45.7726C54.9247 45.7726 55.0531 45.7963 55.1603 45.8431V46.4278C55.0226 46.3593 54.8686 46.325 54.6979 46.325C54.5396 46.325 54.3938 46.3699 54.261 46.4602C54.1283 46.55 54.0224 46.6716 53.9432 46.8243C53.8641 46.9764 53.8248 47.1404 53.8248 47.3168V49.1514H53.2789V45.8755V45.8749Z" fill="#202124"/>
<path d="M55.8221 49.0068C55.5865 48.8416 55.4195 48.6309 55.321 48.3734L55.809 48.1546C55.8906 48.3516 56.0115 48.5037 56.1723 48.6109C56.3324 48.7182 56.5094 48.7711 56.7014 48.7711C56.907 48.7711 57.0821 48.7294 57.2279 48.6458C57.3731 48.5629 57.4467 48.4432 57.4467 48.2893C57.4467 48.1521 57.3887 48.0418 57.2734 47.9589C57.1581 47.8753 56.9762 47.8036 56.7281 47.7438L56.33 47.6409C56.0689 47.5767 55.8545 47.4676 55.6875 47.3137C55.5205 47.1597 55.437 46.9602 55.437 46.7165C55.437 46.5276 55.4937 46.3617 55.6071 46.219C55.7205 46.075 55.8713 45.9646 56.0601 45.888C56.2483 45.8107 56.4515 45.7726 56.6702 45.7726C56.9569 45.7726 57.2123 45.8344 57.4373 45.959C57.6623 46.0837 57.8218 46.2564 57.9159 46.4789L57.441 46.6977C57.2952 46.4066 57.036 46.2607 56.664 46.2607C56.4845 46.2607 56.3268 46.3025 56.1922 46.3861C56.057 46.4696 55.9897 46.5756 55.9897 46.704C55.9897 46.8243 56.0364 46.9215 56.1312 46.9964C56.2253 47.0718 56.3661 47.1329 56.5549 47.1796L57.0298 47.3012C57.3507 47.3829 57.5925 47.5038 57.7558 47.664C57.9184 47.8248 58 48.0206 58 48.2519C58 48.4532 57.9421 48.6296 57.8268 48.7811C57.7115 48.9332 57.5545 49.0504 57.3582 49.1315C57.1613 49.2131 56.9425 49.2537 56.7026 49.2537C56.3518 49.2537 56.0582 49.1714 55.8233 49.0062L55.8221 49.0068Z" fill="#202124"/>
<path d="M41.634 8.01126V27.4019L34.7331 17.1776V8.01126C34.7294 7.42465 35.2279 6.90662 35.8374 6.90662H40.5297C41.1398 6.90662 41.634 7.40159 41.634 8.01126Z" fill="#202124"/>
<path d="M41.634 28.2017V28.8145C41.634 28.89 41.6265 28.9635 41.6122 29.0352C41.6115 29.0358 41.6115 29.0365 41.6115 29.0377C41.6016 29.0863 41.5885 29.1337 41.5723 29.1798C41.571 29.1848 41.5692 29.1898 41.5673 29.1954C41.4121 29.6181 41.0064 29.9204 40.5297 29.9204H35.8373C35.5202 29.9204 35.2341 29.7864 35.0328 29.572C35.0229 29.5607 35.0129 29.5495 35.0029 29.5377C34.9518 29.4803 34.9076 29.4161 34.8696 29.3488C34.8683 29.3463 34.8664 29.3444 34.8658 29.3419C34.7804 29.1855 34.7325 29.0065 34.7325 28.8158V17.9594L41.6115 28.1519C41.6202 28.1662 41.6277 28.1837 41.6333 28.203L41.634 28.2017Z" fill="#202124"/>
<path d="M23.2732 8.01126V17.3347L16.3723 27.4954V8.01126C16.3723 7.40159 16.8671 6.90662 17.4766 6.90662H22.1689C22.779 6.90662 23.2732 7.40159 23.2732 8.01126Z" fill="#202124"/>
<path d="M23.2732 18.1115V28.8139C23.2732 29.4142 22.7946 29.903 22.1976 29.9179C22.1883 29.9185 22.1789 29.9185 22.1689 29.9185H22.1347C22.1347 29.9185 22.1341 29.9179 22.1334 29.9179L17.5688 29.8263C16.9587 29.8263 16.3723 29.4236 16.3723 28.8139V28.466C16.3923 28.3526 16.4247 28.2385 16.472 28.125L23.2732 18.1115Z" fill="#202124"/>
<path d="M32.4903 15.2739C32.4891 15.2814 32.4872 15.2895 32.4854 15.2963V15.2995C32.4667 15.3811 32.4405 15.4578 32.4056 15.5282C32.4 15.5419 32.3925 15.555 32.3856 15.5681C32.3844 15.5719 32.3825 15.5762 32.3807 15.5787C32.38 15.5794 32.38 15.58 32.3794 15.5812C32.375 15.59 32.3713 15.5987 32.3663 15.6074L31.9239 16.2763C31.1773 17.4115 30.151 18.9569 29.0686 20.5952L25.7596 15.608L31.297 13.8139C31.7326 13.8139 32.0853 14.0408 32.3464 14.4236L32.4168 14.5277C32.5159 14.7565 32.5464 15.0164 32.4897 15.2751L32.4903 15.2739Z" fill="#202124"/>
<path d="M41.6122 29.0346C41.6122 29.0346 41.6116 29.0358 41.6116 29.037C41.6016 29.0857 41.5885 29.1331 41.5723 29.1792C41.5711 29.1842 41.5692 29.1892 41.5673 29.1948C41.5424 29.2758 41.515 29.3431 41.4851 29.3899C41.3206 29.6449 41.0775 29.9248 40.5254 29.9248H35.9059C35.5669 29.9248 35.3058 29.873 35.0628 29.6037C35.0528 29.5937 35.0428 29.5825 35.0329 29.5707C35.0229 29.5595 35.0129 29.5482 35.003 29.5364C34.9519 29.479 34.9076 29.4148 34.8696 29.3475C34.8684 29.345 34.8665 29.3431 34.8659 29.3406C34.854 29.3226 34.8434 29.3045 34.8322 29.2845L29.3297 20.9891C29.364 20.938 29.3976 20.8875 29.4307 20.8363C29.8613 20.1855 30.2825 19.549 30.6813 18.9475C31.2758 18.0485 31.8373 17.2013 32.2872 16.5162L32.7297 15.848L32.7397 15.8318L32.7484 15.8149C32.7533 15.8056 32.7583 15.7962 32.7627 15.7875C32.7702 15.775 32.7752 15.7632 32.7795 15.7538C32.7864 15.7407 32.7926 15.7283 32.7982 15.7158C32.8462 15.6167 32.8836 15.5101 32.9085 15.3985V15.3948L32.911 15.3891C32.9123 15.3804 32.9147 15.3711 32.916 15.3623C32.921 15.3374 32.926 15.3118 32.9297 15.2875L34.7325 17.9581L41.6116 28.1506C41.6203 28.1649 41.6278 28.1824 41.6334 28.2017C41.6577 28.2697 41.6683 28.3625 41.6695 28.4673C41.6801 28.6356 41.6645 28.837 41.6116 29.0346H41.6122Z" fill="#202124"/>
<path d="M34.8702 29.3469C34.9082 29.4149 34.9524 29.4785 35.0035 29.5358C34.9586 29.4803 34.9132 29.4174 34.8702 29.3469ZM41.5972 29.087C41.5891 29.1188 41.581 29.1493 41.5723 29.1786C41.5885 29.1325 41.6015 29.0857 41.6115 29.0365C41.6071 29.0533 41.6022 29.0702 41.5972 29.087Z" fill="#202124"/>
<g opacity="0.3">
<path d="M18.2705 29.9123L17.5906 29.9186C17.107 29.9235 16.7643 29.7328 16.5431 29.3999C16.3075 29.0446 16.2813 28.5826 16.472 28.1251L16.482 28.1095L25.7671 14.4335C26.0506 14.0034 26.4258 13.8107 26.8682 13.8107H31.3656C31.5344 13.8151 31.699 13.8556 31.8398 13.9236C31.9507 13.9772 32.0554 14.047 32.1458 14.1349C32.228 14.2153 32.2997 14.3101 32.3639 14.4185C32.3639 14.4185 31.7706 13.9167 31.3674 13.9167H26.8682C26.4632 13.9167 26.1192 14.0925 25.8556 14.4921L16.568 28.1662C16.3935 28.5882 16.4166 29.0159 16.6316 29.34C16.8322 29.6424 17.1706 29.8612 17.5887 29.8625L18.2705 29.9117V29.9123Z" fill="#202124"/>
</g>
<path d="M32.4904 15.2738C32.4891 15.2813 32.4872 15.2894 32.4854 15.2963V15.2994C32.4667 15.381 32.4405 15.4577 32.4056 15.5282C32.4 15.5419 32.3925 15.555 32.3857 15.5681C32.3844 15.5718 32.3825 15.5762 32.3807 15.5787C32.3801 15.5793 32.38 15.5799 32.3794 15.5812C32.3751 15.5899 32.3713 15.5986 32.3663 15.6073L31.9239 16.2762C31.1773 17.4114 30.151 18.9568 29.0686 20.5951C29.0686 20.5957 29.0679 20.5957 29.0679 20.5963C26.3846 24.6565 23.3529 29.2415 23.3529 29.2415C23.3137 29.3039 23.2719 29.3618 23.2296 29.4155C23.2171 29.4317 23.204 29.4466 23.191 29.4628C23.1885 29.466 23.1866 29.4685 23.1835 29.4716C23.0906 29.5807 22.9872 29.6717 22.8744 29.7421C22.8713 29.7446 22.8688 29.7459 22.865 29.7477C22.8526 29.7558 22.8395 29.7621 22.827 29.7695C22.8152 29.7764 22.8046 29.7826 22.7927 29.7895C22.7896 29.7901 22.7878 29.792 22.7853 29.7926C22.6239 29.8761 22.4475 29.9185 22.2562 29.9185H22.1976C22.1883 29.9192 22.1789 29.9192 22.1689 29.9192H22.1347C22.1347 29.9192 22.1341 29.9185 22.1334 29.9185C21.6904 29.9192 20.1936 29.9217 19.0027 29.9217C18.3471 29.9217 17.7856 29.921 17.5432 29.9192C17.4784 29.9185 17.436 29.916 17.4223 29.9154C17.2385 29.9036 17.0653 29.8475 16.9145 29.7602L16.9101 29.7577C16.8896 29.7452 16.8696 29.7328 16.8497 29.7197C16.8335 29.7091 16.8185 29.6979 16.8029 29.6866L16.7973 29.681C16.4484 29.4123 16.2876 28.9492 16.3717 28.466C16.3916 28.3526 16.4241 28.2385 16.4714 28.125L23.2726 18.1115L25.7615 14.4472C26.0238 14.0495 26.3828 13.8126 26.8277 13.8126L31.3288 13.8113C31.5463 13.8113 31.7432 13.8675 31.9121 13.9628C31.9127 13.9628 31.9127 13.9635 31.9133 13.9635C31.9139 13.9635 31.9146 13.9641 31.9152 13.9647C31.9532 13.9859 31.9893 14.009 32.0242 14.0345C32.0267 14.0358 32.028 14.0383 32.0298 14.0395C32.0647 14.0651 32.0984 14.0925 32.1302 14.1224C32.1314 14.1237 32.1333 14.1255 32.1345 14.1268C32.2548 14.239 32.3501 14.3755 32.4156 14.5264C32.5147 14.7552 32.5452 15.0151 32.4885 15.2738H32.4904Z" fill="#202124"/>
<path d="M22.1347 29.9179H22.169C22.1783 29.9185 22.1877 29.9185 22.1976 29.9179H22.1353H22.1347Z" fill="#202124"/>
<g opacity="0.3">
<path d="M18.516 32.98C18.516 32.5742 18.1533 32.2906 17.7713 32.2906L12.4078 32.2413C12.2726 32.2401 12.1404 32.2033 12.0239 32.1341L12.0114 32.1266C11.9822 32.1129 11.9547 32.0955 11.9304 32.0736L11.8962 32.0431C11.9753 32.1073 12.0682 32.1522 12.1679 32.1727C12.1772 32.1752 12.2376 32.1852 12.2476 32.1865C12.2782 32.1902 12.3087 32.1921 12.3386 32.1921H17.7701C17.9477 32.1921 18.101 32.2476 18.2244 32.3417C18.3128 32.4096 18.3951 32.5044 18.445 32.616C18.4923 32.722 18.5166 32.8086 18.5148 32.9788L18.516 32.98Z" fill="#202124"/>
<path d="M7.73224 0.000793457H17.7838C18.1291 0.000793457 18.5148 0.296279 18.5148 0.723302C18.5148 0.352384 18.0854 0.0936782 17.7851 0.0936782L7.73412 0.0924302C7.71355 0.0924302 7.70857 0.0961708 7.67617 0.100535L7.55341 0.0244826C7.59017 0.0157552 7.65871 0.000793457 7.73224 0.000793457Z" fill="#202124"/>
</g>
<g opacity="0.3">
<path d="M45.5542 4.62878C45.9873 4.62878 46.3401 4.88874 46.3401 5.32387L46.36 31.4409C46.365 31.6896 46.2809 31.9165 46.122 32.0773C45.9599 32.2413 45.7368 32.3298 45.472 32.3261L40.139 32.323C39.762 32.323 39.4884 32.5929 39.4884 32.965L39.4816 36.0434C39.4816 36.2123 39.5289 36.4473 39.6723 36.5876C39.8474 36.7596 40.1246 36.8214 40.1246 36.8214C40.0841 36.8195 40.0436 36.8195 40.0056 36.8133C39.6006 36.7466 39.3756 36.4411 39.3756 36.0427L39.3825 32.9644C39.3825 32.5312 39.7009 32.217 40.1396 32.217L45.4732 32.2201C45.7088 32.2232 45.9063 32.1465 46.0478 32.0032C46.1861 31.8629 46.2597 31.6634 46.2553 31.4427L46.2572 5.32512C46.2572 4.94859 45.9207 4.63689 45.5555 4.62941L45.5542 4.62878Z" fill="#202124"/>
<path d="M40.139 4.63127C39.6629 4.63127 39.3756 4.28903 39.3756 3.85391V0.698298C39.3756 0.361043 39.6797 0.00134277 40.1085 0.00134277C40.1197 0.00134277 48.3497 0.00944808 50.1039 0.00259077C50.3277 0.00134399 50.5096 0.127269 50.5096 0.127269L50.3638 0.0917391C50.3445 0.0879988 50.2921 0.0873711 50.2728 0.0873711C49.6771 0.0873711 40.1209 0.0873717 40.1085 0.0879951C39.7526 0.10358 39.4816 0.334861 39.4816 0.698922L39.4591 3.85453C39.4591 4.23106 39.7339 4.63002 40.1085 4.63002" fill="#202124"/>
</g>
<path d="M17.7801 36.8221H7.73974C7.33344 36.8221 7.00378 36.4924 7.00378 36.0859V0.737755C7.00378 0.331304 7.33282 0.00152588 7.73974 0.00152588H17.7801C18.1864 0.00152588 18.5161 0.331304 18.5161 0.737755V3.86718C18.5161 4.27363 18.1864 4.60341 17.7801 4.60341H12.3405C11.9342 4.60341 11.6046 4.93318 11.6046 5.33963V31.4572C11.6046 31.8637 11.9342 32.1935 12.3405 32.1935H17.7801C18.1864 32.1935 18.5161 32.5232 18.5161 32.9297V36.0853C18.5161 36.4917 18.187 36.8215 17.7801 36.8215V36.8221Z" fill="#202124"/>
<g opacity="0.3">
<path d="M7.72349 36.8214C7.44743 36.8214 7.21686 36.6574 7.07416 36.4C7.19941 36.6256 7.48295 36.7142 7.72349 36.7142L17.7695 36.7085C18.1645 36.7085 18.4219 36.4187 18.4219 36.1375L18.4462 32.9875C18.4462 32.9875 18.4368 32.7394 18.4169 32.7057L18.3596 32.4751L18.4088 32.5455C18.4088 32.5455 18.516 32.7226 18.5154 32.9034C18.5154 32.9632 18.5141 33.0318 18.5141 33.0704L18.5154 36.1363C18.5154 36.4754 18.1826 36.8145 17.7695 36.8145L7.72349 36.8201V36.8214Z" fill="#202124"/>
<path d="M12.2732 32.1902C12.0807 32.1902 11.488 31.944 11.488 31.5089V5.39123C11.488 4.96109 11.8158 4.47921 12.2552 4.47921L17.6361 4.47485C18.0038 4.47485 18.4001 4.30092 18.4001 3.91816V0.788736C18.4001 0.412208 18.0935 0.000768602 17.7171 0.000768602C17.9857 -0.0104524 18.2263 0.101761 18.3721 0.3C18.4681 0.430288 18.5254 0.597358 18.5148 0.791856V3.89261C18.5148 3.89261 18.5148 3.93935 18.503 3.99671C18.4824 4.09583 18.4475 4.19557 18.3883 4.28223C18.3185 4.38446 18.2194 4.46924 18.1085 4.52659C17.972 4.59766 17.8094 4.60763 17.633 4.60389H12.305C12.1816 4.60327 12.0713 4.64691 11.9754 4.70052C11.7286 4.83766 11.5815 5.11195 11.6046 5.39186L11.6058 31.5107C11.6058 31.6635 11.6719 31.7944 11.7579 31.9072C11.8831 32.0718 12.0813 32.1765 12.2782 32.1921L12.2738 32.1908L12.2732 32.1902Z" fill="#202124"/>
</g>
<path d="M40.1085 0.000793457H50.104C50.5084 0.000793457 50.8368 0.330571 50.8368 0.737023V36.0852C50.8368 36.4916 50.509 36.8214 50.1046 36.8214H40.1091C39.7047 36.8214 39.3763 36.4916 39.3763 36.0852V32.9558C39.3763 32.5493 39.704 32.2195 40.1091 32.2195H45.5244C45.9288 32.2195 46.2572 31.8898 46.2572 31.4833V5.3657C46.2572 4.95925 45.9294 4.62948 45.5244 4.62948H40.1091C39.7047 4.62948 39.3763 4.29971 39.3763 3.89325V0.737647C39.3763 0.331195 39.7041 0.00141746 40.1085 0.00141746V0.000793457Z" fill="#202124"/>
<g opacity="0.3">
<path d="M50.3383 36.7833C50.5763 36.6711 50.7302 36.3494 50.7302 36.0851L50.7365 0.771832C50.7365 0.500033 50.5794 0.151561 50.3445 0.0430908C50.5956 0.122885 50.7714 0.338574 50.8256 0.599775C50.8368 0.655257 50.8374 0.712609 50.8374 0.771208V36.0851C50.8374 36.3899 50.6598 36.663 50.3389 36.7833H50.3383Z" fill="#202124"/>
</g>
<g opacity="0.3">
<path d="M50.2099 36.8145C50.1856 36.8182 50.1171 36.822 50.0921 36.822L40.3471 36.8195H40.2649C40.1309 36.8207 40.0281 36.8232 39.9384 36.8027C39.8611 36.7846 39.757 36.7434 39.6685 36.6742C39.6617 36.6693 39.6399 36.6493 39.6199 36.6319C39.6012 36.615 39.585 36.6001 39.585 36.6001C39.585 36.6001 39.7764 36.6936 39.8605 36.7079C40.0387 36.7391 40.1365 36.7291 40.2637 36.7279H40.3465L50.1152 36.7372C50.2604 36.7372 50.5153 36.6743 50.6355 36.5926L50.5869 36.6368C50.5115 36.7073 50.4081 36.7634 50.2978 36.7952C50.2978 36.7952 50.2336 36.8101 50.2093 36.8139L50.2099 36.8145Z" fill="#202124"/>
</g>
<g opacity="0.4">
<path d="M39.3756 3.85267C39.3756 4.2292 39.7645 4.53591 40.139 4.53591H45.5542C45.9873 4.53591 46.2522 4.85197 46.2522 5.2871C46.2204 4.96169 45.9288 4.63004 45.5542 4.63004H40.139C39.7059 4.63004 39.4049 4.30276 39.3794 3.97486L39.375 3.85205L39.3756 3.85267Z" fill="#202124"/>
</g>
<g opacity="0.4">
<path d="M7.55399 0.0244751L7.67675 0.100527C7.32654 0.16349 7.11029 0.476433 7.11029 0.740751L7.10407 36.054C7.10407 36.3258 7.26111 36.6743 7.49604 36.7828C7.24491 36.703 7.06918 36.4873 7.01496 36.2261C7.00375 36.1706 7.00311 36.1132 7.00311 36.0546V0.740751C7.00311 0.435913 7.21873 0.0992821 7.55337 0.0244751H7.55399Z" fill="#202124"/>
</g>
<path d="M17.9409 36.8245H7.90051C7.49421 36.8245 7.16455 36.4947 7.16455 36.0882V0.740067C7.16455 0.333615 7.49358 0.00384521 7.90051 0.00384521H17.9409C18.3472 0.00384521 18.6768 0.333615 18.6768 0.740067V3.8695C18.6768 4.27595 18.3472 4.60572 17.9409 4.60572H12.5013C12.095 4.60572 11.7653 4.9355 11.7653 5.34195V31.4596C11.7653 31.866 12.095 32.1958 12.5013 32.1958H17.9409C18.3472 32.1958 18.6768 32.5256 18.6768 32.932V36.0876C18.6768 36.4941 18.3478 36.8238 17.9409 36.8238V36.8245Z" fill="#202124"/>
<g opacity="0.3">
<path d="M7.88433 36.8238C7.60827 36.8238 7.37769 36.6599 7.23499 36.4024C7.36024 36.6281 7.64379 36.7166 7.88433 36.7166L17.9303 36.711C18.3254 36.711 18.5827 36.4211 18.5827 36.14L18.607 32.99C18.607 32.99 18.5977 32.7419 18.5777 32.7082L18.5204 32.4775L18.5696 32.548C18.5696 32.548 18.6768 32.725 18.6762 32.9058C18.6762 32.9656 18.675 33.0342 18.675 33.0729L18.6762 36.1387C18.6762 36.4778 18.3434 36.817 17.9303 36.817L7.88433 36.8226V36.8238Z" fill="#202124"/>
<path d="M12.434 32.1927C12.2414 32.1927 11.6488 31.9464 11.6488 31.5113V5.39367C11.6488 4.96353 11.9766 4.48165 12.4159 4.48165L17.7969 4.47729C18.1646 4.47729 18.5609 4.30336 18.5609 3.9206V0.791178C18.5609 0.414649 18.2543 0.00321006 17.8779 0.00321006C18.1465 -0.00801099 18.387 0.104195 18.5329 0.302433C18.6288 0.432722 18.6862 0.599792 18.6756 0.79429V3.89504C18.6756 3.89504 18.6755 3.9418 18.6637 3.99915C18.6431 4.09827 18.6083 4.19801 18.5491 4.28466C18.4793 4.3869 18.3802 4.47168 18.2693 4.52903C18.1328 4.6001 17.9701 4.61007 17.7938 4.60633H12.4658C12.3424 4.60571 12.2321 4.64935 12.1361 4.70296C11.8893 4.84011 11.7423 5.1144 11.7653 5.3943L11.7666 31.5132C11.7666 31.6659 11.8326 31.7968 11.9186 31.9096C12.0439 32.0742 12.2421 32.1789 12.439 32.1945L12.4346 32.1933L12.434 32.1927Z" fill="#202124"/>
</g>
<path d="M40.2693 0.00317383H50.2648C50.6692 0.00317383 50.9976 0.332944 50.9976 0.739395V36.0876C50.9976 36.494 50.6698 36.8238 50.2654 36.8238H40.2699C39.8655 36.8238 39.537 36.494 39.537 36.0876V32.9581C39.537 32.5517 39.8648 32.2219 40.2699 32.2219H45.6852C46.0896 32.2219 46.418 31.8921 46.418 31.4857V5.36808C46.418 4.96163 46.0902 4.63186 45.6852 4.63186H40.2699C39.8655 4.63186 39.537 4.30208 39.537 3.89563V0.740019C39.537 0.333568 39.8648 0.00379783 40.2693 0.00379783V0.00317383Z" fill="#202124"/>
<g opacity="0.3">
<path d="M50.4991 36.7859C50.7371 36.6736 50.8911 36.352 50.8911 36.0877L50.8973 0.774403C50.8973 0.502604 50.7403 0.154124 50.5053 0.0456543C50.7565 0.125448 50.9322 0.341145 50.9864 0.602346C50.9976 0.657828 50.9983 0.71518 50.9983 0.773779V36.0877C50.9983 36.3925 50.8207 36.6655 50.4997 36.7859H50.4991Z" fill="#202124"/>
</g>
<g opacity="0.3">
<path d="M50.3707 36.817C50.3464 36.8207 50.2778 36.8245 50.2529 36.8245L40.5079 36.822H40.4257C40.2917 36.8232 40.1889 36.8257 40.0991 36.8052C40.0218 36.7871 39.9178 36.7459 39.8293 36.6767C39.8225 36.6718 39.8006 36.6518 39.7807 36.6344C39.762 36.6175 39.7458 36.6026 39.7458 36.6026C39.7458 36.6026 39.9371 36.6961 40.0212 36.7104C40.1994 36.7416 40.2973 36.7316 40.4244 36.7304H40.5073L50.2759 36.7397C50.4211 36.7397 50.676 36.6768 50.7963 36.5951L50.7477 36.6394C50.6723 36.7098 50.5688 36.7659 50.4585 36.7977C50.4585 36.7977 50.3944 36.8126 50.3701 36.8164L50.3707 36.817Z" fill="#202124"/>
</g>
</svg>
