<svg width="396" height="52" viewBox="0 0 396 52" fill="none" xmlns="http://www.w3.org/2000/svg">
  <path
    d="M82.9429 11.4495H86.2004L90.7047 29.6803L91.1217 31.378H91.2603L91.7793 29.6803L97.3246 11.4495H100.376L105.679 29.6803L106.198 31.378H106.336L111.224 11.4495H114.481L107.791 36.2671H104.742L99.4728 18.3126L98.9202 16.3722H98.7815L98.1922 18.3126L92.7142 36.2671H89.6648L82.9409 11.4495H82.9429Z"
    fill="#202124" />
  <path
    d="M118.747 35.5735C117.36 34.7415 116.279 33.6107 115.506 32.1771C114.73 30.7445 114.344 29.1621 114.344 27.4297C114.344 25.6974 114.73 24.1129 115.506 22.6793C116.279 21.2467 117.36 20.115 118.747 19.2829C120.132 18.4509 121.692 18.0359 123.427 18.0359C125.162 18.0359 126.719 18.4509 128.107 19.2829C129.491 20.115 130.572 21.2457 131.348 22.6793C132.121 24.1119 132.507 25.6943 132.507 27.4297C132.507 29.1651 132.121 30.7445 131.348 32.1771C130.572 33.6097 129.492 34.7415 128.107 35.5735C126.719 36.4055 125.159 36.8235 123.427 36.8235C121.695 36.8235 120.133 36.4065 118.747 35.5735ZM126.459 33.3395C127.395 32.795 128.145 32.017 128.712 30.9984C129.276 29.9829 129.562 28.793 129.562 27.4297C129.562 26.0665 129.277 24.8746 128.712 23.859C128.145 22.8435 127.395 22.0624 126.459 21.518C125.523 20.9765 124.513 20.7053 123.427 20.7053C122.341 20.7053 121.323 20.9765 120.375 21.518C119.427 22.0624 118.672 22.8435 118.108 23.859C117.541 24.8746 117.259 26.0645 117.259 27.4297C117.259 28.795 117.541 29.9829 118.108 30.9984C118.672 32.017 119.428 32.795 120.375 33.3395C121.324 33.8809 122.341 34.1521 123.427 34.1521C124.513 34.1521 125.523 33.8809 126.459 33.3395Z"
    fill="#202124" />
  <path
    d="M135.591 18.5886H138.398V21.1896H138.539C139.046 20.2872 139.808 19.5368 140.827 18.9363C141.842 18.3357 142.917 18.0359 144.047 18.0359C145.342 18.0359 146.468 18.3459 147.426 18.9699C148.385 19.5929 149.074 20.426 149.491 21.466C150.114 20.4249 150.94 19.5929 151.967 18.9699C152.997 18.347 154.193 18.0359 155.555 18.0359C157.589 18.0359 159.12 18.6538 160.147 19.8896C161.177 21.1254 161.689 22.8068 161.689 24.9337V36.2678H158.779V25.3854C158.779 23.7438 158.443 22.5529 157.771 21.8147C157.102 21.0755 156.11 20.7063 154.793 20.7063C153.913 20.7063 153.118 20.9602 152.401 21.468C151.685 21.9758 151.124 22.6579 150.72 23.5133C150.314 24.3678 150.114 25.2936 150.114 26.2857V36.2688H147.166V25.4201C147.166 23.756 146.831 22.5539 146.162 21.8147C145.491 21.0755 144.509 20.7063 143.217 20.7063C142.337 20.7063 141.539 20.9664 140.825 21.4853C140.109 22.0043 139.548 22.6987 139.144 23.5643C138.738 24.433 138.538 25.364 138.538 26.3571V36.2699H135.59V18.5916L135.591 18.5886Z"
    fill="#202124" />
  <path
    d="M169.247 35.6102C167.908 34.8006 166.862 33.6861 166.111 32.2648C165.358 30.8434 164.982 29.2436 164.982 27.4634C164.982 25.6831 165.335 24.1833 166.04 22.7497C166.745 21.3171 167.743 20.171 169.038 19.3166C170.333 18.4622 171.834 18.0359 173.546 18.0359C175.257 18.0359 176.778 18.4224 178.05 19.1953C179.319 19.9712 180.298 21.0398 180.978 22.403C181.66 23.7652 182.002 25.3252 182.002 27.0831C182.002 27.4297 181.965 27.7295 181.898 27.9834H167.93C167.997 29.3232 168.323 30.457 168.901 31.3798C169.479 32.3046 170.212 32.9989 171.101 33.4618C171.989 33.9247 172.92 34.1531 173.89 34.1531C176.156 34.1531 177.901 33.0927 179.126 30.9658L181.621 32.1791C180.857 33.6117 179.825 34.7435 178.519 35.5755C177.213 36.4075 175.637 36.8256 173.789 36.8256C172.1 36.8256 170.588 36.4198 169.248 35.6122L169.247 35.6102ZM178.882 25.5567C178.834 24.8174 178.628 24.0782 178.259 23.34C177.89 22.5977 177.306 21.9747 176.507 21.467C175.712 20.9592 174.711 20.7053 173.509 20.7053C172.124 20.7053 170.951 21.1509 169.991 22.04C169.032 22.9281 168.403 24.1017 168.101 25.5577H178.882V25.5567Z"
    fill="#202124" />
  <path
    d="M185.432 18.5886H188.238V21.1896H188.379C188.864 20.3097 189.637 19.5643 190.701 18.9526C191.764 18.3408 192.895 18.0359 194.097 18.0359C196.223 18.0359 197.846 18.6538 198.968 19.8896C200.087 21.1254 200.649 22.8068 200.649 24.9337V36.2678H197.702V25.3854C197.702 23.7438 197.309 22.5529 196.523 21.8147C195.739 21.0755 194.665 20.7063 193.302 20.7063C192.354 20.7063 191.503 20.9714 190.753 21.5016C190.002 22.0349 189.418 22.7344 189.004 23.6C188.587 24.4657 188.381 25.3742 188.381 26.3193V36.2688H185.434V18.5906L185.432 18.5886Z"
    fill="#202124" />
  <path d="M217.087 14.3643H210.121V11.5573H226.966V14.3643H220.036V36.3749H217.088V14.3643H217.087Z" fill="#202124" />
  <path
    d="M230.64 35.7183C229.3 34.9087 228.254 33.7942 227.504 32.3729C226.751 30.9515 226.375 29.3517 226.375 27.5715C226.375 25.7912 226.728 24.2914 227.433 22.8578C228.138 21.4252 229.136 20.2791 230.431 19.4247C231.726 18.5703 233.227 18.144 234.938 18.144C236.65 18.144 238.17 18.5304 239.443 19.3033C240.712 20.0793 241.691 21.1479 242.371 22.5111C243.053 23.8733 243.395 25.4333 243.395 27.1912C243.395 27.5378 243.358 27.8376 243.291 28.0915H229.323C229.39 29.4313 229.715 30.5651 230.293 31.4878C230.872 32.4126 231.605 33.107 232.494 33.5699C233.382 34.0328 234.313 34.2612 235.283 34.2612C237.549 34.2612 239.294 33.2008 240.518 31.0739L243.014 32.2872C242.25 33.7198 241.218 34.8516 239.912 35.6836C238.606 36.5156 237.03 36.9336 235.182 36.9336C233.493 36.9336 231.981 36.5278 230.641 35.7203L230.64 35.7183ZM240.275 25.6648C240.227 24.9255 240.021 24.1863 239.652 23.4481C239.283 22.7058 238.699 22.0828 237.9 21.5751C237.105 21.0673 236.104 20.8134 234.902 20.8134C233.517 20.8134 232.344 21.259 231.384 22.1481C230.425 23.0362 229.796 24.2098 229.494 25.6658H240.275V25.6648Z"
    fill="#202124" />
  <path
    d="M250.393 35.6989C249.031 34.8812 247.967 33.7586 247.206 32.3362C246.444 30.9169 246.061 29.315 246.061 27.5378C246.061 25.7606 246.444 24.1527 247.206 22.7201C247.967 21.2875 249.031 20.1649 250.393 19.3574C251.758 18.5478 253.292 18.144 255.004 18.144C256.922 18.144 258.533 18.5865 259.839 19.4787C261.145 20.3668 262.073 21.5516 262.628 23.0301L259.96 24.1384C259.52 23.0525 258.868 22.2287 258.003 21.6617C257.134 21.0948 256.09 20.8124 254.867 20.8124C253.826 20.8124 252.855 21.0948 251.953 21.6617C251.052 22.2287 250.331 23.0189 249.786 24.0344C249.245 25.053 248.974 26.2205 248.974 27.5378C248.974 28.8552 249.245 30.0206 249.786 31.0382C250.331 32.0537 251.052 32.846 251.953 33.4109C252.855 33.9778 253.826 34.2602 254.867 34.2602C256.113 34.2602 257.188 33.9727 258.087 33.3945C258.99 32.8195 259.658 31.9987 260.099 30.9352L262.733 32.0435C262.133 33.4996 261.168 34.6783 259.84 35.5776C258.511 36.4799 256.899 36.9316 255.005 36.9316C253.293 36.9316 251.759 36.5197 250.394 35.6989H250.393Z"
    fill="#202124" />
  <path
    d="M265.92 11.5583H268.868V18.8732L268.727 21.2988H268.868C269.353 20.3965 270.12 19.646 271.172 19.0455C272.221 18.4449 273.372 18.1451 274.619 18.1451C276.768 18.1451 278.41 18.7743 279.541 20.0325C280.675 21.2938 281.239 22.9629 281.239 25.0419V36.376H278.295V25.4936C278.295 23.8969 277.891 22.7212 277.081 21.9565C276.272 21.1948 275.22 20.8145 273.928 20.8145C273.003 20.8145 272.154 21.0909 271.381 21.6466C270.605 22.1992 269.993 22.916 269.542 23.7928C269.09 24.6728 268.868 25.5843 268.868 26.5315V36.376H265.92V11.5583Z"
    fill="#202124" />
  <path
    d="M285.467 18.6978H288.274V21.2989H288.415C288.922 20.3965 289.684 19.646 290.702 19.0455C291.718 18.4449 292.793 18.1451 293.923 18.1451C295.218 18.1451 296.344 18.4551 297.302 19.0791C298.261 19.7021 298.95 20.5352 299.367 21.5752C299.99 20.5341 300.816 19.7021 301.843 19.0791C302.873 18.4561 304.069 18.1451 305.431 18.1451C307.465 18.1451 308.996 18.7631 310.023 19.9988C311.053 21.2346 311.565 22.916 311.565 25.0429V36.377H308.655V25.4946C308.655 23.853 308.319 22.6621 307.647 21.9239C306.979 21.1846 305.986 20.8155 304.669 20.8155C303.789 20.8155 302.994 21.0694 302.277 21.5772C301.561 22.085 301 22.7671 300.596 23.6226C300.19 24.477 299.99 25.4028 299.99 26.3949V36.3781H297.042V25.5292C297.042 23.8652 296.707 22.6631 296.038 21.9239C295.367 21.1846 294.385 20.8155 293.093 20.8155C292.213 20.8155 291.415 21.0755 290.701 21.5945C289.985 22.1135 289.424 22.8079 289.02 23.6736C288.614 24.5423 288.414 25.4732 288.414 26.4663V36.3791H285.466V18.7009L285.467 18.6978Z"
    fill="#202124" />
  <path
    d="M317.805 36.167C316.79 35.6592 316.002 34.9598 315.45 34.0706C314.894 33.1825 314.618 32.1691 314.618 31.0383C314.618 29.1653 315.323 27.7041 316.73 26.6519C318.14 25.6027 319.921 25.0755 322.07 25.0755C323.13 25.0755 324.12 25.1908 325.032 25.4222C325.945 25.6537 326.645 25.9188 327.13 26.2206V25.1459C327.13 23.8285 326.667 22.7712 325.742 21.9728C324.817 21.1775 323.652 20.7768 322.242 20.7768C321.249 20.7768 320.336 20.9909 319.504 21.4202C318.672 21.8464 318.014 22.4408 317.529 23.2055L315.312 21.5415C316.003 20.478 316.957 19.646 318.169 19.0455C319.382 18.4449 320.73 18.1451 322.208 18.1451C324.612 18.1451 326.499 18.7743 327.875 20.0325C329.248 21.2938 329.937 23.0087 329.937 25.1805V36.376H327.13V33.8453H326.991C326.48 34.6998 325.719 35.4278 324.703 36.0283C323.685 36.6289 322.543 36.9307 321.27 36.9307C319.998 36.9307 318.823 36.6738 317.804 36.166L317.805 36.167ZM324.321 33.569C325.175 33.0612 325.858 32.3791 326.366 31.5236C326.877 30.6692 327.131 29.7322 327.131 28.7146C326.575 28.3455 325.892 28.0457 325.086 27.8142C324.276 27.5828 323.422 27.4676 322.518 27.4676C320.902 27.4676 319.684 27.803 318.863 28.4719C318.043 29.1428 317.634 30.0095 317.634 31.073C317.634 32.0436 318.003 32.8308 318.742 33.4313C319.481 34.0319 320.417 34.3317 321.549 34.3317C322.545 34.3317 323.467 34.0778 324.321 33.57V33.569Z"
    fill="#202124" />
  <path
    d="M334.026 11.5583H336.973V27.1545L345.291 18.6978H349.034V18.8365L342.101 25.8382L349.206 36.2384V36.377H345.706L340.022 27.8836L336.972 30.9353V36.377H334.025V11.5594L334.026 11.5583Z"
    fill="#202124" />
  <path
    d="M354.337 35.7183C352.998 34.9087 351.952 33.7942 351.201 32.3729C350.448 30.9515 350.073 29.3517 350.073 27.5715C350.073 25.7912 350.425 24.2914 351.13 22.8578C351.835 21.4252 352.834 20.2791 354.128 19.4247C355.423 18.5703 356.924 18.144 358.636 18.144C360.348 18.144 361.868 18.5304 363.14 19.3033C364.409 20.0793 365.388 21.1479 366.068 22.5111C366.75 23.8733 367.092 25.4333 367.092 27.1912C367.092 27.5378 367.055 27.8376 366.988 28.0915H353.02C353.087 29.4313 353.413 30.5651 353.991 31.4878C354.569 32.4126 355.302 33.107 356.191 33.5699C357.079 34.0328 358.01 34.2612 358.98 34.2612C361.246 34.2612 362.991 33.2008 364.216 31.0739L366.712 32.2872C365.947 33.7198 364.915 34.8516 363.609 35.6836C362.303 36.5156 360.727 36.9336 358.879 36.9336C357.19 36.9336 355.678 36.5278 354.338 35.7203L354.337 35.7183ZM363.972 25.6648C363.924 24.9255 363.718 24.1863 363.349 23.4481C362.98 22.7058 362.396 22.0828 361.597 21.5751C360.802 21.0673 359.801 20.8134 358.599 20.8134C357.214 20.8134 356.041 21.259 355.082 22.1481C354.122 23.0362 353.493 24.2098 353.191 25.6658H363.972V25.6648Z"
    fill="#202124" />
  <path
    d="M370.522 18.6978H373.328V21.5415H373.469C373.816 20.5708 374.484 19.7612 375.477 19.1158C376.471 18.4673 377.512 18.1451 378.597 18.1451C379.407 18.1451 380.101 18.2716 380.679 18.5255V21.6792C379.937 21.3101 379.105 21.1235 378.183 21.1235C377.329 21.1235 376.542 21.3661 375.825 21.8545C375.108 22.3399 374.537 22.9945 374.11 23.8173C373.681 24.6381 373.47 25.5242 373.47 26.4744V36.375H370.523V18.6968L370.522 18.6978Z"
    fill="#202124" />
  <path
    d="M384.247 35.597C382.974 34.7059 382.075 33.569 381.542 32.1813L384.176 31.0026C384.617 32.0661 385.268 32.8869 386.137 33.465C387.003 34.0431 387.956 34.3307 388.994 34.3307C390.105 34.3307 391.05 34.1053 391.837 33.6536C392.621 33.205 393.016 32.5616 393.016 31.7296C393.016 30.9904 392.703 30.3949 392.08 29.9473C391.457 29.4956 390.475 29.1092 389.135 28.7849L386.986 28.2292C385.576 27.8825 384.419 27.2953 383.52 26.4632C382.618 25.6312 382.169 24.5565 382.169 23.2392C382.169 22.2206 382.474 21.3264 383.085 20.5535C383.697 19.7776 384.513 19.1821 385.531 18.7681C386.547 18.3511 387.644 18.1451 388.823 18.1451C390.372 18.1451 391.752 18.4775 392.964 19.1495C394.177 19.8204 395.04 20.7543 395.547 21.9565L392.983 23.1352C392.196 21.5639 390.797 20.7768 388.789 20.7768C387.818 20.7768 386.97 21.0021 386.242 21.4538C385.511 21.9055 385.148 22.4775 385.148 23.1688C385.148 23.8173 385.402 24.3424 385.913 24.7452C386.42 25.151 387.182 25.4813 388.2 25.7352L390.765 26.3929C392.497 26.8334 393.803 27.4849 394.683 28.3506C395.56 29.2193 396 30.2746 396 31.5236C396 32.6095 395.687 33.5629 395.064 34.3806C394.441 35.2014 393.595 35.8336 392.534 36.271C391.47 36.7115 390.292 36.9307 388.997 36.9307C387.105 36.9307 385.519 36.4851 384.25 35.596L384.247 35.597Z"
    fill="#202124" />
  <path
    d="M48.5384 11.2261V38.397L38.866 24.0703V11.2261C38.8609 10.4043 39.5593 9.67828 40.4136 9.67828H46.9907C47.8461 9.67828 48.5384 10.3716 48.5384 11.2261Z"
    fill="#202124" />
  <path
    d="M48.5384 39.5166V40.3752C48.5384 40.4812 48.5282 40.5842 48.5078 40.6841C48.5078 40.6851 48.5078 40.6861 48.5078 40.6872C48.4935 40.7555 48.4752 40.8218 48.4528 40.886C48.4507 40.8931 48.4487 40.9003 48.4456 40.9074C48.2285 41.4998 47.6595 41.923 46.9917 41.923H40.4147C39.9702 41.923 39.5695 41.7353 39.2871 41.4346C39.2728 41.4193 39.2595 41.4029 39.2453 41.3866C39.1739 41.3061 39.1117 41.2164 39.0587 41.1215C39.0566 41.1185 39.0546 41.1154 39.0536 41.1123C38.9343 40.8931 38.867 40.6423 38.867 40.3752V25.1634L48.5088 39.4452C48.521 39.4656 48.5313 39.4901 48.5394 39.5166H48.5384Z"
    fill="#202124" />
  <path
    d="M22.803 11.2261V24.2905L13.1306 38.5275V11.2261C13.1306 10.3716 13.8239 9.67828 14.6783 9.67828H21.2554C22.1108 9.67828 22.803 10.3716 22.803 11.2261Z"
    fill="#202124" />
  <path
    d="M22.803 25.3784V40.375C22.803 41.2162 22.1322 41.9014 21.2951 41.9217C21.2819 41.9228 21.2687 41.9228 21.2554 41.9228H21.2075C21.2075 41.9228 21.2075 41.9217 21.2054 41.9217L14.8078 41.7933C13.9524 41.7933 13.1306 41.2294 13.1306 40.375V39.8876C13.1581 39.7286 13.204 39.5685 13.2703 39.4094L22.803 25.3784Z"
    fill="#202124" />
  <path
    d="M35.7217 21.402C35.7196 21.4122 35.7176 21.4234 35.7145 21.4336V21.4377C35.688 21.5519 35.6513 21.66 35.6024 21.7578C35.5942 21.7772 35.584 21.7955 35.5749 21.8139C35.5728 21.819 35.5708 21.8251 35.5677 21.8292C35.5677 21.8302 35.5677 21.8312 35.5657 21.8323C35.5596 21.8445 35.5545 21.8567 35.5473 21.869L34.9274 22.806C33.8814 24.3966 32.4428 26.5623 30.9257 28.8575L26.2878 21.869L34.0496 19.3546C34.6603 19.3546 35.1548 19.6727 35.5208 20.209L35.6197 20.3548C35.7584 20.675 35.8012 21.04 35.7217 21.402Z"
    fill="#202124" />
  <path
    d="M48.5078 40.684C48.5078 40.684 48.5078 40.686 48.5078 40.687C48.4935 40.7553 48.4752 40.8216 48.4527 40.8859C48.4507 40.893 48.4487 40.9001 48.4456 40.9073C48.4109 41.0204 48.3722 41.1152 48.3304 41.1805C48.0999 41.5374 47.7594 41.9299 46.9856 41.9299H40.5105C40.0354 41.9299 39.6694 41.8575 39.3289 41.4803C39.3146 41.466 39.3013 41.4507 39.287 41.4344C39.2728 41.4191 39.2595 41.4028 39.2452 41.3865C39.1739 41.3059 39.1117 41.2162 39.0586 41.1214C39.0566 41.1183 39.0546 41.1152 39.0536 41.1122C39.0372 41.0867 39.022 41.0612 39.0067 41.0337L31.2938 29.41C31.3417 29.3386 31.3886 29.2672 31.4355 29.1958C32.0391 28.2843 32.6294 27.3921 33.1881 26.5489C34.0211 25.2897 34.8082 24.1018 35.4393 23.1424L36.0591 22.2063L36.0734 22.1839L36.0857 22.1604C36.0928 22.1472 36.0999 22.1339 36.106 22.1217C36.1162 22.1044 36.1234 22.0881 36.1295 22.0748C36.1387 22.0564 36.1479 22.0391 36.156 22.0218C36.2233 21.8831 36.2753 21.7332 36.311 21.5772V21.5721L36.314 21.564C36.3161 21.5518 36.3192 21.5385 36.3212 21.5263C36.3283 21.4916 36.3355 21.4559 36.3406 21.4212L38.867 25.1632L48.5088 39.4451C48.521 39.4655 48.5312 39.49 48.5394 39.5165C48.573 39.6113 48.5883 39.7418 48.5904 39.8886C48.6057 40.1242 48.5832 40.4066 48.5088 40.684H48.5078Z"
    fill="#202124" />
  <path
    d="M39.0576 41.1216C39.1106 41.2164 39.1728 41.3061 39.2442 41.3866C39.181 41.3091 39.1178 41.2205 39.0576 41.1216ZM48.4864 40.7575C48.4751 40.8024 48.4639 40.8453 48.4517 40.886C48.4741 40.8218 48.4925 40.7555 48.5068 40.6872C48.5006 40.7106 48.4935 40.7341 48.4864 40.7575Z"
    fill="#202124" />
  <g opacity="0.3">
    <path
      d="M15.7916 41.9146L14.8394 41.9228C14.1624 41.9299 13.6812 41.6628 13.3712 41.1958C13.0409 40.6982 13.0042 40.0508 13.2713 39.4094L13.2856 39.388L26.3001 20.2252C26.6977 19.6226 27.2227 19.3524 27.8436 19.3524H34.1475C34.384 19.3585 34.6144 19.4146 34.8122 19.5104C34.9682 19.5859 35.115 19.6838 35.2414 19.8072C35.3567 19.9193 35.4576 20.0529 35.5473 20.2048C35.5473 20.2048 34.7154 19.5023 34.1506 19.5023H27.8436C27.2757 19.5023 26.7935 19.749 26.4244 20.3088L13.4069 39.4696C13.1622 40.061 13.1948 40.6605 13.4956 41.1142C13.777 41.5384 14.2511 41.8443 14.8373 41.8463L15.7926 41.9146H15.7916Z"
      fill="#202124" />
  </g>
  <path
    d="M35.7217 21.4018C35.7196 21.412 35.7176 21.4232 35.7146 21.4334V21.4375C35.6881 21.5517 35.6513 21.6598 35.6024 21.7577C35.5942 21.7771 35.584 21.7954 35.5749 21.8138C35.5728 21.8189 35.5708 21.825 35.5678 21.829C35.5678 21.8301 35.5678 21.8311 35.5657 21.8321C35.5596 21.8444 35.5545 21.8566 35.5473 21.8688L34.9275 22.8058C33.8814 24.3965 32.4428 26.5621 30.9257 28.8573C30.9257 28.8583 30.9247 28.8583 30.9247 28.8594C27.1636 34.5489 22.9142 40.9735 22.9142 40.9735C22.8592 41.0612 22.801 41.1418 22.7409 41.2172C22.7235 41.2397 22.7052 41.2611 22.6869 41.2835C22.6838 41.2876 22.6807 41.2917 22.6766 41.2957C22.5461 41.4487 22.4014 41.5761 22.2433 41.675C22.2393 41.6781 22.2351 41.6801 22.23 41.6832C22.2127 41.6944 22.1944 41.7035 22.1771 41.7137C22.1608 41.7229 22.1455 41.7321 22.1291 41.7413C22.1251 41.7423 22.122 41.7443 22.1189 41.7454C21.8926 41.8626 21.6459 41.9217 21.3777 41.9217H21.2951C21.2819 41.9228 21.2687 41.9228 21.2554 41.9228H21.2075C21.2075 41.9228 21.2075 41.9217 21.2054 41.9217C20.5845 41.9228 18.4863 41.9258 16.8173 41.9258C15.8987 41.9258 15.1116 41.9248 14.7721 41.9228C14.6814 41.9218 14.6223 41.9187 14.6029 41.9177C14.3449 41.9014 14.1023 41.8229 13.8912 41.7005L13.8851 41.6975C13.8566 41.6801 13.828 41.6628 13.8005 41.6444C13.7781 41.6291 13.7566 41.6138 13.7352 41.5985L13.7271 41.5904C13.2377 41.2141 13.0124 40.5647 13.1306 39.8876C13.1581 39.7286 13.204 39.5685 13.2703 39.4094L22.803 25.3784L26.2919 20.2435C26.66 19.6858 27.1626 19.3544 27.7866 19.3544L34.0955 19.3524C34.4004 19.3524 34.6767 19.4309 34.9132 19.5645C34.9142 19.5645 34.9142 19.5655 34.9153 19.5655C34.9163 19.5655 34.9173 19.5655 34.9183 19.5675C34.9713 19.5971 35.0223 19.6297 35.0712 19.6654C35.0743 19.6675 35.0763 19.6705 35.0794 19.6725C35.1283 19.7082 35.1752 19.747 35.2201 19.7888C35.2221 19.7908 35.2242 19.7929 35.2262 19.7949C35.3944 19.9519 35.528 20.1436 35.6197 20.3547C35.7584 20.6748 35.8012 21.0399 35.7217 21.4018Z"
    fill="#202124" />
  <path d="M21.2075 41.9217H21.2559C21.2692 41.9227 21.2826 41.9227 21.296 41.9217H21.2075Z" fill="#202124" />
  <g opacity="0.3">
    <path
      d="M16.1353 46.2136C16.1353 45.6446 15.6265 45.247 15.0913 45.247L7.57414 45.1786C7.3845 45.1766 7.19897 45.1246 7.03584 45.0277L7.01852 45.0176C6.97774 44.9982 6.93901 44.9737 6.90536 44.9431L6.85742 44.9003C6.96855 44.991 7.09908 45.0532 7.23876 45.0828C7.25201 45.0869 7.33659 45.1001 7.35087 45.1022C7.39369 45.1072 7.43651 45.1093 7.47831 45.1103H15.0913C15.3401 45.1103 15.5552 45.1878 15.7285 45.3204C15.8529 45.4152 15.9681 45.5477 16.0374 45.7048C16.1037 45.8536 16.1373 45.975 16.1353 46.2125V46.2136Z"
      fill="#202124" />
    <path
      d="M1.02056 0.00213623H15.1096C15.5929 0.00213623 16.1343 0.416121 16.1343 1.01464C16.1343 0.494632 15.5327 0.13163 15.1117 0.13163H1.0236C0.99505 0.13163 0.987959 0.135719 0.943099 0.141837L0.770752 0.0357918C0.822749 0.0235563 0.918632 0.00213623 1.02161 0.00213623H1.02056Z"
      fill="#202124" />
  </g>
  <g opacity="0.3">
    <path
      d="M54.0337 6.48584C54.6414 6.48584 55.1348 6.84988 55.1348 7.45961L55.1633 44.0549C55.1705 44.4036 55.0522 44.7207 54.8299 44.9471C54.6036 45.1775 54.2906 45.3009 53.9185 45.2958L46.4432 45.2907C45.9151 45.2907 45.5307 45.669 45.5307 46.19L45.5215 50.503C45.5215 50.7396 45.5878 51.0689 45.7886 51.2657C46.0344 51.5073 46.4228 51.593 46.4228 51.593C46.3657 51.5899 46.3086 51.5899 46.2566 51.5818C45.6887 51.488 45.3737 51.0608 45.3737 50.502L45.3829 46.189C45.3829 45.5823 45.8294 45.1418 46.4442 45.1418L53.9195 45.147C54.2498 45.151 54.5261 45.044 54.7239 44.8431C54.9177 44.6463 55.0206 44.3669 55.0145 44.0569L55.0176 7.46061C55.0176 6.93244 54.5455 6.49706 54.0337 6.48584Z"
      fill="#202124" />
    <path
      d="M46.4432 6.48989C45.7764 6.48989 45.3727 6.01067 45.3727 5.39992V0.977795C45.3727 0.50571 45.7988 0.0010376 46.3993 0.0010376C46.4157 0.0010376 57.9508 0.0132492 60.4089 0.00203332C60.7229 0.0010137 60.9778 0.176385 60.9778 0.176385L60.7729 0.126449C60.7464 0.121351 60.673 0.120326 60.6454 0.120326C59.8104 0.120326 46.4167 0.120302 46.3993 0.121321C45.9008 0.143753 45.5215 0.466988 45.5215 0.9768L45.4899 5.39892C45.4899 5.92708 45.8743 6.4858 46.4004 6.4858"
      fill="#202124" />
  </g>
  <path
    d="M15.1045 51.5959H1.03174C0.461816 51.5959 0 51.134 0 50.564V1.03268C0 0.462706 0.461839 0.000854492 1.03075 0.000854492H15.1035C15.6734 0.000854492 16.1353 0.462706 16.1353 1.03268V5.4181C16.1353 5.98807 15.6734 6.44998 15.1035 6.44998H7.47936C6.90944 6.44998 6.44757 6.91183 6.44757 7.4818V44.0782C6.44757 44.6481 6.90944 45.11 7.47936 45.11H15.1035C15.6734 45.11 16.1353 45.5719 16.1353 46.1419V50.564C16.1353 51.134 15.6734 51.5959 15.1045 51.5959Z"
    fill="#202124" />
  <g opacity="0.3">
    <path
      d="M1.00826 51.5951C0.620834 51.5951 0.29869 51.3647 0.0978394 51.0047C0.273201 51.3208 0.670791 51.4452 1.00826 51.4452L15.0892 51.4371C15.6428 51.4371 16.0037 51.0312 16.0037 50.6376L16.0374 46.2237C16.0374 46.2237 16.0241 45.876 15.9966 45.8281L15.917 45.5049L15.9864 45.6038C15.9864 45.6038 16.1373 45.8516 16.1363 46.1055C16.1363 46.1891 16.1343 46.2849 16.1343 46.3399L16.1363 50.6367C16.1363 51.1118 15.6703 51.5869 15.0902 51.5869L1.00931 51.5951H1.00826Z"
      fill="#202124" />
    <path
      d="M7.38549 45.1061C7.11633 45.1061 6.2854 44.7616 6.2854 44.1508V7.55442C6.2854 6.9508 6.74522 6.27685 7.36 6.27685L14.9015 6.27073C15.4174 6.27073 15.9721 6.02705 15.9721 5.49073V1.1053C15.9721 0.577135 15.5429 0.0010896 15.0147 0.0010896C15.391 -0.0152244 15.7284 0.142803 15.9323 0.420141C16.0669 0.602654 16.1475 0.837143 16.1322 1.10938V5.45404C16.1322 5.45404 16.1321 5.52028 16.1158 5.59981C16.0873 5.73848 16.0373 5.87918 15.9558 5.99949C15.8579 6.14224 15.7182 6.26157 15.5633 6.34212C15.3716 6.44103 15.1442 6.45633 14.8965 6.45021H7.42831C7.256 6.44919 7.10103 6.51033 6.96543 6.58578C6.6198 6.77849 6.41283 7.16187 6.44545 7.55442V44.1528C6.44647 44.367 6.53926 44.5505 6.65957 44.7085C6.83493 44.9389 7.11328 45.0858 7.38957 45.1082L7.38345 45.1061H7.38549Z"
      fill="#202124" />
  </g>
  <path
    d="M46.4004 0.00213623H60.4099C60.9768 0.00213623 61.4366 0.464038 61.4366 1.03401V50.5653C61.4366 51.1352 60.9768 51.5971 60.4099 51.5971H46.4004C45.8335 51.5971 45.3737 51.1352 45.3737 50.5653V46.1799C45.3737 45.6099 45.8335 45.148 46.4004 45.148H53.9908C54.5577 45.148 55.0176 44.6861 55.0176 44.1161V7.51982C55.0176 6.94985 54.5577 6.48795 53.9908 6.48795H46.4004C45.8335 6.48795 45.3737 6.0261 45.3737 5.45613V1.03401C45.3737 0.464038 45.8335 0.00213623 46.4004 0.00213623Z"
    fill="#202124" />
  <g opacity="0.3">
    <path
      d="M60.7383 51.542C61.0717 51.3849 61.2878 50.9343 61.2878 50.5642L61.296 1.08178C61.296 0.700445 61.0758 0.212044 60.7464 0.0601196C61.0982 0.172278 61.3449 0.474127 61.4204 0.840172C61.4367 0.917663 61.4367 0.998199 61.4367 1.08079V50.5631C61.4367 50.9903 61.1879 51.3727 60.7383 51.541V51.542Z"
      fill="#202124" />
  </g>
  <g opacity="0.3">
    <path
      d="M60.5589 51.5858C60.5242 51.5909 60.4284 51.596 60.3937 51.596L46.7349 51.5929H46.6197C46.4321 51.595 46.2873 51.598 46.1619 51.5695C46.0528 51.544 45.908 51.4869 45.7836 51.3901C45.7744 51.3829 45.7439 51.3554 45.7153 51.3299C45.6898 51.3064 45.6664 51.285 45.6664 51.285C45.6664 51.285 45.9345 51.4155 46.0528 51.4359C46.3026 51.4798 46.4392 51.4655 46.6187 51.4634H46.7349L60.4263 51.4767C60.6292 51.4767 60.9871 51.389 61.1553 51.2738L61.088 51.336C60.982 51.4349 60.8372 51.5134 60.6832 51.5583C60.6832 51.5583 60.5925 51.5797 60.5589 51.5848V51.5858Z"
      fill="#202124" />
  </g>
  <g opacity="0.4">
    <path
      d="M45.3727 5.39893C45.3727 5.92709 45.9181 6.35632 46.4432 6.35632H54.0337C54.6414 6.35632 55.0125 6.79887 55.0125 7.4086C54.9686 6.95283 54.5588 6.48785 54.0337 6.48785H46.4432C45.8356 6.48785 45.4145 6.02902 45.3788 5.57019L45.3727 5.39893Z"
      fill="#202124" />
  </g>
  <g opacity="0.4">
    <path
      d="M0.770731 0.034729L0.943078 0.140774C0.451658 0.228461 0.148849 0.667949 0.148849 1.03807L0.140685 50.5204C0.140685 50.9017 0.360921 51.3901 0.690233 51.5421C0.338491 51.4299 0.0917251 51.1281 0.0162788 50.7621C-3.38517e-05 50.6846 5.78338e-10 50.604 5.78338e-10 50.5214V1.03907C5.78338e-10 0.611846 0.301741 0.139776 0.770731 0.0357745V0.034729Z"
      fill="#202124" />
  </g>
  <path
    d="M15.3298 51.6H1.25702C0.687096 51.6 0.225281 51.1382 0.225281 50.5682V1.03689C0.225281 0.466918 0.68712 0.00506592 1.25603 0.00506592H15.3288C15.8987 0.00506592 16.3606 0.466918 16.3606 1.03689V5.42231C16.3606 5.99228 15.8987 6.45419 15.3288 6.45419H7.70464C7.13472 6.45419 6.67285 6.91604 6.67285 7.48601V44.0823C6.67285 44.6523 7.13472 45.1142 7.70464 45.1142H15.3288C15.8987 45.1142 16.3606 45.5761 16.3606 46.1461V50.5682C16.3606 51.1382 15.8987 51.6 15.3298 51.6Z"
    fill="#202124" />
  <g opacity="0.3">
    <path
      d="M1.23354 51.5991C0.846114 51.5991 0.52397 51.3687 0.32312 51.0088C0.498482 51.3248 0.896072 51.4492 1.23354 51.4492L15.3145 51.4411C15.8681 51.4411 16.229 51.0353 16.229 50.6417L16.2627 46.2277C16.2627 46.2277 16.2494 45.88 16.2219 45.8321L16.1423 45.5089L16.2117 45.6078C16.2117 45.6078 16.3626 45.8556 16.3616 46.1095C16.3616 46.1931 16.3595 46.2889 16.3595 46.344L16.3616 50.6407C16.3616 51.1158 15.8956 51.591 15.3155 51.591L1.23459 51.5991H1.23354Z"
      fill="#202124" />
    <path
      d="M7.6109 45.1092C7.34174 45.1092 6.5108 44.7645 6.5108 44.1538V7.55746C6.5108 6.95384 6.97062 6.27984 7.58541 6.27984L15.1269 6.27377C15.6428 6.27377 16.1975 6.03004 16.1975 5.49372V1.10834C16.1975 0.580176 15.7683 0.00408032 15.2402 0.00408032C15.6164 -0.0122337 15.9538 0.145794 16.1577 0.423132C16.2923 0.605644 16.3729 0.840184 16.3576 1.11242V5.45703C16.3576 5.45703 16.3576 5.52332 16.3412 5.60285C16.3127 5.74152 16.2628 5.88222 16.1812 6.00253C16.0833 6.14528 15.9436 6.26456 15.7887 6.34511C15.597 6.44402 15.3696 6.45932 15.1219 6.4532H7.65371C7.48141 6.45218 7.32643 6.51337 7.19083 6.58882C6.84521 6.78153 6.63823 7.16491 6.67085 7.55746V44.1558C6.67187 44.3699 6.76466 44.5535 6.88497 44.7115C7.06033 44.942 7.33868 45.0888 7.61498 45.1112L7.60885 45.1092H7.6109Z"
      fill="#202124" />
  </g>
  <path
    d="M46.6257 0.00506592H60.6353C61.2022 0.00506592 61.662 0.466918 61.662 1.03689V50.5682C61.662 51.1382 61.2022 51.6 60.6353 51.6H46.6257C46.0589 51.6 45.5991 51.1382 45.5991 50.5682V46.1828C45.5991 45.6128 46.0589 45.1509 46.6257 45.1509H54.2162C54.7831 45.1509 55.2429 44.689 55.2429 44.1191V7.52275C55.2429 6.95278 54.7831 6.49088 54.2162 6.49088H46.6257C46.0589 6.49088 45.5991 6.02898 45.5991 5.45901V1.03689C45.5991 0.466918 46.0589 0.00506592 46.6257 0.00506592Z"
    fill="#202124" />
  <g opacity="0.3">
    <path
      d="M60.9636 51.546C61.297 51.389 61.5131 50.9383 61.5131 50.5682L61.5213 1.08581C61.5213 0.704474 61.301 0.216072 60.9717 0.0641479C61.3235 0.176307 61.5702 0.478155 61.6456 0.8442C61.6619 0.921691 61.662 1.00223 61.662 1.08482V50.5671C61.662 50.9944 61.4132 51.3768 60.9636 51.545V51.546Z"
      fill="#202124" />
  </g>
  <g opacity="0.3">
    <path
      d="M60.7842 51.5887C60.7495 51.5938 60.6537 51.599 60.619 51.599L46.9601 51.5959H46.8449C46.6573 51.598 46.5126 51.601 46.3872 51.5725C46.2781 51.547 46.1333 51.4899 46.0089 51.393C45.9998 51.3858 45.9691 51.3583 45.9406 51.3328C45.9151 51.3094 45.8917 51.288 45.8917 51.288C45.8917 51.288 46.1598 51.4185 46.2781 51.4389C46.5279 51.4827 46.6645 51.4685 46.844 51.4664H46.9601L60.6516 51.4797C60.8545 51.4797 61.2123 51.392 61.3806 51.2767L61.3133 51.339C61.2073 51.4379 61.0625 51.5164 60.9085 51.5612C60.9085 51.5612 60.8178 51.5827 60.7842 51.5878V51.5887Z"
      fill="#202124" />
  </g>
</svg>